<svg xmlns="http://www.w3.org/2000/svg" width="309.136" height="29.944" viewBox="0 0 309.136 29.944"><path d="M12.48,18.88a7.636,7.636,0,0,1,4.3,1.96,5.214,5.214,0,0,1,1.62,3.92,5.129,5.129,0,0,1-.04.76,11.43,11.43,0,0,1-2.2,5.34,16.105,16.105,0,0,1-4.88,4.42l-.68.44a1.041,1.041,0,0,1-.04.32q-.16.6-.96.6a6.988,6.988,0,0,1-1.68-.36,8.29,8.29,0,0,1-4.66-3.2,9.037,9.037,0,0,1-1.74-5.44l.04-.72a7.512,7.512,0,0,1,1.58-4.16,10.035,10.035,0,0,1,3.58-2.9A10.052,10.052,0,0,1,11.2,18.8,7.676,7.676,0,0,1,12.48,18.88ZM9.6,34.36a9.9,9.9,0,0,0,3.58-2.24,13.919,13.919,0,0,0,2.76-3.58A7.96,7.96,0,0,0,17,24.8a4.974,4.974,0,0,0-.12-1.12,3.858,3.858,0,0,0-2.22-2.66,8.594,8.594,0,0,0-3.86-.9,7.93,7.93,0,0,0-6.82,3.86A7.339,7.339,0,0,0,2.92,27.8a7.437,7.437,0,0,0,.6,2.88,6.934,6.934,0,0,0,2.04,2.8,6.378,6.378,0,0,0,3.08,1.4,1.61,1.61,0,0,0,.44.04A.825.825,0,0,1,9.6,34.36Zm26.88-7.68a.557.557,0,0,0-.24-.04.82.82,0,0,0-.84.84.555.555,0,0,0,.22.48,2.689,2.689,0,0,0,.7.32,3.143,3.143,0,0,1,1.44,1.16,2.218,2.218,0,0,1,.26.6,1,1,0,0,0,.42.6.719.719,0,0,0,.44.12,1.014,1.014,0,0,0,.52-.14.684.684,0,0,0,.32-.38,1.27,1.27,0,0,0,.08-.36,2.141,2.141,0,0,0-.4-1.04A5.278,5.278,0,0,0,36.48,26.68Zm34.88-7.6a.77.77,0,0,1,.36.68.86.86,0,0,1-.16.48.765.765,0,0,1-.44.32,23.637,23.637,0,0,0-5.36,2.74A23.825,23.825,0,0,0,61.04,27a.666.666,0,0,0-.24.44.548.548,0,0,0,.2.32l.48.48a10.1,10.1,0,0,0,2.98,1.7,14.521,14.521,0,0,0,3.7,1.02l.96.16h.64a.993.993,0,0,1,.36.04.542.542,0,0,1,.38.26.911.911,0,0,1,.14.5.8.8,0,0,1-.28.64,1.1,1.1,0,0,1-.72.2q-.04,0-.88-.12a19.677,19.677,0,0,1-3.52-.96,21.751,21.751,0,0,1-3.4-1.52,9.006,9.006,0,0,1-1.6-1.12q-.2,2.28-.2,3.84a16.4,16.4,0,0,0,.8,5.6,3.558,3.558,0,0,0,.64,1.2,1.4,1.4,0,0,0,.46.34,1.145,1.145,0,0,1,.46.38.943.943,0,0,1,.12.4.815.815,0,0,1-1.12.76,2.845,2.845,0,0,1-1.78-1.96,18.344,18.344,0,0,1-.74-3.6,35.624,35.624,0,0,1-.24-4.24,59.163,59.163,0,0,1,.58-8,77.577,77.577,0,0,1,1.54-8.12l.48-1.88a8.4,8.4,0,0,1,.24-.96,2.236,2.236,0,0,1,.4-.8.76.76,0,0,1,.64-.32.814.814,0,0,1,.66.32.733.733,0,0,1,.1.76,45.839,45.839,0,0,0-1.68,6.4q-.56,2.88-1,6.4l.44-.4a31.192,31.192,0,0,1,3.98-3.08,33.187,33.187,0,0,1,4.3-2.52,5.607,5.607,0,0,0,.62-.32,2,2,0,0,1,.98-.28A.719.719,0,0,1,71.36,19.08Zm18.32,7.6a.557.557,0,0,0-.24-.04.82.82,0,0,0-.84.84.555.555,0,0,0,.22.48,2.689,2.689,0,0,0,.7.32,3.143,3.143,0,0,1,1.44,1.16,2.218,2.218,0,0,1,.26.6,1,1,0,0,0,.42.6.719.719,0,0,0,.44.12,1.014,1.014,0,0,0,.52-.14.684.684,0,0,0,.32-.38,1.27,1.27,0,0,0,.08-.36,2.141,2.141,0,0,0-.4-1.04A5.278,5.278,0,0,0,89.68,26.68Zm35,0a.745.745,0,0,1,.44.68.914.914,0,0,1-.2.52,1.166,1.166,0,0,1-.92.32l-.72-.04q-.6,0-1.8.08.08.64.16,1.92.16,2.4.16,2.92,0,.28-.02.78t-.02,1.58a2.428,2.428,0,0,1-.24,1.32.76.76,0,0,1-.64.32.839.839,0,0,1-.44-.12.679.679,0,0,1-.36-.64,2.248,2.248,0,0,1,.08-.52,16.367,16.367,0,0,0,.2-2.44q0-2.12-.28-5-1.44.16-3.72.56a19.5,19.5,0,0,0-2.6.64.445.445,0,0,1-.2.04,37.949,37.949,0,0,0-1.16,6.6q-.08,1.04-.08,1.52l.04.64a.807.807,0,0,1-.16.52.956.956,0,0,1-.68.32.723.723,0,0,1-.5-.2.814.814,0,0,1-.26-.52,11.533,11.533,0,0,1,.24-2.76l.12-.84a83.787,83.787,0,0,1,2.64-11.04l.32-1.08q.6-2,1-3.24a17.388,17.388,0,0,1,1-2.44q.8-1.68,1.6-1.68a1.144,1.144,0,0,1,.84.44,6.237,6.237,0,0,1,1.12,2.3q.48,1.58,1.04,4.46.36,1.76.64,4.12,1.32-.12,2.56-.12h.32A1.114,1.114,0,0,1,124.68,26.68ZM114,27.96a57.769,57.769,0,0,1,5.92-1.08l-.4-2.88q-.28-1.76-.8-4-.36-1.48-.58-2.12t-.42-.64q-.36,0-1.2,2.4-.76,2.16-1.72,5.4Q114.24,26.96,114,27.96Zm28.56-1.28a.557.557,0,0,0-.24-.04.82.82,0,0,0-.84.84.555.555,0,0,0,.22.48,2.69,2.69,0,0,0,.7.32,3.143,3.143,0,0,1,1.44,1.16,2.218,2.218,0,0,1,.26.6,1,1,0,0,0,.42.6.719.719,0,0,0,.44.12,1.014,1.014,0,0,0,.52-.14.684.684,0,0,0,.32-.38,1.27,1.27,0,0,0,.08-.36,2.141,2.141,0,0,0-.4-1.04A5.278,5.278,0,0,0,142.56,26.68Zm34.88-7.6a.77.77,0,0,1,.36.68.86.86,0,0,1-.16.48.765.765,0,0,1-.44.32,23.637,23.637,0,0,0-5.36,2.74,23.826,23.826,0,0,0-4.72,3.7.666.666,0,0,0-.24.44.548.548,0,0,0,.2.32l.48.48a10.1,10.1,0,0,0,2.98,1.7,14.521,14.521,0,0,0,3.7,1.02l.96.16h.64a.993.993,0,0,1,.36.04.542.542,0,0,1,.38.26.911.911,0,0,1,.14.5.8.8,0,0,1-.28.64,1.1,1.1,0,0,1-.72.2q-.04,0-.88-.12a19.677,19.677,0,0,1-3.52-.96,21.751,21.751,0,0,1-3.4-1.52,9.006,9.006,0,0,1-1.6-1.12q-.2,2.28-.2,3.84a16.4,16.4,0,0,0,.8,5.6,3.558,3.558,0,0,0,.64,1.2,1.4,1.4,0,0,0,.46.34,1.145,1.145,0,0,1,.46.38.943.943,0,0,1,.12.4.815.815,0,0,1-1.12.76,2.845,2.845,0,0,1-1.78-1.96,18.343,18.343,0,0,1-.74-3.6,35.623,35.623,0,0,1-.24-4.24,59.162,59.162,0,0,1,.58-8,77.58,77.58,0,0,1,1.54-8.12l.48-1.88a8.4,8.4,0,0,1,.24-.96,2.237,2.237,0,0,1,.4-.8.76.76,0,0,1,.64-.32.814.814,0,0,1,.66.32.733.733,0,0,1,.1.76,45.838,45.838,0,0,0-1.68,6.4q-.56,2.88-1,6.4l.44-.4a31.193,31.193,0,0,1,3.98-3.08,33.188,33.188,0,0,1,4.3-2.52,5.606,5.606,0,0,0,.62-.32,2,2,0,0,1,.98-.28A.719.719,0,0,1,177.44,19.08Zm18.32,7.6a.557.557,0,0,0-.24-.04.82.82,0,0,0-.84.84.555.555,0,0,0,.22.48,2.69,2.69,0,0,0,.7.32,3.143,3.143,0,0,1,1.44,1.16,2.218,2.218,0,0,1,.26.6,1,1,0,0,0,.42.6.719.719,0,0,0,.44.12,1.014,1.014,0,0,0,.52-.14.683.683,0,0,0,.32-.38,1.27,1.27,0,0,0,.08-.36,2.141,2.141,0,0,0-.4-1.04A5.278,5.278,0,0,0,195.76,26.68Zm33.44,8a.841.841,0,0,1,.28.6.74.74,0,0,1-.26.56.883.883,0,0,1-.62.24,6.463,6.463,0,0,1-.84-.04q-.2,0-.6-.02a3.624,3.624,0,0,0-.68.02,24.848,24.848,0,0,0-3.12.36q-.88.2-2.52.4-.2.04-.48.12a1.793,1.793,0,0,1-.48.08.689.689,0,0,1-.56-.24.848.848,0,0,1-.2-.56.919.919,0,0,1,.16-.52.64.64,0,0,1,.48-.28,34.31,34.31,0,0,1,3.4-.48,5.128,5.128,0,0,1-.04-.76V31.64q0-3.4.4-9.08l.08-1.08a13.027,13.027,0,0,1,.56-3.84,45.7,45.7,0,0,0-5.32.92q-.24.08-.62.22a1.064,1.064,0,0,1-.66.06.765.765,0,0,1-.44-.32.86.86,0,0,1-.16-.48.829.829,0,0,1,.16-.5.632.632,0,0,1,.44-.26q1.2-.28,4.2-.68t4.48-.52a6.941,6.941,0,0,1,.96-.08,1.558,1.558,0,0,1,.56.08.71.71,0,0,1,.52.76.741.741,0,0,1-.56.8.832.832,0,0,1-.32.04,2.956,2.956,0,0,1-.58-.06,2.781,2.781,0,0,0-.54-.06h-.36a.576.576,0,0,1-.2.4q-.04.08-.12.28a2.839,2.839,0,0,0-.12.36,21.426,21.426,0,0,0-.44,2.4q-.24,1.68-.4,5.04-.16,2.8-.16,4.6a29.751,29.751,0,0,0,.24,3.92v.2l2.44-.2q.96-.12,1.2-.12A1.263,1.263,0,0,1,229.2,34.68Zm10.88,3.82a15.5,15.5,0,0,0,9.54-1.29c3.48-1.47,5.13-2.43,4.92-2.91-.21-.51-.39-.75-.54-.75a19.937,19.937,0,0,0-3.09,1.71,15.028,15.028,0,0,1-5.85,2.13c-2.04.27-3.42.27-4.14-.06a3.214,3.214,0,0,1-1.65-1.56c-.39-.72.06-2.13,1.32-4.26a21.842,21.842,0,0,1,5.7-6.06c2.49-1.92,3.72-3.06,3.66-3.42-.06-.3-.93-.03-2.64.96a21.013,21.013,0,0,0-5.64,5.1A51.323,51.323,0,0,1,240.65,22a7.213,7.213,0,0,0-.78-3.21c-.39-.45-.63-.51-.84-.12a1.271,1.271,0,0,0-.12,1.08,14.809,14.809,0,0,1,.33,2.85,21.755,21.755,0,0,0,1.74,6.36,23.309,23.309,0,0,0-2.49,3.81,16.45,16.45,0,0,0-.78,1.92,2.987,2.987,0,0,0,.18,1.5A4.654,4.654,0,0,0,240.08,38.5Zm46.53-3.03a5.617,5.617,0,0,0-4.32-2.82,65.635,65.635,0,0,0-.51-10.35,19.4,19.4,0,0,1,2.85-1.5c.72-.24,1.08-.48,1.14-.72a.525.525,0,0,0-.18-.51,2.314,2.314,0,0,0-1.29.18,13.138,13.138,0,0,0-2.7,1.41,7.884,7.884,0,0,0-1.11-2.37.717.717,0,0,0-.78.24c-.27.27-.21.69.18,1.29a3.114,3.114,0,0,1,.57,1.65,44.822,44.822,0,0,0-6.93,4.14,16.014,16.014,0,0,0-2.1,1.8c-.06.12,0,.27.15.48s.3.3.48.24a14.078,14.078,0,0,0,2.13-1.62,43.2,43.2,0,0,1,6.48-3.99,44.561,44.561,0,0,1,.27,9.63,14.828,14.828,0,0,0-4.2.48,7.886,7.886,0,0,0-2.67,1.23,2,2,0,0,0-1.05,1.62,5.166,5.166,0,0,0,.15,1.38c.09.33.51.69,1.23.99.72.33,1.95.24,3.72-.24q2.7-.765,3.96-4.14a3.412,3.412,0,0,1,1.8.39,3.739,3.739,0,0,1,1.14,1.14,2.7,2.7,0,0,0,.93.93.8.8,0,0,0,.72.09C286.85,36.43,286.82,36.07,286.61,35.47Zm-9.09,1.74a8.076,8.076,0,0,1-2.67.15.636.636,0,0,1-.57-.63c.09-1.2,1.02-2.04,2.67-2.43a11.04,11.04,0,0,1,3.84-.45C280.58,34.99,279.47,36.13,277.52,37.21ZM267.41,38.5c.45.27.63.21.54-.21-.12-.36-.39-1.92-.81-4.59a30.671,30.671,0,0,1-.18-8.13c.3-2.79.42-4.26.39-4.44a.935.935,0,0,0-.51-.42c-.24-.09-.42-.06-.48.09-.06.18-.24,1.32-.51,3.45a64.47,64.47,0,0,0-.12,9.75A6.7,6.7,0,0,0,267.41,38.5Zm38.82-5.46c.33,0,.6-.21.78-.66.18-.42-.03-.63-.57-.72a4.189,4.189,0,0,1-1.17-.24,10.436,10.436,0,0,1,1.59-3.84c.72-1.02,1.59-2.19,2.61-3.48a4.9,4.9,0,0,0,1.08-4.23,2.049,2.049,0,0,0-2.64-1.83,9.673,9.673,0,0,0-4.11,1.83,4.835,4.835,0,0,0-2.19,3.3c-.15,1.26-.06,1.95.3,2.1a.905.905,0,0,0,1.05-.27.976.976,0,0,0,.3-.9.879.879,0,0,0-.45-.6,5.407,5.407,0,0,1,3.24-3.54q2.25-.81,2.88-.09a2.108,2.108,0,0,1,.45,1.71c-.06.66-.75,1.77-2.01,3.36a22.216,22.216,0,0,0-3.03,4.83c-.72,1.68-.84,2.55-.36,2.67C304.43,32.59,305.21,32.77,306.23,33.04Zm-.18,4.65c-.6.42-.6.78.03,1.05.66.3,1.23.57,1.8.81.51.27.81-.03.87-.81a1.177,1.177,0,0,0-.96-1.41A2.07,2.07,0,0,0,306.05,37.69Z" transform="translate(-1.52 -11.68)" fill="#ff553c"/></svg>