<svg xmlns="http://www.w3.org/2000/svg" width="226.678" height="36.232" viewBox="0 0 226.678 36.232"><path d="M15.84,10.64V21.8a11.236,11.236,0,0,0-5.24,4.6C9,28.64,8.56,30.76,9.36,32.64c.84,1.92,2,2.44,3.52,1.52a7.808,7.808,0,0,0,4.28-5.6,51.289,51.289,0,0,0,.64-5.92,12.038,12.038,0,0,1,8.04-1.92c-.12,1.8,0,2.8.32,2.96a1.21,1.21,0,0,0,.88.12q.3-.12.48-.96a10.666,10.666,0,0,0,0-1.6,7.516,7.516,0,0,1,2.4,2.64c.96,1.48,1.2,3.56.8,6.2-.28.28-.56.6-.8.84A1.3,1.3,0,0,0,29.68,32c.08.4.4.56.96.56.48,0,1.08-.64,1.72-1.92.56-1.32.64-3.24.16-5.84a9.566,9.566,0,0,0-4.88-5.68,38.6,38.6,0,0,1,.72-6.84c.4-1.84.52-2.96.36-3.24a5.882,5.882,0,0,0-.52-.68.588.588,0,0,0-.68-.04c-.28.16-.6,1.08-.88,2.84a70.988,70.988,0,0,0-.76,7.72,17.966,17.966,0,0,0-8.16,1.88c-.08-3.28-.08-6.88,0-10.88a37.834,37.834,0,0,0,5.24-1.44,1,1,0,0,0,.68-.88c0-.32-.52-.52-1.48-.48a18.462,18.462,0,0,0-4.44,1.04,23.956,23.956,0,0,0-.16-2.84.742.742,0,0,0-.52-.68,1.58,1.58,0,0,0-1.08.2c-.36.24-.48.76-.32,1.48a12.463,12.463,0,0,1,.2,2.48c-3.76,1.36-6.24,2.28-7.36,2.72-1.12.48-1.68,1-1.56,1.56.08.6.8.56,2.24-.12A64.075,64.075,0,0,1,15.84,10.64Zm-2.32,21c-1.64,1.24-2.56,1.08-2.72-.44.32-3.08,2-5.56,5.04-7.52A12.558,12.558,0,0,1,13.52,31.64Zm41.32-6.32c-.32-.76-.68-1.04-1.2-.88s-.72,1.28-.64,3.32c.08,2.08.32,4.64.68,7.72a.565.565,0,0,0-.28.6,1.244,1.244,0,0,0,.2.68c.12.12,1.2-.12,3.32-.76,2.12-.6,4.6-1.44,7.52-2.48A1.194,1.194,0,0,0,66,32.84c.64-.28.76-.68.32-1.24q.96-8.4-1.32-8.28c-3.12-.76-6.48.48-10.08,3.64Zm.08,3.76c3.12-2.96,6.08-4.4,8.92-4.44a1.991,1.991,0,0,1,1.08,1.92,33.191,33.191,0,0,1-.32,4.96L55.32,34.8A23.374,23.374,0,0,1,54.92,29.08Zm-7.36,8.56a.733.733,0,0,0-.08-.84,6.718,6.718,0,0,1-.68-2.68c-.2-1.56-.48-4.16-.8-7.96A96.209,96.209,0,0,0,56.24,19.4c0,.64.24.92.68.84a2.711,2.711,0,0,0,.84-.24,6.832,6.832,0,0,0,.44-2.32A3.242,3.242,0,0,0,59,16.4c.04-.28-.12-.52-.56-.64a23.855,23.855,0,0,0-1.32-9.32,4.355,4.355,0,0,0-4.16-2.2,16.965,16.965,0,0,0-6.8,3.48c.04-.68.08-1.32.08-1.84,0-.48-.2-.72-.52-.72-.36,0-.6.08-.68.2-.08.16-.32,1.4-.76,3.8a60.334,60.334,0,0,0-.36,10.96c.4,5.92.8,10.44,1.16,13.44.36,3.04.8,4.56,1.4,4.56S47.44,37.96,47.56,37.64ZM55.24,9.12c-.32-.12-1.32.44-3.08,1.72a46.793,46.793,0,0,0-6.52,6A62.026,62.026,0,0,1,46,10.36a14.556,14.556,0,0,1,3.76-3.24,4.513,4.513,0,0,1,3.2-1.44,2.909,2.909,0,0,1,2.88,1.84,19.246,19.246,0,0,1,.64,9.56A32.5,32.5,0,0,1,45.84,24.2a16.447,16.447,0,0,1-.04-5.6c.28,0,1.04-.76,2.2-2.2a15.622,15.622,0,0,1,4.16-3.6c1.6-.88,2.44-1.4,2.56-1.48a2.029,2.029,0,0,1,.88-.12c.4,0,.68-.12.76-.32a1.562,1.562,0,0,0-.2-1A1.114,1.114,0,0,0,55.24,9.12Zm7.4-3.48a1.456,1.456,0,0,1-.12-.8c.08-.2,0-.48-.36-.76s-.64-.32-.88-.08c-.24.2-.48,1.28-.76,3.16a37.652,37.652,0,0,0,.2,8.84,13.981,13.981,0,0,1,.64,3.32c.04.96.2,1.48.48,1.52a5.744,5.744,0,0,1,.64.28,13.586,13.586,0,0,0,2.92-.76,67.785,67.785,0,0,0,9.12-4.24c-.2,11.16-.44,17.28-.72,18.4-.28,1.16-.2,1.72.32,1.8a1.412,1.412,0,0,0,1.16-.36,3.915,3.915,0,0,0,.56-2.24c.04-1.24.16-3.72.28-7.6.12-3.8.16-9.48.04-17a9.079,9.079,0,0,0-1.32-5,4.275,4.275,0,0,0-4.12-1.88,9.146,9.146,0,0,0-4.24.84A24.614,24.614,0,0,0,62.64,5.64Zm11.72,8.72c-3.88,1.84-7.64,3.6-11.24,5.36A15.041,15.041,0,0,0,62.56,15c3-1.36,5.36-2.44,7.16-3.24a15.313,15.313,0,0,1,4.64-1.36ZM72.28,4.12c1.28.16,1.96,1.72,2.08,4.56a16.313,16.313,0,0,0-4.84,1.48c-2.36,1-4.76,2.04-7.08,3.04a16.2,16.2,0,0,1,0-5.2A22.587,22.587,0,0,1,66.8,4.64,6.778,6.778,0,0,1,72.28,4.12Zm40.08,23.32a58.059,58.059,0,0,1,.52-7.68,23.03,23.03,0,0,0,.2-6.28c-.24-1.48-.56-2.12-1.04-1.92-.48.24-.72,1.8-.76,4.64-.04,2.92-.28,6.72-.68,11.44.04.52.32.8.96.84S112.48,28.16,112.36,27.44ZM94.12,28.8a6.012,6.012,0,0,0,2.28-1.76,2.806,2.806,0,0,0,.76-1.88,1.179,1.179,0,0,0-.8-1.12c-.48-.2-.6-.08-.52.32a2.434,2.434,0,0,1-.2,1.56,2.379,2.379,0,0,1-1.76,1.16,13.574,13.574,0,0,1-3.92-4.76A17.758,17.758,0,0,1,88.68,19a1.744,1.744,0,0,0-.84-1.2,1.969,1.969,0,0,0-.88-.28c-.24,0-.28.6-.08,1.72a17.971,17.971,0,0,0,2.56,5.64C91,27.48,92.56,28.84,94.12,28.8Zm35.8-7.36a.656.656,0,0,0,.44.28,2.84,2.84,0,0,0,1.04-.12c.52-.12,2.28-.64,5.2-1.56s4.76-1.52,5.52-1.72q1.08-.3,1.32-.36a.359.359,0,0,1,.36.08,1.061,1.061,0,0,0,.24.2c.08.04.16.04.32-.04a1.652,1.652,0,0,0,.44-.28,2.587,2.587,0,0,0,.32-.36.825.825,0,0,0,.12-.52.546.546,0,0,0-.2-.48,1.721,1.721,0,0,0-.68-.2,5.423,5.423,0,0,0-1.6.16c-.72.16-1.4.32-1.96.48-.6.16-1.48.44-2.68.84-1.2.44-2.8.96-4.84,1.56a20.051,20.051,0,0,0-3.32,1.2c-.2.16-.28.28-.24.44A.762.762,0,0,0,129.92,21.44Zm8.84-17.48c-.52-.52-1.04-1.08-1.48-1.56a1.14,1.14,0,0,0-1.72,0,62.23,62.23,0,0,0-5.64,9.32,61.163,61.163,0,0,0-2.52,5.6c-.28.76-.72,1.8-1.24,3a5.029,5.029,0,0,0-.56,2.52c.12.48.32.64.68.52a1.082,1.082,0,0,0,.72-.72c.12-.32.88-2.28,2.24-5.88a64.778,64.778,0,0,1,7.08-12.6A125.475,125.475,0,0,1,147.68,14c3.48,3.4,5.32,5.16,5.6,5.28a.8.8,0,0,0,.88-.24q.42-.48-4.56-5.4C146.28,10.36,142.64,7.12,138.76,3.96ZM134.2,37.6l3.84-1.4c2.08-1.12,3.48-1.88,4.24-2.2.72-.36,1.4-.64,2-.92.68.6,1.2.76,1.48.52a2.723,2.723,0,0,0,.4-1.76,19.559,19.559,0,0,1,.6-4.04c.4-1.76.36-3.08-.16-3.96-.52-.92-1.04-1.4-1.68-1.52a8.371,8.371,0,0,0-3.76.92c-1.88.76-4.56,1.92-8.04,3.52a3.109,3.109,0,0,0-.32-1.72c-.2-.28-.4-.32-.64-.16s-.6,1.28-1.08,3.44a20.088,20.088,0,0,0-.32,6.36c.2,2.12.52,3.28.92,3.48S132.92,38.2,134.2,37.6Zm-1.32-8.64c5.28-2.84,8.64-4.4,10.08-4.72,1.44-.28,2.24.2,2.32,1.6a15.267,15.267,0,0,1-1,5.44,92.842,92.842,0,0,1-11.4,4.92A13.882,13.882,0,0,1,132.88,28.96Zm56.48-13.4c-4.88-.28-9.68,2.04-14.4,7,.64-1.8,1.32-3.64,2.08-5.52a6.085,6.085,0,0,0-.24-5.28c-.48-.64-.96-.92-1.48-.84a2.133,2.133,0,0,0-1.48,1,21.993,21.993,0,0,1,.32-4.56,2.773,2.773,0,0,0,.12-1.56,1.5,1.5,0,0,0-.92-.48q-.78-.12-.84.24a8.4,8.4,0,0,0-.24,1.56c-.08.8-.24,2.84-.48,6.08-3,2.68-4.68,4.48-5.08,5.44-.44.92-.4,1.52.12,1.76.48.24.96-.2,1.48-1.24a11.351,11.351,0,0,1,3.48-3.6c-.04,3.68.04,6.88.16,9.52a24.116,24.116,0,0,1-2.4,3.32,4.352,4.352,0,0,0-1.12,2.44c0,.64.24,1.04.68,1.08.4.08.88-.32,1.36-1.2a5.776,5.776,0,0,1,1.32-2.32,43.94,43.94,0,0,0,.28,5.64q.12.42.6.12a6.673,6.673,0,0,0,.96-.64c.28-.24.36-1,.16-2.2a22,22,0,0,1,.04-5.4c3.64-4.04,7.16-6.72,10.68-7.92s5.88-.8,7,1.16c-.28,4.2-1.08,7.36-2.48,9.48a17.631,17.631,0,0,1-3.16,3.96c-.64.52-.96,1-.88,1.44a.855.855,0,0,0,.8.72,1.478,1.478,0,0,0,1.28-.56,45.139,45.139,0,0,0,3.76-6.04c2.04-3.6,2.72-6.88,1.92-9.88A4.577,4.577,0,0,0,189.36,15.56Zm-15.68,6.4c.04-2.92.04-5.6.08-8,.96-1.04,1.68-1.16,2.08-.4a4.9,4.9,0,0,1-.36,3.4C174.88,18.48,174.24,20.16,173.68,21.96Zm36.92-3.92a21.9,21.9,0,0,0,4.2,13.64,5.429,5.429,0,0,0,4.56,1.52,42.972,42.972,0,0,0,13.92-5.44c.44-.32.4-.64-.12-.92a1.509,1.509,0,0,0-1.2-.16c-1.88,1-3.68,1.88-5.4,2.6a48.743,48.743,0,0,1-5.44,1.96,5.714,5.714,0,0,1-5.24-.84,17.754,17.754,0,0,1-3.44-13.04A111.083,111.083,0,0,1,224.2,13c-.04,3.16-.12,5.8-.32,7.8-.2,1.96.16,2.88.96,2.64.84-.24,1.16-1.32,1-3.24a42.873,42.873,0,0,1,.4-7.96c3.8-.84,6-1.44,6.52-1.88.56-.44.76-.8.56-1.16-.2-.32-.8-.36-1.8-.08-1,.24-2.72.8-5.16,1.64a14.867,14.867,0,0,1-.04-2.96c.04-.8-.32-1.12-1.04-.92-.76.2-1.08.84-.92,2a7.381,7.381,0,0,1,0,2.36c-2.92.88-6.88,2.24-11.92,4.16.08-2.04.16-3.52.2-4.52a2.092,2.092,0,0,0-.84-1.96c-.6-.4-.96-.08-1.04.92l-.16,6.32c-2.88,1.16-4.32,1.96-4.36,2.52-.08.52.08.84.44.96S208.32,19.2,210.6,18.04Z" transform="translate(-6.904 -2.01)" fill="#ff553c"/></svg>