<svg xmlns="http://www.w3.org/2000/svg" width="36.802" height="17.313" viewBox="0 0 36.802 17.313"><path d="M9.78,3.44c-.36-.86-.7-1.28-1.02-1.28S8.52,2.58,9,3.4a18.283,18.283,0,0,0,1.02,1.64c.2.26.34.44.4.52a.588.588,0,0,0,.16.16c-.32.1-.84.28-1.54.56s-1,.5-.86.7a.5.5,0,0,0,.62.18c.3-.08,1.2-.38,2.66-.86a21.017,21.017,0,0,1-.56,3,19.735,19.735,0,0,1-3.28.88q-.33-.03-.24.36a.455.455,0,0,0,.44.42A2.667,2.667,0,0,0,9,10.72a13.935,13.935,0,0,1,1.82-.56c-.56,2.3-.88,3.74-.94,4.3-.06.58-.06.88.02.9a.45.45,0,0,0,.24.02c.1-.02.26-.3.46-.92a27.482,27.482,0,0,0,.78-2.76,8.342,8.342,0,0,0,2.48,2.34,4.125,4.125,0,0,0,2.64.5c.58-.18.8-.32.7-.46-.12-.14-.38-.18-.84-.16a4.705,4.705,0,0,1-1.3-.12,4.574,4.574,0,0,1-1.78-1.1,6.39,6.39,0,0,1-1.7-2.18,1.858,1.858,0,0,0,.1-.54,21.967,21.967,0,0,1,3.18-1.32,6.282,6.282,0,0,0,2.02-.82,1.4,1.4,0,0,0-.12-.34c-.06-.14-.58-.08-1.54.2a26.925,26.925,0,0,0-3.44,1.34,19.222,19.222,0,0,0,.72-3.1c.62-.2,1.1-.34,1.4-.44a5.634,5.634,0,0,1,1.04-.2c.38-.04.54-.2.48-.44a.393.393,0,0,0-.44-.38,6.772,6.772,0,0,0-.7.08,4.854,4.854,0,0,0-.8.22,4.607,4.607,0,0,1,.54-.98,5.942,5.942,0,0,1,.92-1.06c.34-.28.36-.52.08-.72s-.46-.24-.6-.12A11,11,0,0,0,13.4,3.22a12.457,12.457,0,0,0-.92,1.34,1.811,1.811,0,0,0-.12.52l-1.14.44c-.48-.76-.76-1.22-.84-1.36A5.5,5.5,0,0,0,9.78,3.44ZM1.94,7.2A20.48,20.48,0,0,1,4.76,6.02c.66-.12,1-.3,1.06-.52s-.2-.3-.72-.2a6.58,6.58,0,0,0-1.5.44,6.558,6.558,0,0,1-.88.32,2.027,2.027,0,0,0-.6.24,1.5,1.5,0,0,0-.52.46q-.15.27,0,.36A.613.613,0,0,0,1.94,7.2Zm16.1,8.12c-.92.6-1.84,1.2-2.82,1.76a6.386,6.386,0,0,1-3.02.88,8.494,8.494,0,0,1-3.4-.76,7.367,7.367,0,0,0-4.32-.28c.92-1.96,1.48-3.34,1.74-4.06a3.157,3.157,0,0,0,.26-1.28,4.608,4.608,0,0,1-.16-.54c-.06-.2-.48-.22-1.26-.04A5.386,5.386,0,0,0,3,12.02c-.58.5-.92.78-1.06.92s-.14.26,0,.36a1.446,1.446,0,0,0,.28.18c.06.02.4-.22.98-.78a4.293,4.293,0,0,1,2.54-1,14.887,14.887,0,0,1-1.08,2.9c-.58,1.3-.96,2.14-1.18,2.56s-.24.66-.1.72a1.078,1.078,0,0,0,.32.1,1.532,1.532,0,0,0,.48-.2,4.541,4.541,0,0,1,1.26-.34,7.476,7.476,0,0,1,3.82.74,6.924,6.924,0,0,0,5.78-.24,24.046,24.046,0,0,0,3.1-1.72c.26-.24.4-.38.4-.48a.446.446,0,0,0-.2-.32C18.2,15.3,18.1,15.26,18.04,15.32Zm4.06-1.24a1.115,1.115,0,0,0,.52-.48c.06-.16-.02-.26-.26-.34a33.6,33.6,0,0,1,3.88-8.2c.64-.94,1.12-1.64,1.5-2.12.36-.46.44-.78.24-.94-.18-.16-.32-.18-.4-.08-.1.1-.78,1.06-2.08,2.86a20.37,20.37,0,0,0-2.9,5.78,22.808,22.808,0,0,0-.94,3.24C21.68,13.9,21.84,14,22.1,14.08Zm3.4-7.16a24.762,24.762,0,0,0-.42,8.42,18.938,18.938,0,0,0,.7,3.3c.1.1.28.1.52,0a1.061,1.061,0,0,0,.42-.26.186.186,0,0,0-.1-.22,1.114,1.114,0,0,1-.32-.58c-.08-.3-.24-1.32-.46-3.02a18.159,18.159,0,0,1,.08-5.1c.26-1.7.38-2.62.38-2.74a.192.192,0,0,0-.22-.22.723.723,0,0,0-.36.06A.847.847,0,0,0,25.5,6.92Zm6.16,5.4A40.514,40.514,0,0,0,36.7,10.2a.385.385,0,0,0-.08-.5c-.16-.18-.38-.16-.68.06a31.905,31.905,0,0,1-3.86,1.66,5.313,5.313,0,0,1-1.12.32c-.46.06-.64.24-.58.5C30.42,12.5,30.84,12.54,31.66,12.32Zm3.78-4.7a1.72,1.72,0,0,0,.98-.36.318.318,0,0,0,.06-.36.382.382,0,0,0-.18-.18,9.908,9.908,0,0,0-2.12.72c-1.34.52-2.26.9-2.72,1.1a2.606,2.606,0,0,0-.9.62c-.14.16-.1.32.12.46S32.48,9.1,35.44,7.62ZM37.86,4.2a.816.816,0,0,0,.42-.3.441.441,0,0,0-.08-.5c-.14-.2-.28-.26-.46-.16a4,4,0,0,0-.56.32,36.268,36.268,0,0,1-4.02,1.52,11.2,11.2,0,0,1-.2-2.34.864.864,0,0,0-.2-.54A1.535,1.535,0,0,0,32.4,2c-.14-.06-.2,0-.22.14s-.06.38-.08.68a14.974,14.974,0,0,0,.26,2.54C30.2,6.38,28.82,7,28.22,7.24a2.516,2.516,0,0,0-1.04.58.532.532,0,0,0-.08.4.31.31,0,0,0,.26.2,1.169,1.169,0,0,0,.76-.24c.4-.22,1.38-.66,2.94-1.36C32.62,6.14,34.88,5.26,37.86,4.2Zm-.9,13.08c.1.32.3.28.66-.22a2.694,2.694,0,0,0,.46-1.62,16.25,16.25,0,0,0-.16-2.04,1.5,1.5,0,0,0-.56-1.1q-.42-.3-3.18.6a11.046,11.046,0,0,0-3.24,1.38,5.084,5.084,0,0,0-.7.84c-.14.24-.04.54.26.86a8.864,8.864,0,0,0,.12,2.54.746.746,0,0,0,.98.6C32.12,19.02,33.92,18.4,36.96,17.28Zm-5.6-2.16a7.216,7.216,0,0,1,1.72-.98c.48-.18,1.64-.56,3.5-1.12.34.14.54.5.66,1.14a5.7,5.7,0,0,1-.16,2.26c-.84.38-1.6.68-2.24.9s-1.8.58-3.46,1.12A15.355,15.355,0,0,1,31.36,15.12Z" transform="translate(-1.525 -1.833)" fill="#fff"/></svg>