<svg xmlns="http://www.w3.org/2000/svg" width="199.465" height="26.201" viewBox="0 0 199.465 26.201"><path d="M10.92,16.52a6.682,6.682,0,0,1,3.762,1.715,4.562,4.562,0,0,1,1.418,3.43,4.488,4.488,0,0,1-.035.665A10,10,0,0,1,14.14,27,14.092,14.092,0,0,1,9.87,30.87l-.6.385a.91.91,0,0,1-.035.28q-.14.525-.84.525a6.115,6.115,0,0,1-1.47-.315,7.253,7.253,0,0,1-4.077-2.8,7.907,7.907,0,0,1-1.523-4.76l.035-.63a6.573,6.573,0,0,1,1.383-3.64A8.78,8.78,0,0,1,5.88,17.378,8.8,8.8,0,0,1,9.8,16.45,6.716,6.716,0,0,1,10.92,16.52ZM8.4,30.065a8.665,8.665,0,0,0,3.132-1.96,12.179,12.179,0,0,0,2.415-3.132,6.965,6.965,0,0,0,.927-3.272,4.352,4.352,0,0,0-.105-.98,3.376,3.376,0,0,0-1.943-2.328A7.52,7.52,0,0,0,9.45,17.6a6.939,6.939,0,0,0-5.968,3.378,6.422,6.422,0,0,0-.928,3.343,6.508,6.508,0,0,0,.525,2.52A6.067,6.067,0,0,0,4.865,29.3a5.581,5.581,0,0,0,2.7,1.225,1.409,1.409,0,0,0,.385.035A.722.722,0,0,1,8.4,30.065Zm23.52-6.72a.487.487,0,0,0-.21-.035.718.718,0,0,0-.735.735.486.486,0,0,0,.193.42,2.353,2.353,0,0,0,.612.28,2.75,2.75,0,0,1,1.26,1.015,1.941,1.941,0,0,1,.228.525.874.874,0,0,0,.368.525.629.629,0,0,0,.385.1.887.887,0,0,0,.455-.123.6.6,0,0,0,.28-.333,1.111,1.111,0,0,0,.07-.315,1.873,1.873,0,0,0-.35-.91A4.618,4.618,0,0,0,31.92,23.345Zm30.52-6.65a.674.674,0,0,1,.315.6.753.753,0,0,1-.14.42.669.669,0,0,1-.385.28,20.682,20.682,0,0,0-4.69,2.4,20.847,20.847,0,0,0-4.13,3.237.583.583,0,0,0-.21.385.479.479,0,0,0,.175.28l.42.42A8.834,8.834,0,0,0,56.4,26.2a12.706,12.706,0,0,0,3.237.893l.84.14h.56a.869.869,0,0,1,.315.035.475.475,0,0,1,.333.228.8.8,0,0,1,.122.438.7.7,0,0,1-.245.56.966.966,0,0,1-.63.175q-.035,0-.77-.105a17.217,17.217,0,0,1-3.08-.84,19.032,19.032,0,0,1-2.975-1.33,7.88,7.88,0,0,1-1.4-.98q-.175,1.995-.175,3.36a14.348,14.348,0,0,0,.7,4.9,3.114,3.114,0,0,0,.56,1.05,1.228,1.228,0,0,0,.4.3,1,1,0,0,1,.4.332.825.825,0,0,1,.105.35.713.713,0,0,1-.98.665,2.49,2.49,0,0,1-1.557-1.715,16.051,16.051,0,0,1-.647-3.15,31.171,31.171,0,0,1-.21-3.71,51.768,51.768,0,0,1,.507-7,67.88,67.88,0,0,1,1.347-7.105l.42-1.645a7.348,7.348,0,0,1,.21-.84,1.957,1.957,0,0,1,.35-.7.665.665,0,0,1,.56-.28.713.713,0,0,1,.577.28.641.641,0,0,1,.087.665,40.109,40.109,0,0,0-1.47,5.6q-.49,2.52-.875,5.6l.385-.35a27.293,27.293,0,0,1,3.483-2.695,29.039,29.039,0,0,1,3.762-2.2,4.906,4.906,0,0,0,.543-.28,1.748,1.748,0,0,1,.857-.245A.629.629,0,0,1,62.44,16.695Zm16.03,6.65a.487.487,0,0,0-.21-.035.718.718,0,0,0-.735.735.486.486,0,0,0,.193.42,2.353,2.353,0,0,0,.612.28,2.75,2.75,0,0,1,1.26,1.015,1.941,1.941,0,0,1,.228.525.874.874,0,0,0,.368.525.629.629,0,0,0,.385.1.887.887,0,0,0,.455-.123.6.6,0,0,0,.28-.333,1.111,1.111,0,0,0,.07-.315,1.873,1.873,0,0,0-.35-.91A4.618,4.618,0,0,0,78.47,23.345Zm30.625,0a.652.652,0,0,1,.385.595.8.8,0,0,1-.175.455,1.02,1.02,0,0,1-.805.28l-.63-.035q-.525,0-1.575.07.07.56.14,1.68.14,2.1.14,2.555,0,.245-.018.682t-.018,1.383a2.125,2.125,0,0,1-.21,1.155.665.665,0,0,1-.56.28.734.734,0,0,1-.385-.1.594.594,0,0,1-.315-.56,1.967,1.967,0,0,1,.07-.455,14.322,14.322,0,0,0,.175-2.135q0-1.855-.245-4.375-1.26.14-3.255.49a17.06,17.06,0,0,0-2.275.56.39.39,0,0,1-.175.035,33.2,33.2,0,0,0-1.015,5.775q-.07.91-.07,1.33l.035.56a.706.706,0,0,1-.14.455.836.836,0,0,1-.6.28.633.633,0,0,1-.437-.175.712.712,0,0,1-.228-.455,10.091,10.091,0,0,1,.21-2.415l.105-.735a73.313,73.313,0,0,1,2.31-9.66l.28-.945q.525-1.75.875-2.835a15.215,15.215,0,0,1,.875-2.135q.7-1.47,1.4-1.47a1,1,0,0,1,.735.385,5.458,5.458,0,0,1,.98,2.012q.42,1.383.91,3.9.315,1.54.56,3.605,1.155-.105,2.24-.105h.28A.975.975,0,0,1,109.1,23.345Zm-9.345,1.12a50.547,50.547,0,0,1,5.18-.945L104.58,21q-.245-1.54-.7-3.5-.315-1.295-.507-1.855t-.368-.56q-.315,0-1.05,2.1-.665,1.89-1.5,4.725Q99.96,23.59,99.75,24.465Zm24.99-1.12a.487.487,0,0,0-.21-.035.718.718,0,0,0-.735.735.486.486,0,0,0,.193.42,2.353,2.353,0,0,0,.612.28,2.75,2.75,0,0,1,1.26,1.015,1.941,1.941,0,0,1,.228.525.874.874,0,0,0,.368.525.629.629,0,0,0,.385.1.887.887,0,0,0,.455-.123.6.6,0,0,0,.28-.333,1.111,1.111,0,0,0,.07-.315,1.873,1.873,0,0,0-.35-.91A4.618,4.618,0,0,0,124.74,23.345Zm30.52-6.65a.674.674,0,0,1,.315.6.753.753,0,0,1-.14.42.669.669,0,0,1-.385.28,20.683,20.683,0,0,0-4.69,2.4,20.847,20.847,0,0,0-4.13,3.237.583.583,0,0,0-.21.385.479.479,0,0,0,.175.28l.42.42a8.834,8.834,0,0,0,2.607,1.487,12.706,12.706,0,0,0,3.238.893l.84.14h.56a.869.869,0,0,1,.315.035.475.475,0,0,1,.333.228.8.8,0,0,1,.122.438.7.7,0,0,1-.245.56.966.966,0,0,1-.63.175q-.035,0-.77-.105a17.217,17.217,0,0,1-3.08-.84,19.032,19.032,0,0,1-2.975-1.33,7.88,7.88,0,0,1-1.4-.98q-.175,1.995-.175,3.36a14.348,14.348,0,0,0,.7,4.9,3.113,3.113,0,0,0,.56,1.05,1.227,1.227,0,0,0,.4.3,1,1,0,0,1,.4.332.826.826,0,0,1,.1.35.713.713,0,0,1-.98.665,2.49,2.49,0,0,1-1.558-1.715,16.051,16.051,0,0,1-.647-3.15,31.171,31.171,0,0,1-.21-3.71,51.768,51.768,0,0,1,.508-7,67.881,67.881,0,0,1,1.347-7.105l.42-1.645a7.346,7.346,0,0,1,.21-.84,1.957,1.957,0,0,1,.35-.7.665.665,0,0,1,.56-.28.713.713,0,0,1,.577.28.641.641,0,0,1,.087.665,40.108,40.108,0,0,0-1.47,5.6q-.49,2.52-.875,5.6l.385-.35a27.293,27.293,0,0,1,3.482-2.695,29.039,29.039,0,0,1,3.762-2.2,4.908,4.908,0,0,0,.542-.28,1.748,1.748,0,0,1,.857-.245A.629.629,0,0,1,155.26,16.695Zm16.03,6.65a.487.487,0,0,0-.21-.035.718.718,0,0,0-.735.735.486.486,0,0,0,.192.42,2.354,2.354,0,0,0,.613.28,2.75,2.75,0,0,1,1.26,1.015,1.94,1.94,0,0,1,.228.525.874.874,0,0,0,.367.525.629.629,0,0,0,.385.1.887.887,0,0,0,.455-.123.6.6,0,0,0,.28-.333,1.111,1.111,0,0,0,.07-.315,1.873,1.873,0,0,0-.35-.91A4.618,4.618,0,0,0,171.29,23.345Zm29.26,7a.736.736,0,0,1,.245.525.648.648,0,0,1-.228.49.772.772,0,0,1-.542.21,5.656,5.656,0,0,1-.735-.035q-.175,0-.525-.017a3.171,3.171,0,0,0-.6.017,21.742,21.742,0,0,0-2.73.315q-.77.175-2.205.35-.175.035-.42.1a1.569,1.569,0,0,1-.42.07.6.6,0,0,1-.49-.21.742.742,0,0,1-.175-.49.8.8,0,0,1,.14-.455.56.56,0,0,1,.42-.245,30.021,30.021,0,0,1,2.975-.42,4.488,4.488,0,0,1-.035-.665v-2.2q0-2.975.35-7.945l.07-.945a11.4,11.4,0,0,1,.49-3.36,39.986,39.986,0,0,0-4.655.805q-.21.07-.543.193a.931.931,0,0,1-.577.052.669.669,0,0,1-.385-.28.753.753,0,0,1-.14-.42.725.725,0,0,1,.14-.437.553.553,0,0,1,.385-.228q1.05-.245,3.675-.595t3.92-.455a6.073,6.073,0,0,1,.84-.07,1.363,1.363,0,0,1,.49.07.621.621,0,0,1,.455.665.648.648,0,0,1-.49.7.728.728,0,0,1-.28.035,2.586,2.586,0,0,1-.507-.052,2.433,2.433,0,0,0-.473-.053h-.315a.5.5,0,0,1-.175.35q-.035.07-.1.245a2.482,2.482,0,0,0-.1.315,18.746,18.746,0,0,0-.385,2.1q-.21,1.47-.35,4.41-.14,2.45-.14,4.025a26.033,26.033,0,0,0,.21,3.43v.175l2.135-.175q.84-.1,1.05-.1A1.105,1.105,0,0,1,200.55,30.345Z" transform="translate(-1.33 -10.22)" fill="#ff553c"/></svg>