<svg xmlns="http://www.w3.org/2000/svg" width="303.388" height="43.224" viewBox="0 0 303.388 43.224"><path d="M5.88,15.06c.42-.3.64-.58.64-.86a47.546,47.546,0,0,1,4.06-5.54,34.618,34.618,0,0,0,.22,6.28c.24,1.6.46,2.46.66,2.56a.638.638,0,0,0,.6,0c.16-.1.24-.2.2-.28-.04-.06-.2-.9-.52-2.5a27.831,27.831,0,0,1-.18-7.16,17.166,17.166,0,0,1,2.58-2.54c.64-.48.98-.78.98-.88A1.621,1.621,0,0,0,15,3.66c-.1-.22-.8.28-2.1,1.42a30.561,30.561,0,0,0-4.02,4.5C7.54,11.42,6.56,12.7,6,13.46a15.515,15.515,0,0,0-.98,1.38.312.312,0,0,0,.06.4C5.2,15.38,5.46,15.32,5.88,15.06ZM28.6,4.6c-.42.14-1.26.46-2.56.96-1.32.5-1.96.88-1.94,1.12a.587.587,0,0,0,.2.46c.1.08.36,0,.82-.22.42-.2,1.02-.48,1.78-.82.76-.32,1.28-.56,1.58-.7a.63.63,0,0,1,.7,0c.18.14.32.18.4.1a1.269,1.269,0,0,0,.14-.38.72.72,0,0,0-.16-.56C29.4,4.38,29.08,4.38,28.6,4.6Zm2.1,4.62q0-.45-.3-.54a3.271,3.271,0,0,0-1.56.56c-.8.44-1.6.9-2.36,1.4a7.739,7.739,0,0,1-1.46.8.32.32,0,0,0-.28.38.409.409,0,0,0,.38.38c.22.04.62-.14,1.24-.54.62-.42,1.38-.86,2.3-1.38a7.947,7.947,0,0,1,1.6-.78A.582.582,0,0,0,30.7,9.22Zm-3.32,6.62c-.26.22-.32.42-.26.58a.411.411,0,0,0,.36.28,12.077,12.077,0,0,0,2.74-1.9,25.133,25.133,0,0,0,3.48-3.12c.64-.78,1.12-1.22,1.46-1.3.32-.08.52-.34.62-.8.1-.44.02-.64-.22-.58a9.793,9.793,0,0,0-2.08,1.88A54.452,54.452,0,0,1,27.38,15.84ZM56.64,6.76A6.28,6.28,0,0,1,56.4,3.5c-.1-.26-.24-.4-.48-.38-.26.02-.44.3-.54.88a4.73,4.73,0,0,0,.12,2.14c.22.84.46,1.3.7,1.32.22.04.36,0,.38-.12s.12-.22.3-.3C57.04,6.96,56.96,6.86,56.64,6.76Zm-2.54-2c-.28-.52-.54-.56-.82-.12a4.745,4.745,0,0,0,.7,3.12c.42.26.72.26.92,0-.16-.44-.36-.98-.62-1.56A1.75,1.75,0,0,1,54.1,4.76ZM44.62,7.18a25.614,25.614,0,0,0-1.4,10.18.7.7,0,0,0,.56.52.551.551,0,0,0,.58-.28c.12-.2.06-.48-.2-.82a19.391,19.391,0,0,1,1.26-9.6C45.32,6.74,45.04,6.74,44.62,7.18Zm9.72,9.5a29.955,29.955,0,0,1-2.32-8.1c-.22-.7-.48-1.02-.74-1a.487.487,0,0,0-.42.42,64.648,64.648,0,0,0,2.54,9.14C53.9,17.56,54.22,17.4,54.34,16.68ZM68.6,4.6c-.42.14-1.26.46-2.56.96-1.32.5-1.96.88-1.94,1.12a.587.587,0,0,0,.2.46c.1.08.36,0,.82-.22.42-.2,1.02-.48,1.78-.82.76-.32,1.28-.56,1.58-.7a.63.63,0,0,1,.7,0c.18.14.32.18.4.1a1.269,1.269,0,0,0,.14-.38.72.72,0,0,0-.16-.56C69.4,4.38,69.08,4.38,68.6,4.6Zm2.1,4.62q0-.45-.3-.54a3.271,3.271,0,0,0-1.56.56c-.8.44-1.6.9-2.36,1.4a7.739,7.739,0,0,1-1.46.8.32.32,0,0,0-.28.38.409.409,0,0,0,.38.38c.22.04.62-.14,1.24-.54.62-.42,1.38-.86,2.3-1.38a7.947,7.947,0,0,1,1.6-.78A.582.582,0,0,0,70.7,9.22Zm-3.32,6.62c-.26.22-.32.42-.26.58a.411.411,0,0,0,.36.28,12.077,12.077,0,0,0,2.74-1.9,25.133,25.133,0,0,0,3.48-3.12c.64-.78,1.12-1.22,1.46-1.3.32-.08.52-.34.62-.8.1-.44.02-.64-.22-.58a9.793,9.793,0,0,0-2.08,1.88A54.452,54.452,0,0,1,67.38,15.84Zm29.1-.32c-1.04.56-2.28,1.22-3.7,1.96-.02-1.1-.02-2.24,0-3.4,1-.48,1.76-.82,2.2-1.08s.68-.42.68-.56a.7.7,0,0,0-.06-.32c-.04-.08-.28-.04-.78.1a9.987,9.987,0,0,0-2,.96,4.021,4.021,0,0,0-.28-1.68,10.917,10.917,0,0,1,1.88-1.26,2.2,2.2,0,0,1,.98.32,3.183,3.183,0,0,1,.4.48c.12.2.24.14.34-.14a.875.875,0,0,0-.06-.78,2.534,2.534,0,0,0-.9-.64,2.251,2.251,0,0,0-1.04-.3c-.24.02-.38.08-.4.22a.715.715,0,0,0,.16.54c-1.62.92-3.3,1.78-5.08,2.62a5.138,5.138,0,0,1,.52-2.78c.38-.72.64-1.22.74-1.46a.418.418,0,0,0-.24-.58,24.374,24.374,0,0,1,3.82-1.3c.58-.1,1.04-.18,1.38-.26a1.024,1.024,0,0,0,.66-.36.42.42,0,0,0,0-.48c-.1-.14-.38-.16-.86-.06-.46.1-1.6.48-3.4,1.08a35.28,35.28,0,0,0-6.6,3.26,17.911,17.911,0,0,1,.32-2.06c.22.22.5.18.88-.1A15.379,15.379,0,0,1,88.48,6.1c1.24-.6,2.68-1.22,4.26-1.86a1.6,1.6,0,0,1-.1.46q-.09.27.06.36c.1.04.22.02.36-.12a2.368,2.368,0,0,0,.42-.7,4.331,4.331,0,0,0,.42-2.4A1.048,1.048,0,0,0,93.26,1a1.505,1.505,0,0,0-.92-.08,27.374,27.374,0,0,0-5.86,1.86.952.952,0,0,0-.56-.3c-.26-.06-.44.16-.56.7q-1.26.54-1.56.72a.522.522,0,0,0-.28.42c0,.18.1.26.28.24a6.36,6.36,0,0,0,1.12-.3q-1.14,6.93-1.64,10.5c-.34,2.38-.5,3.62-.5,3.68q0,.12.24.12a.813.813,0,0,0,.42-.1,5.974,5.974,0,0,0,.36-2.06c.14-1.32.44-3.22.88-5.72a4.723,4.723,0,0,0,1.3-.74l3.44-2a22.329,22.329,0,0,0-1.08,2,6,6,0,0,0-.56,1.8A1.674,1.674,0,0,0,87.96,13c.22.26.36.38.44.38a5.9,5.9,0,0,0,.94-.26,14.351,14.351,0,0,0,2.46-1.2,6.449,6.449,0,0,1,.12,1.64c-1.54.72-2.6,1.26-3.18,1.54-.6.3-.74.58-.44.8a.817.817,0,0,0,.98-.06,15.87,15.87,0,0,1,2.6-1.34,16.344,16.344,0,0,1-.08,3.52c-.76.38-1.48.76-2.2,1.2-.7.42-.98.7-.88.84a.293.293,0,0,0,.3.14c.1-.02.7-.3,1.78-.84,1.08-.52,2.18-1.12,3.34-1.78,1.16-.64,1.84-1,2.1-1.1a3.267,3.267,0,0,0,.68-.38.424.424,0,0,0,.16-.54C96.98,15.34,96.78,15.34,96.48,15.52ZM86.02,3.72a18.42,18.42,0,0,1,7.02-1.98,2.916,2.916,0,0,1-.18,1.44c-2.3,1.1-4.06,1.98-5.24,2.6q-1.8.9-2.34,1.14A17.131,17.131,0,0,1,86.02,3.72Zm39.7.08a2.472,2.472,0,0,0-2.52.28c-.58.5-1.22,1.94-1.94,4.34a10.2,10.2,0,0,0,0,6.64c.74,2.04,1.76,2.9,3.12,2.56a8.026,8.026,0,0,0,5.32-6.3A7.883,7.883,0,0,0,125.72,3.8Zm-1.14,12.94c-.96.38-1.7,0-2.28-1.1a10.948,10.948,0,0,1,.44-8.9.825.825,0,0,0,.52-.74,1.6,1.6,0,0,1,.3-.88,1.262,1.262,0,0,1,1.54-.54,6.948,6.948,0,0,1,3.84,6.74A7.09,7.09,0,0,1,124.58,16.74Zm16.28-5.78a.983.983,0,0,0,.16-.88,1.091,1.091,0,0,0-.68-.68,1.759,1.759,0,0,0-1.1.48.734.734,0,0,0-.24.8,1.668,1.668,0,0,0,.44.66.562.562,0,0,0,.7.08A3.7,3.7,0,0,0,140.86,10.96Zm11.76-7.5c.02-.46-.08-.72-.32-.76-.22-.04-.38,0-.46.14a23,23,0,0,0-.32,3.8,58,58,0,0,0,.04,7.22c.14,2.44.24,3.7.28,3.76.02.08.16.1.4.06a.677.677,0,0,0,.48-.22,5.919,5.919,0,0,0-.12-1.92,10.262,10.262,0,0,1,1.12-4.94,20.519,20.519,0,0,0,2.86,4.08,17.631,17.631,0,0,0,1.58,1.66c.08.04.18-.02.28-.16a.6.6,0,0,0,.12-.44,1.3,1.3,0,0,0-.44-.62,21.771,21.771,0,0,1-1.9-2.26,11.479,11.479,0,0,1-2.04-3.4,20.873,20.873,0,0,1,2.42-4.24c.84-1.06,1.38-1.78,1.68-2.14.28-.36.4-.56.38-.62a1.271,1.271,0,0,0-.32-.26c-.18-.1-.8.48-1.84,1.76a38.237,38.237,0,0,0-4.06,7.1,55.693,55.693,0,0,1,.06-5.78A11.426,11.426,0,0,0,152.62,3.46Zm18.24,7.5a.983.983,0,0,0,.16-.88,1.091,1.091,0,0,0-.68-.68,1.759,1.759,0,0,0-1.1.48.734.734,0,0,0-.24.8,1.668,1.668,0,0,0,.44.66.562.562,0,0,0,.7.08A3.7,3.7,0,0,0,170.86,10.96ZM181.46,15a3.778,3.778,0,0,0,.24,2.24c.26.48.46.58.6.26a1.829,1.829,0,0,0,.04-1.14,5.719,5.719,0,0,1,.24-2.26,46.583,46.583,0,0,1,4.56-2.36c.26,1.82.44,3.22.54,4.18.08.94.24,1.42.48,1.38a.579.579,0,0,0,.48-.54,27.7,27.7,0,0,0-.6-4.4,91.065,91.065,0,0,0-2.06-9.06,1.5,1.5,0,0,0-.66-.7c-.3-.12-.5-.02-.62.32A52.211,52.211,0,0,0,181.46,15ZM185.3,3.98a54.426,54.426,0,0,1,1.62,6.96c-1.28.6-2.66,1.3-4.14,2.12A34.563,34.563,0,0,1,185.3,3.98Zm15.56,6.98a.983.983,0,0,0,.16-.88,1.091,1.091,0,0,0-.68-.68,1.759,1.759,0,0,0-1.1.48.734.734,0,0,0-.24.8,1.668,1.668,0,0,0,.44.66.562.562,0,0,0,.7.08A3.7,3.7,0,0,0,200.86,10.96Zm11.76-7.5c.02-.46-.08-.72-.32-.76-.22-.04-.38,0-.46.14a23,23,0,0,0-.32,3.8,58,58,0,0,0,.04,7.22c.14,2.44.24,3.7.28,3.76.02.08.16.1.4.06a.677.677,0,0,0,.48-.22,5.919,5.919,0,0,0-.12-1.92,10.262,10.262,0,0,1,1.12-4.94,20.519,20.519,0,0,0,2.86,4.08,17.631,17.631,0,0,0,1.58,1.66c.08.04.18-.02.28-.16a.6.6,0,0,0,.12-.44,1.3,1.3,0,0,0-.44-.62,21.771,21.771,0,0,1-1.9-2.26,11.479,11.479,0,0,1-2.04-3.4,20.873,20.873,0,0,1,2.42-4.24c.84-1.06,1.38-1.78,1.68-2.14.28-.36.4-.56.38-.62a1.271,1.271,0,0,0-.32-.26c-.18-.1-.8.48-1.84,1.76a38.237,38.237,0,0,0-4.06,7.1,55.693,55.693,0,0,1,.06-5.78A11.426,11.426,0,0,0,212.62,3.46Zm18.24,7.5a.983.983,0,0,0,.16-.88,1.091,1.091,0,0,0-.68-.68,1.759,1.759,0,0,0-1.1.48.734.734,0,0,0-.24.8,1.668,1.668,0,0,0,.44.66.562.562,0,0,0,.7.08A3.7,3.7,0,0,0,230.86,10.96Zm14.12-6.18c.02,1.48.04,3.64.06,6.42.02,2.8.3,4.32.8,4.58a16.053,16.053,0,0,0-2.08,1.04c-.36.26-.58.42-.6.52s.04.2.22.3c.16.14.64,0,1.46-.4s1.54-.72,2.18-1.02c.6-.3.94-.54,1.04-.76a.566.566,0,0,0-.02-.54c-.1-.14-.28-.12-.58.08a9.857,9.857,0,0,1-1.12.54,55.94,55.94,0,0,1-.38-11.24c.36-.18.62-.24.76-.16a.334.334,0,0,0,.3.08c.06-.02.14-.16.3-.38.14-.22.16-.4.02-.56s-.44-.16-.92.02c-.48.16-1.06.38-1.78.62-.72.26-1.36.48-1.94.72-.6.24-.68.44-.28.62a1.2,1.2,0,0,0,1.16-.04A4.619,4.619,0,0,1,244.98,4.78ZM14.62,25.84q-1.59.48-2.34.78c-.48.22-.72.4-.66.58s.3.28.7.36a24.915,24.915,0,0,0,.22,7.8c0,.22.1.34.28.32a.552.552,0,0,0,.44-.28,6.392,6.392,0,0,0-.2-2.48,17.544,17.544,0,0,1,.28-5.8,20.231,20.231,0,0,1,2.96-.86c1.04-.22,1.46-.5,1.28-.84C17.4,25.06,16.4,25.2,14.62,25.84Zm17.64,4.78c.1-.54.02-.78-.26-.76q-.45.03-.54,1.5a28.448,28.448,0,0,0-.04,2.92,13.174,13.174,0,0,0,.26,2.36,16.605,16.605,0,0,0-2.96,2.1,1.453,1.453,0,0,1-.02-.66.6.6,0,0,0-.16-.56.577.577,0,0,0-.46-.14c-.16.04-.24.5-.26,1.38a11.3,11.3,0,0,0,1.08,4.1c-.28.16-.38.32-.32.48s.14.24.22.26a6.712,6.712,0,0,0,1.36-.34c.8-.26,2.52-.82,5.12-1.66.14.5.52.34,1.2-.46a.866.866,0,0,0,.56-.34c.12-.16.04-.3-.24-.44a8.318,8.318,0,0,0,.28-4.22,1.413,1.413,0,0,0-.78-.84,1.826,1.826,0,0,0-1.02-.12,15.359,15.359,0,0,0-2.94,1.12c-.08-.6-.14-1.1-.18-1.44a12.87,12.87,0,0,1-.02-1.6,12.024,12.024,0,0,0,1.74-.68,18.36,18.36,0,0,1,2.08-.76c.44-.12.6-.28.44-.52a.527.527,0,0,0-.62-.26c-.26.08-.48.16-.68.22s-.5.18-.88.34c-.4.18-.8.36-1.22.54-.4.18-.68.28-.82.34v-.84A9.128,9.128,0,0,1,32.26,30.62Zm-6.28-.24c2.78-1.08,5.08-1.88,6.86-2.42a10.246,10.246,0,0,1,2.86-.68c.14.08.36-.06.68-.42.34-.34.36-.56.08-.62a3.489,3.489,0,0,0-1.44.16c-.68.18-1.74.52-3.14,1.02a17.57,17.57,0,0,1-1.28-1.44,10.168,10.168,0,0,0-.88-1.02.839.839,0,0,0-.32-.08.387.387,0,0,0-.32.2.5.5,0,0,0-.1.38,2.868,2.868,0,0,0,.48.72,8.688,8.688,0,0,0,1.56,1.52c-2.36.76-4.16,1.38-5.4,1.84-1.22.44-1.86.76-1.92.94s-.06.3.04.36a.478.478,0,0,0,.28.1,8.689,8.689,0,0,0,1.14-.24,35.5,35.5,0,0,1-1.48,9.7c-.78,2.14-1.1,3.3-.96,3.5q.21.27.36.18a1.275,1.275,0,0,0,.28-.16A9.312,9.312,0,0,0,24,42.36a44.448,44.448,0,0,0,1.24-4.38,24.275,24.275,0,0,0,.62-4.52A13.335,13.335,0,0,0,25.98,30.38ZM35.7,40.76c-1.9.66-3.84,1.24-5.86,1.8a9.446,9.446,0,0,1-.9-2.84,13.882,13.882,0,0,1,4.54-3.16,5.358,5.358,0,0,1,2.42-.58c.3.1.46.6.52,1.46A7.488,7.488,0,0,1,35.7,40.76Zm11.82-6.28-2.06.74.12-2.26a1.449,1.449,0,0,1,.98-.42c.5-.06.76-.24.82-.58s-.18-.4-.74-.24a5.312,5.312,0,0,0-1.02.38,4.471,4.471,0,0,1,.08-1.12,3.5,3.5,0,0,0,.06-.82.294.294,0,0,0-.32-.22.553.553,0,0,0-.36.1,1.481,1.481,0,0,0-.14.68c-.02.36-.06.94-.1,1.72-.96.46-1.68.8-2.14,1.04-.48.26-.74.4-.8.42a.625.625,0,0,0-.22.18,1.206,1.206,0,0,0-.12.6c-.02.32.28.28.88-.16a10.251,10.251,0,0,1,2.4-1.22l-.18,2.24c-.78.32-1.4.56-1.86.7-.48.14-.72.32-.72.48a.514.514,0,0,0,.08.42q.15.12,1.38-.36c.82-.3,1.66-.62,2.5-.96a16.09,16.09,0,0,1,1.62-.56,3.347,3.347,0,0,0,.78-.28.527.527,0,0,0,.38-.52c0-.24-.14-.34-.44-.28A2.918,2.918,0,0,0,47.52,34.48Zm-3.86,8.5,1.24-.52,1.98-1.12c.5.28.74.12.72-.52a3.765,3.765,0,0,1,.18-1.46,2.746,2.746,0,0,0,.06-1.38c-.1-.58-.4-.86-.88-.8a3.551,3.551,0,0,0-1.32.44,11.415,11.415,0,0,1-1.2.62,7.311,7.311,0,0,0-1.12.56q-.27-1.35-.6-.06a7.091,7.091,0,0,0-.34,1.94c.02.42.04,1,.1,1.78C42.52,43.24,42.92,43.38,43.66,42.98Zm-.38-3.18a17.339,17.339,0,0,1,3.16-1.72c.44-.1.66.08.68.54a6.43,6.43,0,0,1-.34,2l-3.52,1.6A5.214,5.214,0,0,1,43.28,39.8Zm-1.9-6.06c.44-.32.6-.54.48-.7q-.18-.21.24-1.8a19.275,19.275,0,0,1,2.18-4.4,13.989,13.989,0,0,1,3.32,1.5c.68.52,1.02.82.98.92-.04.12.04.22.2.28a1.156,1.156,0,0,0,.88-.18c.42-.18.12-.58-.88-1.18a42.226,42.226,0,0,0-3.94-2.14c-.36-.32-.62-.42-.72-.32a12.741,12.741,0,0,0-1.1,1.7A28.938,28.938,0,0,0,41.3,31.1c-.52,1.38-.72,2.2-.54,2.44A.477.477,0,0,0,41.38,33.74Zm17.72-4.9c-.22-.9-.34-1.66-.44-2.26-.1-.62-.18-.96-.2-1.04-.04-.06-.18-.06-.44.04-.24.1-.34.18-.3.3a9.411,9.411,0,0,1,.18,1.04,5.939,5.939,0,0,0,.4,1.74c.2.58.34.88.4.88a3.13,3.13,0,0,0,.4-.06c.22-.04.34-.08.36-.14a.27.27,0,0,0,0-.18C59.44,29.08,59.32,28.98,59.1,28.84Zm-4.8,2.44a19.2,19.2,0,0,1-.22-2.76,2.275,2.275,0,0,1,1.42-.5c.08.2.2.26.34.22.14,0,.28-.18.42-.48s0-.44-.46-.5a3.473,3.473,0,0,0-1.74.46,2.3,2.3,0,0,1,.08-1.02c.1-.36.1-.6-.04-.7a.485.485,0,0,0-.52,0c-.22.1-.32.38-.32.82,0,.46,0,.88.02,1.3a23.2,23.2,0,0,1-2.62,1.08,6.367,6.367,0,0,0-1.02.4c-.04.04-.02.14.06.32.06.16.4.14.96-.08.58-.22,1.44-.56,2.6-1,.06.88.16,1.78.26,2.7a16.464,16.464,0,0,0-2.82,1.88.4.4,0,0,1,0-.42c.06-.14.02-.24-.16-.3-.16-.06-.28-.06-.34,0a7.706,7.706,0,0,0-.44,1.78,19.806,19.806,0,0,0,.04,5,6.429,6.429,0,0,0,.44,2.28c.22.52.38.76.46.76a.654.654,0,0,0,.32-.18,1.03,1.03,0,0,0,.28-.42.247.247,0,0,0-.12-.34c-.18-.1-.3-.48-.4-1.12a22.822,22.822,0,0,1,3.32-2.12c.14,1.08.22,1.9.28,2.44.06.56.2.8.48.8.28-.02.4-.38.34-1.02s-.14-1.5-.24-2.56a6.244,6.244,0,0,1,2.92-1.6,11.979,11.979,0,0,1,0,3.78,3.027,3.027,0,0,0-.04,1.52c.08.36.16.54.2.54a3.257,3.257,0,0,0,.38-.16c.22-.12.36-1.12.42-2.98a11.071,11.071,0,0,0-.62-4.52,10.8,10.8,0,0,0-1.38-2.6A3.142,3.142,0,0,0,54.3,31.28Zm-3.72,3.38a10.637,10.637,0,0,1,2.98-2.4c.1.78.16,1.54.18,2.26a23.5,23.5,0,0,1-3.26,1.88ZM54,37.52c-.98.56-2.06,1.24-3.3,2.06a6.687,6.687,0,0,1-.12-2.34c1.1-.64,2.18-1.28,3.24-1.96C53.9,35.96,53.96,36.7,54,37.52Zm3.78-1.94a18.419,18.419,0,0,0-2.92,1.6c-.08-.84-.16-1.6-.22-2.26a4.734,4.734,0,0,1,1.4-.86,1.54,1.54,0,0,0,.3.12.334.334,0,0,0,.36-.14,2.541,2.541,0,0,1,.28-.34c.1-.08.12-.14.1-.2A6.538,6.538,0,0,1,57.78,35.58Zm-3.24-1.5a12.722,12.722,0,0,1-.14-2.2,2.473,2.473,0,0,1,2.56,1.34,1.244,1.244,0,0,0-1.22.04C55.4,33.5,54.98,33.78,54.54,34.08Zm15.94,4.9a9.407,9.407,0,0,0,3.2,2c.84.26,1.36.28,1.54.1s.2-.34.12-.44a5.591,5.591,0,0,0-1.42-.5A9.123,9.123,0,0,1,70.7,38.1a53.905,53.905,0,0,1,2.38-5.3c.62-1.08,1.02-1.88,1.24-2.36a2.692,2.692,0,0,0,.26-1.36,1.712,1.712,0,0,0-.34-.98,1.531,1.531,0,0,0-1.04-.42,21.455,21.455,0,0,0-6.14,2.12A19.71,19.71,0,0,1,65,31.02a.677.677,0,0,0-.38.5.8.8,0,0,0,0,.54.312.312,0,0,0,.26.16,16.144,16.144,0,0,0,2.04-1.34A12.162,12.162,0,0,1,71.16,29c1.58-.38,2.44-.5,2.6-.34.14.16-.16,1-.92,2.54s-1.5,3.06-2.14,4.56c-.66,1.52-.94,2.36-.8,2.56A2.452,2.452,0,0,0,70.48,38.98Zm8.24-6.3a6.648,6.648,0,0,1-.32-3.26c.1-.26.02-.4-.28-.46-.28-.06-.5.2-.6.8a6.019,6.019,0,0,0,.12,2.18c.18.88.44,1.3.8,1.3.32.02.5-.06.5-.26s-.04-.3-.12-.3ZM76.1,30.84c.14-.4.04-.64-.26-.66s-.46.02-.5.12a3.544,3.544,0,0,0-.04.94,3.446,3.446,0,0,0,.38,1.56c.26.52.46.82.6.86a.677.677,0,0,0,.48-.06c.16-.06.2-.2.12-.38q-.15-.3-.3-.66a7.76,7.76,0,0,1-.4-.88A.988.988,0,0,1,76.1,30.84ZM86.22,29.3a9.238,9.238,0,0,0,1.8,4.9.468.468,0,0,0-.3.44c0,.2.08.3.22.32a1,1,0,0,0,.42-.02c.34-.16.64-.32.98-.48.02.34.04.74.08,1.24-3.14,1.06-5.18,1.76-6.18,2.1-1,.36-1.32.68-1.02.98.32.3.86.24,1.62-.2a37.091,37.091,0,0,1,5.64-2v1a37.6,37.6,0,0,0-3.54,3.74c-.84,1.08-1.2,1.66-1.04,1.76.14.1.28.14.38.08a15.008,15.008,0,0,0,1.28-1.4c.76-.86,1.74-1.86,2.92-3.04v.14c-.46.3-.44.56.08.76v2.5c-.08.2-.18.38-.28.6s-.04.4.22.56a.459.459,0,0,0,.62,0,1.473,1.473,0,0,0,.28-.96c.02-.52.02-1.28.02-2.34.88.28,2.06.74,3.52,1.34a17.241,17.241,0,0,1,2.4,1.1c.16.14.4.1.74-.1.32-.22.4-.4.24-.5-.18-.1-1-.42-2.48-1.04-1.5-.6-2.96-1.18-4.42-1.76a5.061,5.061,0,0,1-.02-.96c.36-.38.54-.62.5-.72-.06-.1-.22-.18-.5-.24a3.319,3.319,0,0,1,.02-.8,23.123,23.123,0,0,1,4.12-1.1,21.669,21.669,0,0,0,3.08-.72.4.4,0,0,0,.22-.46c-.04-.2-1.02-.12-2.96.22a31.017,31.017,0,0,0-4.52,1.14,10.11,10.11,0,0,0-.12-1.4c.5-.26,1-.5,1.48-.74a.745.745,0,0,0,.36.38c.12.06.4-.44.82-1.48a6.858,6.858,0,0,0,.54-2.76,11.158,11.158,0,0,0-.12-1.42,1.39,1.39,0,0,0-.36-.54.941.941,0,0,0-.7-.34,6.385,6.385,0,0,0-5.34,2.08,2.448,2.448,0,0,0-.28-.78,4.154,4.154,0,0,1,.88-1.52,1.991,1.991,0,0,0,.56-.66.229.229,0,0,0-.14-.32.861.861,0,0,0-.44-.08c-.16.02-.3.16-.4.42l-.62.72a6.411,6.411,0,0,0-.66,1.3c-.24.56-.24.84-.02.88A.686.686,0,0,1,86.22,29.3Zm.88.76a6.742,6.742,0,0,1,2.16-1.76,4.052,4.052,0,0,1,2.38-.34c.58.16.92.3,1,.46a8.223,8.223,0,0,1-.66,3.82c-.66.34-1.32.68-1.96.98-.66.3-1.14.52-1.38.64a3.185,3.185,0,0,1-.74-1.4,10.765,10.765,0,0,1,2.96-1.8,8.781,8.781,0,0,1,1.26-.34.3.3,0,0,0,.28-.18.685.685,0,0,0,.08-.36.424.424,0,0,0-.2-.36.677.677,0,0,0-.58-.08,2.19,2.19,0,0,0-.66.28,21.119,21.119,0,0,0-3.44,2.1A5.842,5.842,0,0,1,87.1,30.06ZM81,29.58c-.06.28.08.48.4.62a6.493,6.493,0,0,0,.96.36c.3.08.54.14.74.18.22.04.52.08.88.12a5.9,5.9,0,0,0,1.02.02c.3-.02.46-.14.52-.32.04-.2,0-.32-.12-.34-.14-.02-.48-.08-.96-.18-.5-.1-.84-.14-1.02-.18a7.782,7.782,0,0,1-1.08-.28A1.916,1.916,0,0,0,81,29.58Zm.3,5.28q.27.57,1.74-.48c1-.68,1.48-1.18,1.46-1.52-.04-.32-.18-.4-.44-.26-.26.16-.78.52-1.54,1.06C81.76,34.22,81.34,34.62,81.3,34.86Zm16.08-8.8c-.28-.36-.84-.06-1.72.94s-1.14,1.6-.86,1.84c.3.24.52.22.64-.08a3.873,3.873,0,0,1,.8-1.02,7.615,7.615,0,0,1,1.04-.88C97.6,26.64,97.64,26.4,97.38,26.06Zm-3.12,5.26c-.06.26.1.46.46.58.38.12.72.22,1.04.3a8.262,8.262,0,0,0,1.76.2c.84.04,1.32-.02,1.42-.24s-.26-.38-1.14-.5a14.935,14.935,0,0,1-2.18-.36,3.756,3.756,0,0,0-1.08-.16C94.38,31.18,94.28,31.24,94.26,31.32Zm12.18,7.28a12.333,12.333,0,0,1-.54-10.14c.12-.4.02-.64-.28-.68a.5.5,0,0,0-.56.42,12.315,12.315,0,0,0,1.3,11.98,2.606,2.606,0,0,0,2.68.7,14.11,14.11,0,0,0,8.22-4.62c.1-.3.04-.52-.2-.64a.531.531,0,0,0-.68.16,12.407,12.407,0,0,1-5.98,3.96C108.28,40.28,106.98,39.92,106.44,38.6Zm22.54,2.94a5.433,5.433,0,0,0,2.38-.8,11.9,11.9,0,0,0,2.16-1.54c.68-.58,1.02-1.08,1.02-1.52,0-.42-.24-.42-.7.02a21.662,21.662,0,0,1-2.52,1.96c-1.22.86-2.14,1.12-2.76.8a11.138,11.138,0,0,1,.1-5.06,16.939,16.939,0,0,0,.42-5.02,13.621,13.621,0,0,1,2.44-1.26,3.736,3.736,0,0,0,.98-.4c.06-.08.02-.24-.14-.46-.16-.2-.48-.18-1.02.04-.52.26-1.3.64-2.3,1.16a3.051,3.051,0,0,0-.44-1.64c-.24-.26-.46-.3-.64-.12s-.18.48,0,.9a2.512,2.512,0,0,1,.18,1.3c-1.3.48-2.42.88-3.38,1.18a10.251,10.251,0,0,0-1.8.7.4.4,0,0,0-.16.6c.12.22,1.94-.32,5.44-1.64a19.286,19.286,0,0,1-.62,4.98,2.373,2.373,0,0,0-1.22-.56,3.546,3.546,0,0,0-2.3,1.98,4.883,4.883,0,0,0-.84,2.24c.04.4.12.62.24.7a1.257,1.257,0,0,0,.64.2,2.991,2.991,0,0,0,1.08-.08,6.868,6.868,0,0,0,2.12-1.44,3.6,3.6,0,0,0,.18,1.78A1.312,1.312,0,0,0,128.98,41.54Zm-4.66-2.2a3.342,3.342,0,0,1,.54-1.7,8.948,8.948,0,0,1,1.04-1.26c.34-.34.62-.42.86-.26a2.073,2.073,0,0,1,.58.6A3.58,3.58,0,0,1,124.32,39.34Zm9.52-7.56a.31.31,0,0,0-.42-.04c-.14.1-.14.42,0,.94a5.872,5.872,0,0,0,1.3,2.06,18.713,18.713,0,0,1,1.54,1.96,3.278,3.278,0,0,0,.64.86c.12.08.22-.04.34-.36.1-.32-.16-.88-.8-1.68A44.19,44.19,0,0,1,133.84,31.78Zm11.88-3.98a2.472,2.472,0,0,0-2.52.28c-.58.5-1.22,1.94-1.94,4.34a10.2,10.2,0,0,0,0,6.64c.74,2.04,1.76,2.9,3.12,2.56a8.026,8.026,0,0,0,5.32-6.3A7.883,7.883,0,0,0,145.72,27.8Zm-1.14,12.94c-.96.38-1.7,0-2.28-1.1a10.948,10.948,0,0,1,.44-8.9.825.825,0,0,0,.52-.74,1.6,1.6,0,0,1,.3-.88,1.262,1.262,0,0,1,1.54-.54,6.948,6.948,0,0,1,3.84,6.74A7.09,7.09,0,0,1,144.58,40.74Zm16.28-5.78a.983.983,0,0,0,.16-.88,1.091,1.091,0,0,0-.68-.68,1.759,1.759,0,0,0-1.1.48.734.734,0,0,0-.24.8,1.668,1.668,0,0,0,.44.66.562.562,0,0,0,.7.08A3.7,3.7,0,0,0,160.86,34.96Zm11.76-7.5c.02-.46-.08-.72-.32-.76-.22-.04-.38,0-.46.14a23,23,0,0,0-.32,3.8,58,58,0,0,0,.04,7.22c.14,2.44.24,3.7.28,3.76.02.08.16.1.4.06a.677.677,0,0,0,.48-.22,5.919,5.919,0,0,0-.12-1.92,10.262,10.262,0,0,1,1.12-4.94,20.519,20.519,0,0,0,2.86,4.08,17.632,17.632,0,0,0,1.58,1.66c.08.04.18-.02.28-.16a.6.6,0,0,0,.12-.44,1.3,1.3,0,0,0-.44-.62,21.77,21.77,0,0,1-1.9-2.26,11.479,11.479,0,0,1-2.04-3.4,20.873,20.873,0,0,1,2.42-4.24c.84-1.06,1.38-1.78,1.68-2.14.28-.36.4-.56.38-.62a1.271,1.271,0,0,0-.32-.26c-.18-.1-.8.48-1.84,1.76a38.237,38.237,0,0,0-4.06,7.1,55.693,55.693,0,0,1,.06-5.78A11.426,11.426,0,0,0,172.62,27.46Zm18.24,7.5a.983.983,0,0,0,.16-.88,1.091,1.091,0,0,0-.68-.68,1.759,1.759,0,0,0-1.1.48.734.734,0,0,0-.24.8,1.668,1.668,0,0,0,.44.66.562.562,0,0,0,.7.08A3.7,3.7,0,0,0,190.86,34.96ZM201.46,39a3.778,3.778,0,0,0,.24,2.24c.26.48.46.58.6.26a1.829,1.829,0,0,0,.04-1.14,5.719,5.719,0,0,1,.24-2.26,46.584,46.584,0,0,1,4.56-2.36c.26,1.82.44,3.22.54,4.18.08.94.24,1.42.48,1.38a.579.579,0,0,0,.48-.54,27.7,27.7,0,0,0-.6-4.4,91.065,91.065,0,0,0-2.06-9.06,1.5,1.5,0,0,0-.66-.7c-.3-.12-.5-.02-.62.32A52.211,52.211,0,0,0,201.46,39Zm3.84-11.02a54.426,54.426,0,0,1,1.62,6.96c-1.28.6-2.66,1.3-4.14,2.12A34.563,34.563,0,0,1,205.3,27.98Zm15.56,6.98a.983.983,0,0,0,.16-.88,1.091,1.091,0,0,0-.68-.68,1.759,1.759,0,0,0-1.1.48.734.734,0,0,0-.24.8,1.668,1.668,0,0,0,.44.66.562.562,0,0,0,.7.08A3.7,3.7,0,0,0,220.86,34.96Zm11.76-7.5c.02-.46-.08-.72-.32-.76-.22-.04-.38,0-.46.14a23,23,0,0,0-.32,3.8,58,58,0,0,0,.04,7.22c.14,2.44.24,3.7.28,3.76.02.08.16.1.4.06a.677.677,0,0,0,.48-.22,5.919,5.919,0,0,0-.12-1.92,10.262,10.262,0,0,1,1.12-4.94,20.519,20.519,0,0,0,2.86,4.08,17.632,17.632,0,0,0,1.58,1.66c.08.04.18-.02.28-.16a.6.6,0,0,0,.12-.44,1.3,1.3,0,0,0-.44-.62,21.77,21.77,0,0,1-1.9-2.26,11.479,11.479,0,0,1-2.04-3.4,20.873,20.873,0,0,1,2.42-4.24c.84-1.06,1.38-1.78,1.68-2.14.28-.36.4-.56.38-.62a1.271,1.271,0,0,0-.32-.26c-.18-.1-.8.48-1.84,1.76a38.237,38.237,0,0,0-4.06,7.1,55.693,55.693,0,0,1,.06-5.78A11.426,11.426,0,0,0,232.62,27.46Zm18.24,7.5a.983.983,0,0,0,.16-.88,1.091,1.091,0,0,0-.68-.68,1.759,1.759,0,0,0-1.1.48.734.734,0,0,0-.24.8,1.668,1.668,0,0,0,.44.66.562.562,0,0,0,.7.08A3.7,3.7,0,0,0,250.86,34.96Zm14.12-6.18c.02,1.48.04,3.64.06,6.42.02,2.8.3,4.32.8,4.58a16.053,16.053,0,0,0-2.08,1.04c-.36.26-.58.42-.6.52s.04.2.22.3c.16.14.64,0,1.46-.4s1.54-.72,2.18-1.02c.6-.3.94-.54,1.04-.76a.566.566,0,0,0-.02-.54c-.1-.14-.28-.12-.58.08a9.854,9.854,0,0,1-1.12.54,55.942,55.942,0,0,1-.38-11.24c.36-.18.62-.24.76-.16a.334.334,0,0,0,.3.08c.06-.02.14-.16.3-.38.14-.22.16-.4.02-.56s-.44-.16-.92.02c-.48.16-1.06.38-1.78.62-.72.26-1.36.48-1.94.72-.6.24-.68.44-.28.62a1.2,1.2,0,0,0,1.16-.04A4.619,4.619,0,0,1,264.98,28.78Zm13.08,7.84a.7.7,0,0,0-.44-.72c-.34-.16-.5.02-.5.52a21.159,21.159,0,0,0,.22,4.98c-1.66.6-3.28,1.12-4.88,1.58-.26.08-.34.24-.22.48.1.26.34.32.68.22l4.44-1.56c.4.48.66.64.82.44.14-.18.12-.78-.1-1.78A14.031,14.031,0,0,1,278.06,36.62Zm28.22,7.44.06.04h.46l.2-.18v-.34l.16-.18v-.66l.18-.18v-.5l.16-.16v-.36l.18-.16v-.5l.18-.14v-.32l.14-.18V39.4l.36-.32V36.9l-.36-.32v-.52l-.52-.52h-.2l-.16-.18h-.6l-.16.18H305l-.16.18h-.7l-.16.14h-.18l-.16.18h-.68l-.16.18h-.52l-.16.16h-.32l-.16.18h-.7l-.18.16h-.16l-.18.16h-.48l-.34.34h-.32l-.18.18h-.34l-.16.16h-.18l-.34.34h-.16l-.14.18h-.2l-.16.18-.2-.14v-.7l-.18-.2h-.3l-.18.18h-.2v.18l-.14.18v3.28l.14.18v1.02l.36.32v.7l.34.32v.2h.2l.16.14.1-.14h.2l.2-.2v-.3l-.18-.16v-.16l-.16-.18v-.16l-.18-.16v-.7l-.18-.18v-.94l-.14-.18V39.4l.12-.14h.16l.16-.18h.2l.2-.18v-.18l.1-.14h.2l.16-.16h.18l.18-.18h.14l.36-.32h.34l.16-.18h.2l.14.14v2.24l-.14.14h-.16l-.18.18h-.5l-.18.16h-.66l-.18.16h-.16l-.14.14h-.22v.5l.2.18h.62l.18-.16h.16l.14-.18h.54l.34-.32h.2l.14.12v.18l.16.18v1.68l.18.18h.68V40.74l.14-.12h.16l.18-.18h.16l.18-.16h.84l.18-.2.16.16v2.04l-.18.16v.96l.2.2h.52v-.86l.14-.18v-.14l.18-.18V40.42l.18-.18v-.32l.14-.14h.48l.16-.18h.7l.18-.18h.84l.16-.16h.18l.18-.18.16.14v.42l-.18.16v.32l-.14.16v.5l-.18.14v.34l-.18.18v.5l-.16.16v.5l-.18.18v.34l-.14.16v.64Zm-14.48-.18.06.08h.44l.2-.2v-.38l.14-.12h.22v-.34l.14-.18v-.18l.36-.32v-.52l.34-.32v-.36l.32-.3v-.32l.18-.18v-.16l.16-.16v-.2l.18-.16V39.4l.16-.18v-.14l.34-.34v-.38l.18-.14v-.16l.16-.18v-.16l.16-.18v-.16l.16-.16v-.18l.18-.18V36.7l.18-.16v-.16l.16-.18v-.18l.32-.32.18.16v.36h.48l.18-.16h.16l.18-.18h.16l.16-.16h.34l.36-.34h.48l.16-.18h.52l.16-.16h.34l.16-.16h.34l.18-.18h.32l.18-.16h.66l.18-.16h.34l.16-.16h1l.16-.16h.36l.18-.2v-.18l.32-.32h.36l.32-.32h.18l.36-.38v-.34l.16-.16v-.62l-.36-.38h-.16l-.18-.16h-1.98l-.16.16h-1.24l-.14-.14V30.7l-.52-.54h-.18l-.32-.34h-.18l-.34-.34h-.16l-.18-.18h-.16l-.16-.16h-.8l-.2.2v.3l.2.2h.18l.32.32h.2l.16.18h.14l.16.16h.34l.34.34h.18l.34.36-.18.14h-.34l-.18.18h-.5l-.16.14h-.5l-.16.18h-.34l-.18.18h-.5l-.16.16h-.18l-.16.18h-.16l-.18.14h-.66l-.36.36h-.16l-.16.16h-.18l-.2.2v.32h.22l.14.12v.56l-.18.18v.18l-.18.16v.16l-.16.14v.38l-.18.16v.16l-.32.32v.38l-.18.14v.5l-.34.34v.16l-.16.18v.16l-.34.34v.34l-.18.18v.16l-.16.16v.16l-.16.18v.18l-.16.16v.16l-.18.18v.16l-.18.18v.32l-.16.14v.16l-.34.36v.14l-.16.18v.34l-.18.18v.16l-.5.52v.34l-.18.16v.28Zm9.44-3.92-.14-.16V37.38l.3-.32h.68l.16-.16h.16l.16-.18h.4l.14.14v2.42l-.12.14h-.18l-.18.16h-.32l-.16.18h-.7Zm2.86-.72-.14-.14V36.7l.32-.3h.66l.18-.18h.68l.16-.16h.54l.18.16h.16l.48.48v.34l.18.18v1.74l-.2.14-.14-.16v-.16l-.18-.2h-.8l-.18.16h-.34l-.18.18h-.32l-.18.16h-.48l-.16.16Zm-7.4-3.7-.16-.16.36-.38v-.48l.32-.34v-.14l.18-.18v-.52l.14-.12h.16l.16-.18h.18l.18-.18h.34l.18-.16h.48l.16-.18h.2l.16-.16h.16l.16-.16h.84l.18-.18h.84l.16-.16h.32l.16-.18h2.6l.32.34-.84.84h-.18v.2l-.14.14h-.52l-.16.16h-.16l-.18.16h-.34l-.16.18h-.5l-.16.18h-.52l-.18.16h-.32l-.18.16h-.52l-.16.18h-.32l-.16.16h-.34l-.16.16h-.36l-.16.16h-.5l-.18.16h-.32l-.18.18h-.16l-.18.16h-.16l-.14.18Zm-5.06-2.68h.66l.2-.2V32.5l.36-.32v-.32l-.38-.34.2-.2v-.16l.18-.18v-.32l.14-.18v-.34l.18-.18v-.32l.14-.14h.16l.16-.18h.18l.34-.32h.18l.18-.18h.14l.36-.34h.34l.16-.18h.32l.2-.2.18.18v1.86l.14.16v.36l.52.5v.2h.52v-.5l-.18-.14v-.38l-.14-.16V28.32l-.18-.16v-.2l.3-.32h.34l.18-.18h.2l.16.18h.14l.34-.34h.18l.18-.2v-.5h-.84l-.16.18h-.16l-.18.16h-.5l-.34.36h-.34l-.16.14h-.16l-.16.18h-.52l-.18.18h-.16l-.18.16h-.16l-.14.18h-.38l-.16.18-.2-.14v-.22l.18-.18v-.2l.18-.16v-.14l.16-.18v-.16l.18-.18v-.18l.16-.16v-.16l.16-.18V25.6h-.66l-.36.36v.16l-.16.18v.32l-.34.36v.34l-.18.16v.34L293,28v.16l-.16.16v.16l-.18.18v.18l-.16.16v.36l-.18.16v.36l-.18.14v.32l-.14.18v.5l-.18.18v.52l-.18.16Zm12.28-2.6.06.08h.12l.52-.52V29.3l.18-.18V28.8l.18-.18v-.66l.16-.18v-.2l.14-.12h.5l.16-.16h.86l.18-.16h.18v-.36h-2l-.18.16h-.82l-.16.18h-.2l-.16.18h-.9l-.12-.14v-.22l.16-.18v-.18l.16-.16v-.34l.34-.34v-.32l.16-.16-.36-.34h-.12l-.16.16h-.38v.2l-.16.18v.2l-.18.14v.16l-.14.16v.18l-.18.18v.32l-.18.18v.36l-.12.12.12.14v.38h.2l.18.16h.62l.18-.16h.66l.16-.18h.24l.12.14v1.22l-.16.18v.8Z" transform="translate(-4.972 -0.878)" fill="#ff553c"/></svg>