<svg xmlns="http://www.w3.org/2000/svg" width="343.388" height="43.222" viewBox="0 0 343.388 43.222"><path d="M5.88,15.06c.42-.3.64-.58.64-.86a47.546,47.546,0,0,1,4.06-5.54,34.618,34.618,0,0,0,.22,6.28c.24,1.6.46,2.46.66,2.56a.638.638,0,0,0,.6,0c.16-.1.24-.2.2-.28-.04-.06-.2-.9-.52-2.5a27.831,27.831,0,0,1-.18-7.16,17.166,17.166,0,0,1,2.58-2.54c.64-.48.98-.78.98-.88A1.621,1.621,0,0,0,15,3.66c-.1-.22-.8.28-2.1,1.42a30.561,30.561,0,0,0-4.02,4.5C7.54,11.42,6.56,12.7,6,13.46a15.515,15.515,0,0,0-.98,1.38.312.312,0,0,0,.06.4C5.2,15.38,5.46,15.32,5.88,15.06ZM28.6,4.6c-.42.14-1.26.46-2.56.96-1.32.5-1.96.88-1.94,1.12a.587.587,0,0,0,.2.46c.1.08.36,0,.82-.22.42-.2,1.02-.48,1.78-.82.76-.32,1.28-.56,1.58-.7a.63.63,0,0,1,.7,0c.18.14.32.18.4.1a1.269,1.269,0,0,0,.14-.38.72.72,0,0,0-.16-.56C29.4,4.38,29.08,4.38,28.6,4.6Zm2.1,4.62q0-.45-.3-.54a3.271,3.271,0,0,0-1.56.56c-.8.44-1.6.9-2.36,1.4a7.739,7.739,0,0,1-1.46.8.32.32,0,0,0-.28.38.409.409,0,0,0,.38.38c.22.04.62-.14,1.24-.54.62-.42,1.38-.86,2.3-1.38a7.947,7.947,0,0,1,1.6-.78A.582.582,0,0,0,30.7,9.22Zm-3.32,6.62c-.26.22-.32.42-.26.58a.411.411,0,0,0,.36.28,12.077,12.077,0,0,0,2.74-1.9,25.133,25.133,0,0,0,3.48-3.12c.64-.78,1.12-1.22,1.46-1.3.32-.08.52-.34.62-.8.1-.44.02-.64-.22-.58a9.793,9.793,0,0,0-2.08,1.88A54.452,54.452,0,0,1,27.38,15.84ZM56.64,6.76A6.28,6.28,0,0,1,56.4,3.5c-.1-.26-.24-.4-.48-.38-.26.02-.44.3-.54.88a4.73,4.73,0,0,0,.12,2.14c.22.84.46,1.3.7,1.32.22.04.36,0,.38-.12s.12-.22.3-.3C57.04,6.96,56.96,6.86,56.64,6.76Zm-2.54-2c-.28-.52-.54-.56-.82-.12a4.745,4.745,0,0,0,.7,3.12c.42.26.72.26.92,0-.16-.44-.36-.98-.62-1.56A1.75,1.75,0,0,1,54.1,4.76ZM44.62,7.18a25.614,25.614,0,0,0-1.4,10.18.7.7,0,0,0,.56.52.551.551,0,0,0,.58-.28c.12-.2.06-.48-.2-.82a19.391,19.391,0,0,1,1.26-9.6C45.32,6.74,45.04,6.74,44.62,7.18Zm9.72,9.5a29.955,29.955,0,0,1-2.32-8.1c-.22-.7-.48-1.02-.74-1a.487.487,0,0,0-.42.42,64.648,64.648,0,0,0,2.54,9.14C53.9,17.56,54.22,17.4,54.34,16.68ZM68.6,4.6c-.42.14-1.26.46-2.56.96-1.32.5-1.96.88-1.94,1.12a.587.587,0,0,0,.2.46c.1.08.36,0,.82-.22.42-.2,1.02-.48,1.78-.82.76-.32,1.28-.56,1.58-.7a.63.63,0,0,1,.7,0c.18.14.32.18.4.1a1.269,1.269,0,0,0,.14-.38.72.72,0,0,0-.16-.56C69.4,4.38,69.08,4.38,68.6,4.6Zm2.1,4.62q0-.45-.3-.54a3.271,3.271,0,0,0-1.56.56c-.8.44-1.6.9-2.36,1.4a7.739,7.739,0,0,1-1.46.8.32.32,0,0,0-.28.38.409.409,0,0,0,.38.38c.22.04.62-.14,1.24-.54.62-.42,1.38-.86,2.3-1.38a7.947,7.947,0,0,1,1.6-.78A.582.582,0,0,0,70.7,9.22Zm-3.32,6.62c-.26.22-.32.42-.26.58a.411.411,0,0,0,.36.28,12.077,12.077,0,0,0,2.74-1.9,25.133,25.133,0,0,0,3.48-3.12c.64-.78,1.12-1.22,1.46-1.3.32-.08.52-.34.62-.8.1-.44.02-.64-.22-.58a9.793,9.793,0,0,0-2.08,1.88A54.452,54.452,0,0,1,67.38,15.84Zm29.1-.32c-1.04.56-2.28,1.22-3.7,1.96-.02-1.1-.02-2.24,0-3.4,1-.48,1.76-.82,2.2-1.08s.68-.42.68-.56a.7.7,0,0,0-.06-.32c-.04-.08-.28-.04-.78.1a9.987,9.987,0,0,0-2,.96,4.021,4.021,0,0,0-.28-1.68,10.917,10.917,0,0,1,1.88-1.26,2.2,2.2,0,0,1,.98.32,3.183,3.183,0,0,1,.4.48c.12.2.24.14.34-.14a.875.875,0,0,0-.06-.78,2.534,2.534,0,0,0-.9-.64,2.251,2.251,0,0,0-1.04-.3c-.24.02-.38.08-.4.22a.715.715,0,0,0,.16.54c-1.62.92-3.3,1.78-5.08,2.62a5.138,5.138,0,0,1,.52-2.78c.38-.72.64-1.22.74-1.46a.418.418,0,0,0-.24-.58,24.374,24.374,0,0,1,3.82-1.3c.58-.1,1.04-.18,1.38-.26a1.024,1.024,0,0,0,.66-.36.42.42,0,0,0,0-.48c-.1-.14-.38-.16-.86-.06-.46.1-1.6.48-3.4,1.08a35.28,35.28,0,0,0-6.6,3.26,17.911,17.911,0,0,1,.32-2.06c.22.22.5.18.88-.1A15.379,15.379,0,0,1,88.48,6.1c1.24-.6,2.68-1.22,4.26-1.86a1.6,1.6,0,0,1-.1.46q-.09.27.06.36c.1.04.22.02.36-.12a2.368,2.368,0,0,0,.42-.7,4.331,4.331,0,0,0,.42-2.4A1.048,1.048,0,0,0,93.26,1a1.505,1.505,0,0,0-.92-.08,27.374,27.374,0,0,0-5.86,1.86.952.952,0,0,0-.56-.3c-.26-.06-.44.16-.56.7q-1.26.54-1.56.72a.522.522,0,0,0-.28.42c0,.18.1.26.28.24a6.36,6.36,0,0,0,1.12-.3q-1.14,6.93-1.64,10.5c-.34,2.38-.5,3.62-.5,3.68q0,.12.24.12a.813.813,0,0,0,.42-.1,5.974,5.974,0,0,0,.36-2.06c.14-1.32.44-3.22.88-5.72a4.723,4.723,0,0,0,1.3-.74l3.44-2a22.329,22.329,0,0,0-1.08,2,6,6,0,0,0-.56,1.8A1.674,1.674,0,0,0,87.96,13c.22.26.36.38.44.38a5.9,5.9,0,0,0,.94-.26,14.351,14.351,0,0,0,2.46-1.2,6.449,6.449,0,0,1,.12,1.64c-1.54.72-2.6,1.26-3.18,1.54-.6.3-.74.58-.44.8a.817.817,0,0,0,.98-.06,15.87,15.87,0,0,1,2.6-1.34,16.344,16.344,0,0,1-.08,3.52c-.76.38-1.48.76-2.2,1.2-.7.42-.98.7-.88.84a.293.293,0,0,0,.3.14c.1-.02.7-.3,1.78-.84,1.08-.52,2.18-1.12,3.34-1.78,1.16-.64,1.84-1,2.1-1.1a3.267,3.267,0,0,0,.68-.38.424.424,0,0,0,.16-.54C96.98,15.34,96.78,15.34,96.48,15.52ZM86.02,3.72a18.42,18.42,0,0,1,7.02-1.98,2.916,2.916,0,0,1-.18,1.44c-2.3,1.1-4.06,1.98-5.24,2.6q-1.8.9-2.34,1.14A17.131,17.131,0,0,1,86.02,3.72Zm39.7.08a2.472,2.472,0,0,0-2.52.28c-.58.5-1.22,1.94-1.94,4.34a10.2,10.2,0,0,0,0,6.64c.74,2.04,1.76,2.9,3.12,2.56a8.026,8.026,0,0,0,5.32-6.3A7.883,7.883,0,0,0,125.72,3.8Zm-1.14,12.94c-.96.38-1.7,0-2.28-1.1a10.948,10.948,0,0,1,.44-8.9.825.825,0,0,0,.52-.74,1.6,1.6,0,0,1,.3-.88,1.262,1.262,0,0,1,1.54-.54,6.948,6.948,0,0,1,3.84,6.74A7.09,7.09,0,0,1,124.58,16.74Zm16.28-5.78a.983.983,0,0,0,.16-.88,1.091,1.091,0,0,0-.68-.68,1.759,1.759,0,0,0-1.1.48.734.734,0,0,0-.24.8,1.668,1.668,0,0,0,.44.66.562.562,0,0,0,.7.08A3.7,3.7,0,0,0,140.86,10.96Zm11.76-7.5c.02-.46-.08-.72-.32-.76-.22-.04-.38,0-.46.14a23,23,0,0,0-.32,3.8,58,58,0,0,0,.04,7.22c.14,2.44.24,3.7.28,3.76.02.08.16.1.4.06a.677.677,0,0,0,.48-.22,5.919,5.919,0,0,0-.12-1.92,10.262,10.262,0,0,1,1.12-4.94,20.519,20.519,0,0,0,2.86,4.08,17.631,17.631,0,0,0,1.58,1.66c.08.04.18-.02.28-.16a.6.6,0,0,0,.12-.44,1.3,1.3,0,0,0-.44-.62,21.771,21.771,0,0,1-1.9-2.26,11.479,11.479,0,0,1-2.04-3.4,20.873,20.873,0,0,1,2.42-4.24c.84-1.06,1.38-1.78,1.68-2.14.28-.36.4-.56.38-.62a1.271,1.271,0,0,0-.32-.26c-.18-.1-.8.48-1.84,1.76a38.237,38.237,0,0,0-4.06,7.1,55.693,55.693,0,0,1,.06-5.78A11.426,11.426,0,0,0,152.62,3.46Zm18.24,7.5a.983.983,0,0,0,.16-.88,1.091,1.091,0,0,0-.68-.68,1.759,1.759,0,0,0-1.1.48.734.734,0,0,0-.24.8,1.668,1.668,0,0,0,.44.66.562.562,0,0,0,.7.08A3.7,3.7,0,0,0,170.86,10.96ZM181.46,15a3.778,3.778,0,0,0,.24,2.24c.26.48.46.58.6.26a1.829,1.829,0,0,0,.04-1.14,5.719,5.719,0,0,1,.24-2.26,46.583,46.583,0,0,1,4.56-2.36c.26,1.82.44,3.22.54,4.18.08.94.24,1.42.48,1.38a.579.579,0,0,0,.48-.54,27.7,27.7,0,0,0-.6-4.4,91.065,91.065,0,0,0-2.06-9.06,1.5,1.5,0,0,0-.66-.7c-.3-.12-.5-.02-.62.32A52.211,52.211,0,0,0,181.46,15ZM185.3,3.98a54.426,54.426,0,0,1,1.62,6.96c-1.28.6-2.66,1.3-4.14,2.12A34.563,34.563,0,0,1,185.3,3.98Zm15.56,6.98a.983.983,0,0,0,.16-.88,1.091,1.091,0,0,0-.68-.68,1.759,1.759,0,0,0-1.1.48.734.734,0,0,0-.24.8,1.668,1.668,0,0,0,.44.66.562.562,0,0,0,.7.08A3.7,3.7,0,0,0,200.86,10.96Zm11.76-7.5c.02-.46-.08-.72-.32-.76-.22-.04-.38,0-.46.14a23,23,0,0,0-.32,3.8,58,58,0,0,0,.04,7.22c.14,2.44.24,3.7.28,3.76.02.08.16.1.4.06a.677.677,0,0,0,.48-.22,5.919,5.919,0,0,0-.12-1.92,10.262,10.262,0,0,1,1.12-4.94,20.519,20.519,0,0,0,2.86,4.08,17.631,17.631,0,0,0,1.58,1.66c.08.04.18-.02.28-.16a.6.6,0,0,0,.12-.44,1.3,1.3,0,0,0-.44-.62,21.771,21.771,0,0,1-1.9-2.26,11.479,11.479,0,0,1-2.04-3.4,20.873,20.873,0,0,1,2.42-4.24c.84-1.06,1.38-1.78,1.68-2.14.28-.36.4-.56.38-.62a1.271,1.271,0,0,0-.32-.26c-.18-.1-.8.48-1.84,1.76a38.237,38.237,0,0,0-4.06,7.1,55.693,55.693,0,0,1,.06-5.78A11.426,11.426,0,0,0,212.62,3.46Zm18.24,7.5a.983.983,0,0,0,.16-.88,1.091,1.091,0,0,0-.68-.68,1.759,1.759,0,0,0-1.1.48.734.734,0,0,0-.24.8,1.668,1.668,0,0,0,.44.66.562.562,0,0,0,.7.08A3.7,3.7,0,0,0,230.86,10.96Zm14.12-6.18c.02,1.48.04,3.64.06,6.42.02,2.8.3,4.32.8,4.58a16.053,16.053,0,0,0-2.08,1.04c-.36.26-.58.42-.6.52s.04.2.22.3c.16.14.64,0,1.46-.4s1.54-.72,2.18-1.02c.6-.3.94-.54,1.04-.76a.566.566,0,0,0-.02-.54c-.1-.14-.28-.12-.58.08a9.857,9.857,0,0,1-1.12.54,55.94,55.94,0,0,1-.38-11.24c.36-.18.62-.24.76-.16a.334.334,0,0,0,.3.08c.06-.02.14-.16.3-.38.14-.22.16-.4.02-.56s-.44-.16-.92.02c-.48.16-1.06.38-1.78.62-.72.26-1.36.48-1.94.72-.6.24-.68.44-.28.62a1.2,1.2,0,0,0,1.16-.04A4.619,4.619,0,0,1,244.98,4.78ZM14.62,25.84q-1.59.48-2.34.78c-.48.22-.72.4-.66.58s.3.28.7.36a24.915,24.915,0,0,0,.22,7.8c0,.22.1.34.28.32a.552.552,0,0,0,.44-.28,6.392,6.392,0,0,0-.2-2.48,17.544,17.544,0,0,1,.28-5.8,20.231,20.231,0,0,1,2.96-.86c1.04-.22,1.46-.5,1.28-.84C17.4,25.06,16.4,25.2,14.62,25.84Zm13.3,3.98V35.4a5.618,5.618,0,0,0-2.62,2.3,3.144,3.144,0,0,0-.62,3.12c.42.96,1,1.22,1.76.76a3.9,3.9,0,0,0,2.14-2.8,25.645,25.645,0,0,0,.32-2.96,6.019,6.019,0,0,1,4.02-.96c-.06.9,0,1.4.16,1.48a.605.605,0,0,0,.44.06q.15-.06.24-.48a5.334,5.334,0,0,0,0-.8,3.758,3.758,0,0,1,1.2,1.32,4.435,4.435,0,0,1,.4,3.1c-.14.14-.28.3-.4.42a.65.65,0,0,0-.12.54c.04.2.2.28.48.28.24,0,.54-.32.86-.96a5.263,5.263,0,0,0,.08-2.92,4.783,4.783,0,0,0-2.44-2.84,19.3,19.3,0,0,1,.36-3.42,4.022,4.022,0,0,0,.18-1.62,2.941,2.941,0,0,0-.26-.34.294.294,0,0,0-.34-.02c-.14.08-.3.54-.44,1.42a35.494,35.494,0,0,0-.38,3.86,8.983,8.983,0,0,0-4.08.94c-.04-1.64-.04-3.44,0-5.44a18.917,18.917,0,0,0,2.62-.72.5.5,0,0,0,.34-.44c0-.16-.26-.26-.74-.24a9.231,9.231,0,0,0-2.22.52,11.978,11.978,0,0,0-.08-1.42.371.371,0,0,0-.26-.34.79.79,0,0,0-.54.1c-.18.12-.24.38-.16.74a6.232,6.232,0,0,1,.1,1.24c-1.88.68-3.12,1.14-3.68,1.36-.56.24-.84.5-.78.78.04.3.4.28,1.12-.06A32.038,32.038,0,0,1,27.92,29.82Zm-1.16,10.5c-.82.62-1.28.54-1.36-.22a5,5,0,0,1,2.52-3.76A6.279,6.279,0,0,1,26.76,40.32ZM50.72,30.04c.14.26.26.26.34.02a1.936,1.936,0,0,0-.32-1.24,5,5,0,0,0-1.24-1.58c-.56-.44-.94-.6-1.16-.5-.22.12-.3.24-.22.34a5.63,5.63,0,0,0,.82.82A15.716,15.716,0,0,1,50.72,30.04ZM46.18,35.8a6.3,6.3,0,0,1,6.28-3.26c.74.5.92,1.56.54,3.2a10.86,10.86,0,0,1-1.64,4A18.123,18.123,0,0,1,50.2,41.3c-.08.04-.22.12-.4.22a.481.481,0,0,0-.26.44c0,.18.12.32.38.4.26.06.74-.36,1.46-1.28A15.159,15.159,0,0,0,53.5,37a5.381,5.381,0,0,0-.06-4.66c-.28-.52-1.06-.76-2.32-.7a6.12,6.12,0,0,0-3.72,1.62c-1.18,1.04-1.8,1.74-1.86,2.12-.06.36,0,.58.18.68C45.88,36.16,46.04,36.08,46.18,35.8Zm20.94.9c.08.4.52.52,1.28.36.76-.14,1.98-.44,3.66-.84,1.68-.42,2.82-.36,3.46.18a4.447,4.447,0,0,1-1.84,3.34c-1.26,1.02-1.92,1.58-1.98,1.62s-.04.16.06.32a.42.42,0,0,0,.52.18,8.26,8.26,0,0,0,1.88-1.3,6.124,6.124,0,0,0,1.94-2.42,2.6,2.6,0,0,0-.48-2.64,3.132,3.132,0,0,0-2.7-.26c-1.26.28-2.86.58-4.84.92a39.322,39.322,0,0,1,.22-5.8,7.612,7.612,0,0,1,3.4-1.48,4.086,4.086,0,0,0,1.7-.36.283.283,0,0,0,0-.44q-.21-.27-1.56-.06a10.937,10.937,0,0,0-3.54,1.42c.18-1.58.06-2.3-.32-2.14a.6.6,0,0,0-.46.74,5.551,5.551,0,0,1-.06,1.78,26.366,26.366,0,0,0-3.9,2.12.5.5,0,0,0,.16.56c.16.22,1.38-.34,3.64-1.7C67.26,32.62,67.18,34.6,67.12,36.7Zm23.36,2.28a9.407,9.407,0,0,0,3.2,2c.84.26,1.36.28,1.54.1s.2-.34.12-.44a5.591,5.591,0,0,0-1.42-.5A9.123,9.123,0,0,1,90.7,38.1a53.905,53.905,0,0,1,2.38-5.3c.62-1.08,1.02-1.88,1.24-2.36a2.692,2.692,0,0,0,.26-1.36,1.712,1.712,0,0,0-.34-.98,1.531,1.531,0,0,0-1.04-.42,21.455,21.455,0,0,0-6.14,2.12A19.71,19.71,0,0,1,85,31.02a.677.677,0,0,0-.38.5.8.8,0,0,0,0,.54.312.312,0,0,0,.26.16,16.144,16.144,0,0,0,2.04-1.34A12.162,12.162,0,0,1,91.16,29c1.58-.38,2.44-.5,2.6-.34.14.16-.16,1-.92,2.54s-1.5,3.06-2.14,4.56c-.66,1.52-.94,2.36-.8,2.56A2.452,2.452,0,0,0,90.48,38.98Zm8.24-6.3a6.648,6.648,0,0,1-.32-3.26c.1-.26.02-.4-.28-.46-.28-.06-.5.2-.6.8a6.019,6.019,0,0,0,.12,2.18c.18.88.44,1.3.8,1.3.32.02.5-.06.5-.26s-.04-.3-.12-.3ZM96.1,30.84c.14-.4.04-.64-.26-.66s-.46.02-.5.12a3.544,3.544,0,0,0-.04.94,3.446,3.446,0,0,0,.38,1.56c.26.52.46.82.6.86a.677.677,0,0,0,.48-.06c.16-.06.2-.2.12-.38q-.15-.3-.3-.66a7.76,7.76,0,0,1-.4-.88A.988.988,0,0,1,96.1,30.84Zm9.58,8.68c-.76.64-.8,1.24-.12,1.78a2.985,2.985,0,0,0,2.74.38,4.331,4.331,0,0,0,2.42-3.14,6.834,6.834,0,0,1,3.66,1.08,3.229,3.229,0,0,0,.84.64c.24.16.42.2.52.12a.932.932,0,0,0,.28-.28c.08-.1-.26-.48-1.02-1.12-.76-.66-2.16-1.06-4.18-1.24a25.816,25.816,0,0,1,.06-4.32c.96-.52,1.84-.98,2.6-1.32a3.49,3.49,0,0,0,1.28-.8c.1-.18.12-.3.06-.38-.08-.08-.28-.1-.64-.06a3.509,3.509,0,0,0-1.42.64,13.91,13.91,0,0,1-1.86,1c.04-1.26.06-2.5.04-3.64.84-.3,1.36-.4,1.54-.3s.5-.02.98-.32c.44-.3.66-.56.62-.78-.04-.18-.28-.22-.68-.08-.44.12-1.3.38-2.58.76a5.591,5.591,0,0,0-.26-.82c-.12-.26-.24-.38-.38-.34a1.671,1.671,0,0,0-.38.16c-.12.08-.12.24-.02.48a2.707,2.707,0,0,1,.18.72,34.235,34.235,0,0,1-3.56,1.14,4.9,4.9,0,0,1-1.78.26.473.473,0,0,0-.58.22.484.484,0,0,0-.02.54c.1.14.62.14,1.58-.04a34.349,34.349,0,0,0,4.48-1.28c.02,1.32,0,2.56-.1,3.76q-2.55,1.02-3.84,1.56c-.88.38-1.44.58-1.64.66a.523.523,0,0,0-.36.5c-.02.24.18.36.54.32a5.105,5.105,0,0,0,1.66-.62c.74-.38,1.96-.88,3.7-1.54-.06,1.18-.1,2.48-.1,3.86A5.734,5.734,0,0,0,105.68,39.52Zm2.5,1.36a2.053,2.053,0,0,1-1.96-.08c-.22-.32-.04-.78.54-1.3a5.292,5.292,0,0,1,3.06-.96A2.652,2.652,0,0,1,108.18,40.88Zm17.64-5.96a9.022,9.022,0,0,1,7.86-2.66c.94.4,1.16,1.42.64,3.02a9.122,9.122,0,0,1-2.18,3.74c-.9.9-1.36,1.4-1.36,1.54a.373.373,0,0,0,.14.32c.08.1.22.1.4.02a6.6,6.6,0,0,0,1.3-1.02,12.161,12.161,0,0,0,2.1-3.12c.74-1.96.94-3.28.58-3.94a2.816,2.816,0,0,0-1.66-1.32,9.6,9.6,0,0,0-5.72.94,24.72,24.72,0,0,0-2.94,1.9c-.48.42-.74.68-.76.82a.558.558,0,0,0,.22.5C124.6,35.84,125.06,35.62,125.82,34.92Zm23.78-5.68c.14.06.36-.02.62-.22.24-.22.28-.4.16-.58-.14-.18-.48-.16-.98.04-.52.22-1.24.54-2.18.98a15.793,15.793,0,0,1,.24-1.7c.08-.46,0-.74-.22-.8s-.36-.04-.38.06c-.04.12-.12.38-.22.76a13.239,13.239,0,0,0-.38,2.08c-.96.44-1.66.78-2.08.94a1.97,1.97,0,0,0-.74.44.25.25,0,0,0,.04.34.533.533,0,0,0,.48.1,2.744,2.744,0,0,0,.88-.38,4.893,4.893,0,0,1,1.3-.52c-.52,3.18-.84,5.78-.98,7.8a12.167,12.167,0,0,0-.04,3.26.934.934,0,0,0,.3.28.345.345,0,0,0,.34-.1,10.544,10.544,0,0,0,.26-2.68,86.5,86.5,0,0,1,1.1-8.88C148.28,29.86,149.1,29.46,149.6,29.24Zm-.3,6.3c1.44-.94,2.96-1.84,4.54-2.72.14.5.4.58.74.22a1.674,1.674,0,0,0,.5-.84.359.359,0,0,0-.24-.38,2.584,2.584,0,0,0-1.24.3,19.863,19.863,0,0,0-2.78,1.4,8.054,8.054,0,0,0-1.98,1.4c-.16.22-.16.4,0,.52A.459.459,0,0,0,149.3,35.54Zm.52,5.22c1.9-.36,3.32-.62,4.3-.78.98-.12,1.64-.22,2.02-.26.36-.02.54-.2.54-.5,0-.28-.08-.4-.22-.36s-.66.16-1.56.32q-1.38.27-2.94.42c-1.06.1-1.74.2-2.08.26-.32.06-.48.24-.48.5C149.4,40.64,149.54,40.76,149.82,40.76Zm23.26-4.5a17.62,17.62,0,0,1-1.78,3.9,3.376,3.376,0,0,0-.72,1.34c.02.16.18.16.48.02a3.224,3.224,0,0,0,.72-.48,15.048,15.048,0,0,0,1.48-2.8,13.338,13.338,0,0,0,1.06-6.02,21.945,21.945,0,0,0-.36-4,2.591,2.591,0,0,0-.44-.78.307.307,0,0,0-.44.08,5.275,5.275,0,0,0,.24,2.4A18.591,18.591,0,0,1,173.08,36.26Zm-7.02-7.78c-.14.94-.26,2.02-.34,3.24a9.2,9.2,0,0,0,.62,3.9,1.133,1.133,0,0,0,.98.12.847.847,0,0,0,.4-.46c.02-.14-.02-.24-.12-.28a4.771,4.771,0,0,0-.7-.04,12.178,12.178,0,0,1-.22-4.84c.26-1.04.36-1.62.26-1.74a.657.657,0,0,0-.48-.14A.385.385,0,0,0,166.06,28.48Zm19.66-.68a2.472,2.472,0,0,0-2.52.28c-.58.5-1.22,1.94-1.94,4.34a10.2,10.2,0,0,0,0,6.64c.74,2.04,1.76,2.9,3.12,2.56a8.026,8.026,0,0,0,5.32-6.3A7.883,7.883,0,0,0,185.72,27.8Zm-1.14,12.94c-.96.38-1.7,0-2.28-1.1a10.948,10.948,0,0,1,.44-8.9.825.825,0,0,0,.52-.74,1.6,1.6,0,0,1,.3-.88,1.262,1.262,0,0,1,1.54-.54,6.948,6.948,0,0,1,3.84,6.74A7.09,7.09,0,0,1,184.58,40.74Zm16.28-5.78a.983.983,0,0,0,.16-.88,1.091,1.091,0,0,0-.68-.68,1.759,1.759,0,0,0-1.1.48.734.734,0,0,0-.24.8,1.668,1.668,0,0,0,.44.66.562.562,0,0,0,.7.08A3.7,3.7,0,0,0,200.86,34.96Zm11.76-7.5c.02-.46-.08-.72-.32-.76-.22-.04-.38,0-.46.14a23,23,0,0,0-.32,3.8,58,58,0,0,0,.04,7.22c.14,2.44.24,3.7.28,3.76.02.08.16.1.4.06a.677.677,0,0,0,.48-.22,5.919,5.919,0,0,0-.12-1.92,10.262,10.262,0,0,1,1.12-4.94,20.519,20.519,0,0,0,2.86,4.08,17.632,17.632,0,0,0,1.58,1.66c.08.04.18-.02.28-.16a.6.6,0,0,0,.12-.44,1.3,1.3,0,0,0-.44-.62,21.77,21.77,0,0,1-1.9-2.26,11.479,11.479,0,0,1-2.04-3.4,20.873,20.873,0,0,1,2.42-4.24c.84-1.06,1.38-1.78,1.68-2.14.28-.36.4-.56.38-.62a1.271,1.271,0,0,0-.32-.26c-.18-.1-.8.48-1.84,1.76a38.237,38.237,0,0,0-4.06,7.1,55.693,55.693,0,0,1,.06-5.78A11.426,11.426,0,0,0,212.62,27.46Zm18.24,7.5a.983.983,0,0,0,.16-.88,1.091,1.091,0,0,0-.68-.68,1.759,1.759,0,0,0-1.1.48.734.734,0,0,0-.24.8,1.668,1.668,0,0,0,.44.66.562.562,0,0,0,.7.08A3.7,3.7,0,0,0,230.86,34.96ZM241.46,39a3.778,3.778,0,0,0,.24,2.24c.26.48.46.58.6.26a1.829,1.829,0,0,0,.04-1.14,5.719,5.719,0,0,1,.24-2.26,46.584,46.584,0,0,1,4.56-2.36c.26,1.82.44,3.22.54,4.18.08.94.24,1.42.48,1.38a.579.579,0,0,0,.48-.54,27.7,27.7,0,0,0-.6-4.4,91.065,91.065,0,0,0-2.06-9.06,1.5,1.5,0,0,0-.66-.7c-.3-.12-.5-.02-.62.32A52.211,52.211,0,0,0,241.46,39Zm3.84-11.02a54.426,54.426,0,0,1,1.62,6.96c-1.28.6-2.66,1.3-4.14,2.12A34.563,34.563,0,0,1,245.3,27.98Zm15.56,6.98a.983.983,0,0,0,.16-.88,1.091,1.091,0,0,0-.68-.68,1.759,1.759,0,0,0-1.1.48.734.734,0,0,0-.24.8,1.668,1.668,0,0,0,.44.66.562.562,0,0,0,.7.08A3.7,3.7,0,0,0,260.86,34.96Zm11.76-7.5c.02-.46-.08-.72-.32-.76-.22-.04-.38,0-.46.14a23,23,0,0,0-.32,3.8,58,58,0,0,0,.04,7.22c.14,2.44.24,3.7.28,3.76.02.08.16.1.4.06a.677.677,0,0,0,.48-.22,5.919,5.919,0,0,0-.12-1.92,10.262,10.262,0,0,1,1.12-4.94,20.519,20.519,0,0,0,2.86,4.08,17.63,17.63,0,0,0,1.58,1.66c.08.04.18-.02.28-.16a.6.6,0,0,0,.12-.44,1.3,1.3,0,0,0-.44-.62,21.772,21.772,0,0,1-1.9-2.26,11.479,11.479,0,0,1-2.04-3.4,20.873,20.873,0,0,1,2.42-4.24c.84-1.06,1.38-1.78,1.68-2.14.28-.36.4-.56.38-.62a1.271,1.271,0,0,0-.32-.26c-.18-.1-.8.48-1.84,1.76a38.237,38.237,0,0,0-4.06,7.1,55.693,55.693,0,0,1,.06-5.78A11.424,11.424,0,0,0,272.62,27.46Zm18.24,7.5a.983.983,0,0,0,.16-.88,1.091,1.091,0,0,0-.68-.68,1.759,1.759,0,0,0-1.1.48.734.734,0,0,0-.24.8,1.668,1.668,0,0,0,.44.66.562.562,0,0,0,.7.08A3.7,3.7,0,0,0,290.86,34.96Zm14.12-6.18c.02,1.48.04,3.64.06,6.42.02,2.8.3,4.32.8,4.58a16.053,16.053,0,0,0-2.08,1.04c-.36.26-.58.42-.6.52s.04.2.22.3c.16.14.64,0,1.46-.4s1.54-.72,2.18-1.02c.6-.3.94-.54,1.04-.76a.566.566,0,0,0-.02-.54c-.1-.14-.28-.12-.58.08a9.854,9.854,0,0,1-1.12.54,55.942,55.942,0,0,1-.38-11.24c.36-.18.62-.24.76-.16a.334.334,0,0,0,.3.08c.06-.02.14-.16.3-.38.14-.22.16-.4.02-.56s-.44-.16-.92.02c-.48.16-1.06.38-1.78.62-.72.26-1.36.48-1.94.72-.6.24-.68.44-.28.62a1.2,1.2,0,0,0,1.16-.04A4.619,4.619,0,0,1,304.98,28.78Zm13.08,7.84a.7.7,0,0,0-.44-.72c-.34-.16-.5.02-.5.52a21.159,21.159,0,0,0,.22,4.98c-1.66.6-3.28,1.12-4.88,1.58-.26.08-.34.24-.22.48.1.26.34.32.68.22l4.44-1.56c.4.48.66.64.82.44.14-.18.12-.78-.1-1.78A14.031,14.031,0,0,1,318.06,36.62Zm28.22,7.44.06.04h.46l.2-.18v-.34l.16-.18v-.66l.18-.18v-.5l.16-.16v-.36l.18-.16v-.5l.18-.14v-.32l.14-.18V39.4l.36-.32V36.9l-.36-.32v-.52l-.52-.52h-.2l-.16-.18h-.6l-.16.18H345l-.16.18h-.7l-.16.14h-.18l-.16.18h-.68l-.16.18h-.52l-.16.16h-.32l-.16.18h-.7l-.18.16h-.16l-.18.16h-.48l-.34.34h-.32l-.18.18h-.34l-.16.16h-.18l-.34.34h-.16l-.14.18h-.2l-.16.18-.2-.14v-.7l-.18-.2h-.3l-.18.18h-.2v.18l-.14.18v3.28l.14.18v1.02l.36.32v.7l.34.32v.2h.2l.16.14.1-.14h.2l.2-.2v-.3l-.18-.16v-.16l-.16-.18v-.16l-.18-.16v-.7l-.18-.18v-.94l-.14-.18V39.4l.12-.14h.16l.16-.18h.2l.2-.18v-.18l.1-.14h.2l.16-.16h.18l.18-.18h.14l.36-.32h.34l.16-.18h.2l.14.14v2.24l-.14.14h-.16l-.18.18h-.5l-.18.16h-.66l-.18.16h-.16l-.14.14h-.22v.5l.2.18h.62l.18-.16h.16l.14-.18h.54l.34-.32h.2l.14.12v.18l.16.18v1.68l.18.18h.68V40.74l.14-.12h.16l.18-.18h.16l.18-.16h.84l.18-.2.16.16v2.04l-.18.16v.96l.2.2h.52v-.86l.14-.18v-.14l.18-.18V40.42l.18-.18v-.32l.14-.14h.48l.16-.18h.7l.18-.18h.84l.16-.16h.18l.18-.18.16.14v.42l-.18.16v.32l-.14.16v.5l-.18.14v.34l-.18.18v.5l-.16.16v.5l-.18.18v.34l-.14.16v.64Zm-14.48-.18.06.08h.44l.2-.2v-.38l.14-.12h.22v-.34l.14-.18v-.18l.36-.32v-.52l.34-.32v-.36l.32-.3v-.32l.18-.18v-.16l.16-.16v-.2l.18-.16V39.4l.16-.18v-.14l.34-.34v-.38l.18-.14v-.16l.16-.18v-.16l.16-.18v-.16l.16-.16v-.18l.18-.18V36.7l.18-.16v-.16l.16-.18v-.18l.32-.32.18.16v.36h.48l.18-.16h.16l.18-.18h.16l.16-.16h.34l.36-.34h.48l.16-.18h.52l.16-.16h.34l.16-.16h.34l.18-.18h.32l.18-.16h.66l.18-.16h.34l.16-.16h1l.16-.16h.36l.18-.2v-.18l.32-.32h.36l.32-.32h.18l.36-.38v-.34l.16-.16v-.62l-.36-.38h-.16l-.18-.16h-1.98l-.16.16h-1.24l-.14-.14V30.7l-.52-.54h-.18l-.32-.34h-.18l-.34-.34h-.16l-.18-.18h-.16l-.16-.16h-.8l-.2.2v.3l.2.2h.18l.32.32h.2l.16.18h.14l.16.16h.34l.34.34h.18l.34.36-.18.14h-.34l-.18.18h-.5l-.16.14h-.5l-.16.18h-.34l-.18.18h-.5l-.16.16h-.18l-.16.18h-.16l-.18.14h-.66l-.36.36h-.16l-.16.16h-.18l-.2.2v.32h.22l.14.12v.56l-.18.18v.18l-.18.16v.16l-.16.14v.38l-.18.16v.16l-.32.32v.38l-.18.14v.5l-.34.34v.16l-.16.18v.16l-.34.34v.34l-.18.18v.16l-.16.16v.16l-.16.18v.18l-.16.16v.16l-.18.18v.16l-.18.18v.32l-.16.14v.16l-.34.36v.14l-.16.18v.34l-.18.18v.16l-.5.52v.34l-.18.16v.28Zm9.44-3.92-.14-.16V37.38l.3-.32h.68l.16-.16h.16l.16-.18h.4l.14.14v2.42l-.12.14h-.18l-.18.16h-.32l-.16.18h-.7Zm2.86-.72-.14-.14V36.7l.32-.3h.66l.18-.18h.68l.16-.16h.54l.18.16h.16l.48.48v.34l.18.18v1.74l-.2.14-.14-.16v-.16l-.18-.2h-.8l-.18.16h-.34l-.18.18h-.32l-.18.16h-.48l-.16.16Zm-7.4-3.7-.16-.16.36-.38v-.48l.32-.34v-.14l.18-.18v-.52l.14-.12h.16l.16-.18h.18l.18-.18h.34l.18-.16h.48l.16-.18h.2l.16-.16h.16l.16-.16h.84l.18-.18h.84l.16-.16h.32l.16-.18h2.6l.32.34-.84.84h-.18v.2l-.14.14h-.52l-.16.16h-.16l-.18.16h-.34l-.16.18h-.5l-.16.18h-.52l-.18.16h-.32l-.18.16h-.52l-.16.18h-.32l-.16.16h-.34l-.16.16h-.36l-.16.16h-.5l-.18.16h-.32l-.18.18h-.16l-.18.16h-.16l-.14.18Zm-5.06-2.68h.66l.2-.2V32.5l.36-.32v-.32l-.38-.34.2-.2v-.16l.18-.18v-.32l.14-.18v-.34l.18-.18v-.32l.14-.14h.16l.16-.18h.18l.34-.32h.18l.18-.18h.14l.36-.34h.34l.16-.18h.32l.2-.2.18.18v1.86l.14.16v.36l.52.5v.2h.52v-.5l-.18-.14v-.38l-.14-.16V28.32l-.18-.16v-.2l.3-.32h.34l.18-.18h.2l.16.18h.14l.34-.34h.18l.18-.2v-.5h-.84l-.16.18h-.16l-.18.16h-.5l-.34.36h-.34l-.16.14h-.16l-.16.18h-.52l-.18.18h-.16l-.18.16h-.16l-.14.18h-.38l-.16.18-.2-.14v-.22l.18-.18v-.2l.18-.16v-.14l.16-.18v-.16l.18-.18v-.18l.16-.16v-.16l.16-.18V25.6h-.66l-.36.36v.16l-.16.18v.32l-.34.36v.34l-.18.16v.34L333,28v.16l-.16.16v.16l-.18.18v.18l-.16.16v.36l-.18.16v.36l-.18.14v.32l-.14.18v.5l-.18.18v.52l-.18.16Zm12.28-2.6.06.08h.12l.52-.52V29.3l.18-.18V28.8l.18-.18v-.66l.16-.18v-.2l.14-.12h.5l.16-.16h.86l.18-.16h.18v-.36h-2l-.18.16h-.82l-.16.18h-.2l-.16.18h-.9l-.12-.14v-.22l.16-.18v-.18l.16-.16v-.34l.34-.34v-.32l.16-.16-.36-.34h-.12l-.16.16h-.38v.2l-.16.18v.2l-.18.14v.16l-.14.16v.18l-.18.18v.32l-.18.18v.36l-.12.12.12.14v.38h.2l.18.16h.62l.18-.16h.66l.16-.18h.24l.12.14v1.22l-.16.18v.8Z" transform="translate(-4.972 -0.878)" fill="#ff553c"/></svg>