<svg xmlns="http://www.w3.org/2000/svg" width="153.265" height="37.196" viewBox="0 0 153.265 37.196"><path d="M19.68,11.56a.753.753,0,0,0-.84-.44c-.36.12-.6.84-.68,2.12-.08,1.32-.12,2.52-.16,3.52a19.169,19.169,0,0,0,.08,2.72,34.018,34.018,0,0,0,.68,3.56c-.92.28-1.48.44-1.84.52a5.238,5.238,0,0,1-1.08.24,3.621,3.621,0,0,0-1.04.24,2.012,2.012,0,0,0-.6.32,1.183,1.183,0,0,0-.08-.68q-.18-.24-1.08.48a40.014,40.014,0,0,0,1.16-8.84c-.04-2.08-.28-3.32-.72-3.84a5.717,5.717,0,0,0-2.84-1.24c-2.24.04-4.28,1.24-6.12,3.56a12.427,12.427,0,0,0,.2-2.44c-.04-.52-.28-.72-.76-.6-.52.12-.8,2.2-.84,6.2a41.994,41.994,0,0,0,1.72,12.2c0,.4.56.6,1.6.48a9.747,9.747,0,0,0,4.04-1.68q.54,1.14,2.04-1.92A5.488,5.488,0,0,0,13.92,25a.538.538,0,0,0,.24.28c.08.12.32.16.72.2a6.957,6.957,0,0,0,2-.32,22.494,22.494,0,0,0,2.32-.64c.64-.2,2.08-.6,4.4-1.28-.04.6-.32,2.56-.76,5.88-.4,3.36-.68,5.44-.72,6.32a7.731,7.731,0,0,0,.12,2.04c.12.48.32.68.64.6.32-.12.52-.56.6-1.28.08-.76.32-2.76.68-6,.4-3.28.64-5.36.76-6.28,1.56,1.76,2.96,3.24,4.24,4.48,1.24,1.24,2.04,2,2.44,2.32a10.454,10.454,0,0,1,1.24,1.12c.44.4.88.8,1.24,1.12a1.725,1.725,0,0,0,1.04.52.876.876,0,0,0,.76-.16A.35.35,0,0,0,36,33.4a4.056,4.056,0,0,0-.4-.64c-.2-.24-.84-.84-1.96-1.88-1.12-1-2.4-2.2-3.8-3.6a28.768,28.768,0,0,1-3.76-4.68c2.36-.6,4.08-1.12,5.2-1.48,1.16-.32,1.92-.56,2.44-.64.48-.08.88-.12,1.16-.16a1.523,1.523,0,0,0,.76-.16,4.471,4.471,0,0,0,.8-.68q.54-.48.36-.6a1.251,1.251,0,0,0-.4-.2c-.16-.04-.52-.12-1-.2a13.9,13.9,0,0,0-3.52.72,17,17,0,0,0,.76-1.88,13.954,13.954,0,0,0,.72-2.24,17.371,17.371,0,0,0,.24-2.76,9.866,9.866,0,0,0-.04-2.2q-.12-.24-.6-.96a1.952,1.952,0,0,0-1.12-.88,4.722,4.722,0,0,0-1.64.08c-.68.16-1.44.4-2.4.68.16-.64.36-1.32.56-2s.56-1.52.96-2.52c.44-.96.72-1.52.8-1.72a.494.494,0,0,0,.04-.4.538.538,0,0,0-.24-.28A.853.853,0,0,0,29.44,2c-.04-.08-.2-.08-.4.04a1.835,1.835,0,0,0-.68.68c-.2.4-.52,1.04-.88,1.92a30,30,0,0,0-1.4,4.92c-1.04.36-2.2.72-3.56,1.16C21.12,11.12,20.2,11.4,19.68,11.56Zm-8.88,14a10.532,10.532,0,0,1-4.88,2.32,15.529,15.529,0,0,1-.84-2.96A61.456,61.456,0,0,1,12.2,19.8,25.316,25.316,0,0,1,10.8,25.56ZM4.6,16.32c1.92-3.4,4.36-4.64,7.28-3.72a5.691,5.691,0,0,1,.64,1.88,13.114,13.114,0,0,1-.08,3.92c-.32-.44-.6-.52-.8-.28a36.039,36.039,0,0,0-6.72,5.12A51.267,51.267,0,0,1,4.6,16.32ZM19.92,13c.48-.12,2.44-.68,5.88-1.76-.92,4.4-1.56,7.84-1.88,10.32a16.481,16.481,0,0,0-2.12.72,11.151,11.151,0,0,1-1.64.48,58.434,58.434,0,0,1-.52-6.48C19.68,15.24,19.76,14.16,19.92,13ZM31.48,9.96a6.83,6.83,0,0,1,.6,1.6,8,8,0,0,1,.04,1.76,16.3,16.3,0,0,1-.4,2.52,16.6,16.6,0,0,1-1.96,4.04c-1.4.48-2.76.92-4.12,1.24q.36-2.46.96-5.4c.4-2,.72-3.64.92-5A12.117,12.117,0,0,1,31.48,9.96ZM43.04,26.92c.6-.28.96-.56,1.08-.88.08-.28-.04-.52-.52-.68a50.287,50.287,0,0,1,6.72-14.68C51.6,8.8,52.6,7.4,53.36,6.44c.76-.92.88-1.56.52-1.88-.4-.32-.68-.36-.88-.16s-1.56,2.12-4.12,5.72a37.315,37.315,0,0,0-5.52,10.56,34.415,34.415,0,0,0-1.52,5.44C41.92,26.32,42.32,26.6,43.04,26.92ZM48.92,14.4c-1.32,7.04-1.6,12.68-.88,16.84.76,4.2,1.2,6.4,1.4,6.6s.56.2,1.04,0c.44-.2.72-.36.8-.52s0-.32-.2-.44a2.274,2.274,0,0,1-.6-1.12,57.942,57.942,0,0,1-.96-6.08,37.882,37.882,0,0,1,.16-10.2c.52-3.4.8-5.24.8-5.48,0-.28-.16-.44-.48-.44a1.367,1.367,0,0,0-.68.12A1.764,1.764,0,0,0,48.92,14.4Zm8.2-2.4c-.32-.68-.72-.96-1.16-.84-.4.12-.6,1.24-.56,3.2a41.226,41.226,0,0,0,.6,5.92.61.61,0,0,0-.24.6,1.86,1.86,0,0,0,.16.68c.12.12.96-.04,2.56-.48,1.6-.4,3.24-.8,4.96-1.12a48.158,48.158,0,0,0-3.56,7.52c-.72,2-.84,3.08-.52,3.16.36.08.76-.4,1.12-1.4a24.981,24.981,0,0,1,2.24-4.12c.16.52.44.72.8.72a2.093,2.093,0,0,0,1.16-.8,4.758,4.758,0,0,1,2.52-1.16c1.6-.32,2.84.32,3.72,2,.48,3.8-.08,6.6-1.6,8.44s-2.36,2.8-2.48,2.88-.16.32-.12.84.36.56.84.2a5.019,5.019,0,0,0,1.6-1.4c.48-.68,1.12-1.48,1.76-2.44a16.833,16.833,0,0,0,4.56.36,5.023,5.023,0,0,0,2.16-.6c.44-.24.52-.56.32-.92s-.84-.44-1.96-.2A10.971,10.971,0,0,1,71.88,33a8.518,8.518,0,0,1,2.68-4,16.264,16.264,0,0,1,2.24-1.6c.32-.16.4-.4.2-.68a1.277,1.277,0,0,0-.96-.52,2.389,2.389,0,0,0-1.6.68,9.834,9.834,0,0,0-1.64,1.76,12.369,12.369,0,0,0-.64-3.76,4.654,4.654,0,0,0-3.24-2.72,8.031,8.031,0,0,0-5.8,2.32,22.633,22.633,0,0,1,1.44-3.08,15.758,15.758,0,0,0,1.08-1.84c2.12-.36,4.72-.72,7.72-1.16.48.28.92.04,1.4-.64.36-.16.56-.32.56-.6a.844.844,0,0,0-.24-.64c.44-3.56.28-5.52-.4-5.92a6.829,6.829,0,0,0-3.08-.8,27,27,0,0,0-5.6.32c.28-.64.64-1.64,1.08-3.04a5.394,5.394,0,0,0,.12-3.44,3.382,3.382,0,0,0-.8-1.44,2.574,2.574,0,0,1-.6-.48,2.3,2.3,0,0,0-1.56-.28c-.72.04-2.52.76-5.32,2.12q.84-2.28.48-2.28a2.581,2.581,0,0,0-1.12.48,3.765,3.765,0,0,0-1.24,2.4c-.32,1.28-.52,2.04-.6,2.4A15.062,15.062,0,0,0,56.2,8.4a3.238,3.238,0,0,0,.32,2,5.071,5.071,0,0,0,.56.76c.08.08.28.04.56-.12.32-.16.36-.76.12-1.88a4.174,4.174,0,0,1,.36-2.96,26.279,26.279,0,0,1,4.6-2.84c1.28-.56,2.08-.68,2.44-.4a2.584,2.584,0,0,1,.56,2,7.6,7.6,0,0,1-.64,3.08,12.7,12.7,0,0,0-.8,2.4,16.436,16.436,0,0,0-7.08,3.2C57.16,12.96,57.12,12.44,57.12,12Zm.08,3.68a15.572,15.572,0,0,1,7.08-3.52c.04.8.2,2.16.4,4.04a3.488,3.488,0,0,0-.16,1.72c-2.6.52-4.92,1.08-6.96,1.56A9.085,9.085,0,0,1,57.2,15.68Zm6.88,20.36a20.041,20.041,0,0,1,4.4-6.44,9.981,9.981,0,0,0,2.28-2.32c.04-.28-.2-.44-.64-.48s-.96.28-1.6.88c-.64.64-1.52,1.6-2.68,2.92a18.685,18.685,0,0,0-2.68,3.96c-.64,1.36-.72,2.16-.32,2.36C63.28,37.12,63.72,36.84,64.08,36.04Zm3.48-10.52c.84-.44,1.16-.76.92-1.04s-.76-.24-1.56.08c-.84.32-2.24,2.16-4.32,5.52-2.04,3.36-3.08,5.28-3.08,5.72a1.085,1.085,0,0,0,.44.92c.28.2.88-.64,1.88-2.48.96-1.8,2.08-3.64,3.32-5.52A21.054,21.054,0,0,1,67.56,25.52Zm5.88-9.24c-2.64.48-5.12.92-7.36,1.32a13.4,13.4,0,0,0,.16-1.52,16.277,16.277,0,0,0-.04-2.4,6.348,6.348,0,0,0-.36-1.84,37.162,37.162,0,0,1,6.88-.48,1.944,1.944,0,0,1,1.04,1.88A10.1,10.1,0,0,1,73.44,16.28ZM84.64,26.8a2.009,2.009,0,0,0,1.04-.92c.12-.28-.04-.52-.52-.68A67.183,67.183,0,0,1,92.88,8.8c1.28-1.92,2.28-3.32,3-4.28.76-.92.92-1.56.52-1.88-.4-.24-.64-.28-.8-.12-.2.2-1.56,2.12-4.16,5.68a41.271,41.271,0,0,0-5.8,11.56c-1.36,4.16-1.96,6.32-1.88,6.52C83.8,26.48,84.12,26.68,84.64,26.8Zm6.8-14.32c-1.28,7.08-1.6,12.68-.84,16.84.72,4.2,1.2,6.44,1.4,6.6.2.2.52.2,1.04,0a1.787,1.787,0,0,0,.84-.48.443.443,0,0,0-.2-.48,2.243,2.243,0,0,1-.64-1.12,48.894,48.894,0,0,1-.92-6.08,36.318,36.318,0,0,1,.16-10.2c.48-3.4.76-5.2.76-5.48s-.16-.4-.48-.4a1.367,1.367,0,0,0-.68.12A1.765,1.765,0,0,0,91.44,12.48ZM115.68,5.4a30.313,30.313,0,0,0-10.96,4.28,10.547,10.547,0,0,1-5.48,1.6,11.849,11.849,0,0,1,.64-4.76c.52-1.52.92-2.48,1.08-2.92.2-.44.08-.72-.32-.8a1.674,1.674,0,0,0-1.12.24c-.32.2-.72,1.32-1.32,3.36a15.273,15.273,0,0,0-.72,5.04c.04,1.28.76,1.92,2.12,1.8a10.559,10.559,0,0,0,4.56-1.64c.2,6.56.44,12.52.76,17.76.28,5.28.72,8.04,1.28,8.2.56.2.88.12.96-.16q.06-.48-.24-5.16c-.2-3.08-.36-5.72-.48-7.8a28.6,28.6,0,0,0,3.48-.92c1.96-.56,3.16-.92,3.68-1.04.52-.08.92-.16,1.36-.2.44,0,.6-.24.48-.76s-.52-.72-1.2-.68a8.252,8.252,0,0,0-1.6.16c-.36.12-.96.28-1.76.52-.76.28-1.64.52-2.56.8-.96.24-1.6.44-1.96.56-.04-.44-.04-.92-.08-1.44-.04-.96-.12-2-.16-2.96.36-.08,1.4-.4,3.04-1,1.68-.56,2.8-.92,3.24-1.04a7.076,7.076,0,0,1,1.2-.24c.36,0,.44-.28.16-.76-.28-.52-.64-.76-1.08-.68a8.855,8.855,0,0,0-1.2.28c-.36.12-.84.28-1.52.52-.68.28-1.4.48-2.24.76-.8.28-1.4.44-1.68.52q-.18-3.12-.24-6.12c2.48-1.28,4.24-2.12,5.2-2.6a3.617,3.617,0,0,1,2.4-.48c.6.16,1,.12,1.24-.12A7.15,7.15,0,0,0,115.2,7c.16-.16.4-.36.68-.6C116.2,6.16,116.12,5.84,115.68,5.4Zm17.4.72c-.36-.72-.72-1-1.24-.84s-.72,1.32-.64,3.48a72.586,72.586,0,0,0,.72,8.08.646.646,0,0,0-.32.72,1.245,1.245,0,0,0,.24.72c.08.12,1.2-.16,3.4-.8,2.16-.68,5.56-1.6,10.2-2.68.48.32,1.04.08,1.6-.68.4-.16.56-.4.56-.68a1.144,1.144,0,0,0-.2-.68c.6-5.88.12-8.76-1.4-8.64a14.619,14.619,0,0,0-12.8,3.8A7.5,7.5,0,0,1,133.08,6.12Zm.12,4a14.656,14.656,0,0,1,11.56-4.68,2.141,2.141,0,0,1,1.12,2.04,38.623,38.623,0,0,1-.28,5.04c-4.12,1.24-8.08,2.36-12.04,3.44A20.61,20.61,0,0,1,133.2,10.12Zm12.92,24.76,2.44-.72c2.08-1.12,3.28-1.76,3.6-1.88s.76-.32,1.4-.6c.64.6,1.16.76,1.44.56s.44-.8.44-1.72a20.211,20.211,0,0,1,.64-4.04,6.1,6.1,0,0,0-.12-4.2c-.52-1.08-1.12-1.56-1.76-1.52a13.578,13.578,0,0,0-3.12.84c-1.48.52-3.52,1.32-6.04,2.44a2.874,2.874,0,0,0-.32-1.64c-.2-.28-.44-.32-.6-.16-.24.16-.6,1.28-1.08,3.4a17.694,17.694,0,0,0-.36,6.32q.36,3.18.96,3.48C144,35.64,144.84,35.48,146.12,34.88Zm-1.28-8.68c4.32-2.32,7-3.56,8.04-3.64,1.08-.08,1.6.56,1.68,1.88a16.937,16.937,0,0,1-1.12,5.68,56.986,56.986,0,0,1-8.6,3.28A14.623,14.623,0,0,1,144.84,26.2ZM127.08,36.28l2.4-.68q3.12-1.74,3.6-1.92c.32-.12.8-.32,1.4-.6.68.6,1.2.76,1.44.56.28-.2.44-.8.44-1.72a18.177,18.177,0,0,1,.68-4.04,6.1,6.1,0,0,0-.12-4.2c-.56-1.08-1.12-1.56-1.76-1.52a13.081,13.081,0,0,0-3.12.84c-1.48.52-3.52,1.32-6.08,2.44a3.509,3.509,0,0,0-.28-1.64c-.2-.28-.44-.32-.64-.16-.24.16-.6,1.28-1.04,3.4a16.873,16.873,0,0,0-.36,6.32c.24,2.12.52,3.28.92,3.48C124.92,37.04,125.8,36.88,127.08,36.28ZM125.8,27.6q6.42-3.48,8.04-3.6c1.04-.08,1.6.52,1.68,1.84a16.06,16.06,0,0,1-1.16,5.68,54.82,54.82,0,0,1-8.56,3.28A14.624,14.624,0,0,1,125.8,27.6Z" transform="translate(-3.118 -1.28)" fill="#ff553c"/></svg>