<svg xmlns="http://www.w3.org/2000/svg" width="414.72" height="97.424" viewBox="0 0 414.72 97.424"><g transform="translate(0.386 -5012.497)"><path d="M710.038,3551.921a131.907,131.907,0,0,1-22.2-1.875,130.2,130.2,0,0,1-25.5-7.1c-18.061-7.078-34.728-18.25-49.54-33.2A128.525,128.525,0,0,0,566.32,3479.2a119.926,119.926,0,0,0-24.224-6.231,124.2,124.2,0,0,0-23.888-1.193A130.615,130.615,0,0,0,469,3483.956a114.444,114.444,0,0,0-19.692,11.733,85.554,85.554,0,0,0-14.923,14.017l-.772-.635a86.549,86.549,0,0,1,15.1-14.183,115.467,115.467,0,0,1,19.864-11.837,131.626,131.626,0,0,1,49.587-12.278,125.185,125.185,0,0,1,24.081,1.2,120.924,120.924,0,0,1,24.426,6.283,129.518,129.518,0,0,1,46.837,30.778c14.713,14.855,31.265,25.949,49.195,32.977a129.216,129.216,0,0,0,25.3,7.046,130.918,130.918,0,0,0,24.772,1.833,134.227,134.227,0,0,0,44.917-8.749c13.071-5,24.71-11.879,33.658-19.9l.668.745c-9.039,8.1-20.785,15.051-33.969,20.092a134.231,134.231,0,0,1-21.594,6.221,135.583,135.583,0,0,1-23.658,2.594Q711.419,3551.921,710.038,3551.921Z" transform="translate(-434 1541.859)" fill="#dbaa85"/><path d="M710.038,3551.921a131.907,131.907,0,0,1-22.2-1.875,130.2,130.2,0,0,1-25.5-7.1c-18.061-7.078-34.728-18.25-49.54-33.2A128.525,128.525,0,0,0,566.32,3479.2a119.926,119.926,0,0,0-24.224-6.231,124.2,124.2,0,0,0-23.888-1.193A130.615,130.615,0,0,0,469,3483.956a114.444,114.444,0,0,0-19.692,11.733,85.554,85.554,0,0,0-14.923,14.017l-.772-.635a86.549,86.549,0,0,1,15.1-14.183,115.467,115.467,0,0,1,19.864-11.837,131.626,131.626,0,0,1,49.587-12.278,125.185,125.185,0,0,1,24.081,1.2,120.924,120.924,0,0,1,24.426,6.283,129.518,129.518,0,0,1,46.837,30.778c14.713,14.855,31.265,25.949,49.195,32.977a129.216,129.216,0,0,0,25.3,7.046,130.918,130.918,0,0,0,24.772,1.833,134.227,134.227,0,0,0,44.917-8.749c13.071-5,24.71-11.879,33.658-19.9l.668.745c-9.039,8.1-20.785,15.051-33.969,20.092a134.231,134.231,0,0,1-21.594,6.221,135.583,135.583,0,0,1-23.658,2.594Q711.419,3551.921,710.038,3551.921Z" transform="translate(-377.686 1558)" fill="#dbaa85"/></g></svg>