<svg xmlns="http://www.w3.org/2000/svg" width="146.678" height="34.638" viewBox="0 0 146.678 34.638"><path d="M15.84,10.64V21.8a11.236,11.236,0,0,0-5.24,4.6C9,28.64,8.56,30.76,9.36,32.64c.84,1.92,2,2.44,3.52,1.52a7.808,7.808,0,0,0,4.28-5.6,51.289,51.289,0,0,0,.64-5.92,12.038,12.038,0,0,1,8.04-1.92c-.12,1.8,0,2.8.32,2.96a1.21,1.21,0,0,0,.88.12q.3-.12.48-.96a10.666,10.666,0,0,0,0-1.6,7.516,7.516,0,0,1,2.4,2.64c.96,1.48,1.2,3.56.8,6.2-.28.28-.56.6-.8.84A1.3,1.3,0,0,0,29.68,32c.08.4.4.56.96.56.48,0,1.08-.64,1.72-1.92.56-1.32.64-3.24.16-5.84a9.566,9.566,0,0,0-4.88-5.68,38.6,38.6,0,0,1,.72-6.84c.4-1.84.52-2.96.36-3.24a5.882,5.882,0,0,0-.52-.68.588.588,0,0,0-.68-.04c-.28.16-.6,1.08-.88,2.84a70.988,70.988,0,0,0-.76,7.72,17.966,17.966,0,0,0-8.16,1.88c-.08-3.28-.08-6.88,0-10.88a37.834,37.834,0,0,0,5.24-1.44,1,1,0,0,0,.68-.88c0-.32-.52-.52-1.48-.48a18.462,18.462,0,0,0-4.44,1.04,23.956,23.956,0,0,0-.16-2.84.742.742,0,0,0-.52-.68,1.58,1.58,0,0,0-1.08.2c-.36.24-.48.76-.32,1.48a12.463,12.463,0,0,1,.2,2.48c-3.76,1.36-6.24,2.28-7.36,2.72-1.12.48-1.68,1-1.56,1.56.08.6.8.56,2.24-.12A64.075,64.075,0,0,1,15.84,10.64Zm-2.32,21c-1.64,1.24-2.56,1.08-2.72-.44.32-3.08,2-5.56,5.04-7.52A12.558,12.558,0,0,1,13.52,31.64ZM47.96,14.72a45.307,45.307,0,0,1,5.76-3.28c1.36-.6,2.44-1.04,3.24-1.4a5.955,5.955,0,0,1,2.52-.56c.92,0,1.44-.24,1.64-.72a1.34,1.34,0,0,0,0-1.24c-.2-.28-1.24-.08-3.16.56-1.92.68-4.2,1.64-6.92,2.92-2.68,1.32-4,2.2-4,2.72a1.538,1.538,0,0,0,.16.92C47.32,14.76,47.52,14.76,47.96,14.72ZM44.6,18.64a7.069,7.069,0,0,0,.2,3.28c.28.6.64.72,1.04.36.36-.4.56-1.88.52-4.52a44.492,44.492,0,0,1,.68-8.12,20.954,20.954,0,0,1,1.24-5.12c.36-.56.48-1.04.28-1.4a.765.765,0,0,0-.92-.4c-.4.08-1,1.44-1.76,4.12A52.667,52.667,0,0,0,44.6,18.64ZM61.72,33.16c-1.52-.72-2.88-1.44-4.12-2.16a9.223,9.223,0,0,1-2.8-2.36,3.578,3.578,0,0,0-2.52-1.56c.16-1,.28-2,.44-3.04,1.88-1.16,3.52-2.08,4.88-2.84a27.838,27.838,0,0,0,2.52-1.4.508.508,0,0,0,.2-.72,1.192,1.192,0,0,0-.8-.56,1.388,1.388,0,0,0-1.16.44c-.44.32-1.04.8-1.96,1.4a30.268,30.268,0,0,1-3.28,1.72c.6-3.32,1.08-5.76,1.52-7.28a18.35,18.35,0,0,0,.68-2.68c0-.28-.24-.4-.76-.32-.48.08-.76.24-.84.44s-.4,1.16-.92,2.92a83.624,83.624,0,0,0-1.64,8.24c-2,1.04-3.56,1.84-4.52,2.36a10.52,10.52,0,0,0-1.68.96,6.492,6.492,0,0,0-.48.64.551.551,0,0,0-.04.72c.16.2.76.08,1.76-.44q1.56-.72,4.8-2.28c-1.36,7.8-1.84,11.8-1.56,11.92a1.245,1.245,0,0,0,1.12-.24c.4-.28.6-1.12.6-2.48a24.041,24.041,0,0,1,.96-5.68,28.283,28.283,0,0,0,6.44,4.52,7.5,7.5,0,0,0,2.92.96.841.841,0,0,0,.6-.56C62.2,33.48,62.08,33.28,61.72,33.16Zm13.6-6.56a37.513,37.513,0,0,0-.24-9.84,42.9,42.9,0,0,0-1.04-4.32,2.842,2.842,0,0,0-1.56-1.48,3.682,3.682,0,0,0-2.76.08,22.532,22.532,0,0,0-3.32,1.88c0-1.24-.12-1.88-.36-1.88a2.954,2.954,0,0,0-.76.12c-.28.08-.52.44-.68,1.04a5.55,5.55,0,0,0-.16,1.84,2.4,2.4,0,0,0-.72.64c-.28.36-.12.72.48,1.16-.32,6.12-.2,10,.36,11.6a17.844,17.844,0,0,0,1.04,2.48c.08.08.28.08.68,0s.4-1.4-.04-3.96a50.745,50.745,0,0,1,0-11.16c1-.64,1.92-1.24,2.76-1.88a3.68,3.68,0,0,1,3.12-.52A24.771,24.771,0,0,1,73.68,27c-3.16,1.4-5.6,2.52-7.2,3.4-1.6.84-2.4,1.4-2.4,1.64s.12.44.44.72,1.16-.04,2.44-.92a28.768,28.768,0,0,1,6.32-2.96c1.08.76,1.68.48,1.8-.8C75.56,27.36,75.64,26.88,75.32,26.6ZM101.6,11.12a3.788,3.788,0,0,0,1.12-.92c.4-.44-.2-1.12-1.88-2.16a19.05,19.05,0,0,0-5.12-2.2,11.692,11.692,0,0,0-2.84-.56.859.859,0,0,0-.36.56.818.818,0,0,0-.04.68q.06.24.6.6a3.608,3.608,0,0,0,1.96.44,14.1,14.1,0,0,1,4.48,1.6c.6.4.88.8.88,1.16a.863.863,0,0,0,.24.72C100.8,11.2,101.08,11.24,101.6,11.12ZM90.68,28c.4.32,1.48.2,3.24-.32,1.72-.48,3.96-1.28,6.84-2.28a10.326,10.326,0,0,1,7.48-.2,5.5,5.5,0,0,1-1.44,3.56,10.685,10.685,0,0,1-3.32,2.96,5.3,5.3,0,0,0-2.2,1.64c-.28.52-.32.88-.12,1.16a.739.739,0,0,0,.84.28,11.686,11.686,0,0,0,3.08-2,14.72,14.72,0,0,0,4.16-4.72c1.08-1.88,1.2-3.24.4-4.08-.8-.88-2.32-1.24-4.6-1.04a32.872,32.872,0,0,0-8.24,2.12c-3.24,1.2-5.04,1.56-5.32,1a37.721,37.721,0,0,1,.68-10.88c0-.72-.24-1.12-.76-1.28s-.92.08-1.2.64a74.155,74.155,0,0,1-.48,7.72C89.36,25.24,89.68,27.16,90.68,28Zm39.92-9.96a21.9,21.9,0,0,0,4.2,13.64,5.429,5.429,0,0,0,4.56,1.52,42.972,42.972,0,0,0,13.92-5.44c.44-.32.4-.64-.12-.92a1.509,1.509,0,0,0-1.2-.16c-1.88,1-3.68,1.88-5.4,2.6a48.743,48.743,0,0,1-5.44,1.96,5.714,5.714,0,0,1-5.24-.84,17.754,17.754,0,0,1-3.44-13.04A111.083,111.083,0,0,1,144.2,13c-.04,3.16-.12,5.8-.32,7.8-.2,1.96.16,2.88.96,2.64.84-.24,1.16-1.32,1-3.24a42.873,42.873,0,0,1,.4-7.96c3.8-.84,6-1.44,6.52-1.88.56-.44.76-.8.56-1.16-.2-.32-.8-.36-1.8-.08-1,.24-2.72.8-5.16,1.64a14.867,14.867,0,0,1-.04-2.96c.04-.8-.32-1.12-1.04-.92-.76.2-1.08.84-.92,2a7.381,7.381,0,0,1,0,2.36c-2.92.88-6.88,2.24-11.92,4.16.08-2.04.16-3.52.2-4.52a2.092,2.092,0,0,0-.84-1.96c-.6-.4-.96-.08-1.04.92l-.16,6.32c-2.88,1.16-4.32,1.96-4.36,2.52-.08.52.08.84.44.96S128.32,19.2,130.6,18.04Z" transform="translate(-6.904 -2.696)" fill="#ff553c"/></svg>