<svg xmlns="http://www.w3.org/2000/svg" width="149.272" height="38.35" viewBox="0 0 149.272 38.35"><path d="M14,25.6c-.28-.6-.6-.8-1.04-.68s-.56,1.08-.52,2.84a61.267,61.267,0,0,0,.6,6.64c-.36,1.16.16,1.44,1.56.92A25.186,25.186,0,0,1,18,34.2c.88-.16,1.88-.4,3.04-.72,1.2-.32,2.24-.6,3.16-.8a1.13,1.13,0,0,0,1.44-.52.7.7,0,0,0,.2-1.12c.6-4.84.2-7.2-1.08-7.08a12.464,12.464,0,0,0-10.68,3.12Zm.08,3.28a12.5,12.5,0,0,1,9.68-3.84,1.9,1.9,0,0,1,.84,1.72,29.966,29.966,0,0,1-.24,4.12l-10,2.84ZM8.12,8.64a26.7,26.7,0,0,1,5.24-1.32c.16.72.32,1.32.48,1.84.16.48.32.92.48,1.28.2.36.48.84.84,1.48.36.6.68,1.08.84,1.4-.76.16-2.04.48-3.84.92a13.6,13.6,0,0,0-4.32,1.88c-1.04.8-1.64,1.36-1.72,1.64-.08.32.2.6.84.88a57.245,57.245,0,0,0-1.32,18.2c.28,1.68.76,2.44,1.44,2.4.64-.04,1-.12,1.08-.32a1.728,1.728,0,0,0,0-.92c-.08-.44-.28-.6-.64-.6-.32,0-.44-2-.4-5.96a60.476,60.476,0,0,1,.56-8.76A44.812,44.812,0,0,1,9,17.48a14.085,14.085,0,0,1,5.76-2.44c-.28.6-.76,1.68-1.6,3.28a26.368,26.368,0,0,0-1.36,3,6.868,6.868,0,0,0-.24,1.36c-.04.52-.08.88-.08,1s.2.2.64.2c.4,0,.68-.36.8-1.08a15.394,15.394,0,0,1,1.24-3.24c.64-1.44,1.48-3.08,2.4-4.84,1.24-.2,2.76-.4,4.6-.56a17.559,17.559,0,0,0,.12,2.56,28.96,28.96,0,0,0,.6,3.8,8.369,8.369,0,0,0,.64,2.12,1.829,1.829,0,0,0,.68.56,2.18,2.18,0,0,0,.88.2,5.131,5.131,0,0,0,1.76-.72c.84-.44,1.84-1.04,3.04-1.8,1.16-.72,1.56-1.24,1.12-1.6-.44-.32-1.16-.12-2.28.64a20.523,20.523,0,0,1-2.12,1.36,3.621,3.621,0,0,1-.92.32,1.41,1.41,0,0,1-.72-.04c-.24-.08-.48-.64-.68-1.64s-.36-1.96-.48-2.84c-.12-.92-.2-1.92-.24-3.04,2.16-.2,4.64-.44,7.44-.64a5.165,5.165,0,0,1,2.16.16c.8.2,1.12.72.96,1.64.16,2,.16,5.84,0,11.64a82.476,82.476,0,0,1-.48,9.24.984.984,0,0,0,0,.84c.16.16.32.36.52.6.2.28.44.32.8.16.32-.16.6-2.48.8-7.04.2-4.6.28-8.48.16-11.8s-.28-5.2-.52-5.72a2.385,2.385,0,0,0-1.48-1.16c-.72-.28-3.4-.24-7.92.12a5.433,5.433,0,0,0-.04-.6,7.577,7.577,0,0,1,.68-2.4,32.277,32.277,0,0,1,1.8-4.2c.28-.04,1-.12,2.04-.2,1.08-.08,1.76-.16,2.12-.2a1.351,1.351,0,0,0,.88-.52.726.726,0,0,0-.08-.92c-.28-.28-1.36-.28-3.12,0s-4.72.88-8.88,1.68a9.306,9.306,0,0,1-.68-2.24,2.028,2.028,0,0,0-.52-1.2.877.877,0,0,0-.96-.36.737.737,0,0,0-.56.52.843.843,0,0,0,.24.68,9.142,9.142,0,0,1,.6,3A73.169,73.169,0,0,0,10.6,6.44a6.587,6.587,0,0,0-2.44.96,1.022,1.022,0,0,0-.44.76A.422.422,0,0,0,8.12,8.64Zm6.8-1.56c3.76-.6,6.24-1.04,7.52-1.32a28.984,28.984,0,0,1,3.12-.64c-.12.28-.52,1.28-1.24,3.08a30,30,0,0,0-1.12,3.16,7.184,7.184,0,0,0-.08.88c-2,.2-3.8.44-5.48.76-.12-.28-.36-.68-.64-1.32a17.4,17.4,0,0,0-1.12-2A8.215,8.215,0,0,1,14.92,7.08Zm38.16-.96c-.36-.72-.72-1-1.24-.84s-.72,1.32-.64,3.48a72.585,72.585,0,0,0,.72,8.08.646.646,0,0,0-.32.72,1.245,1.245,0,0,0,.24.72c.08.12,1.2-.16,3.4-.8,2.16-.68,5.56-1.6,10.2-2.68.48.32,1.04.08,1.6-.68.4-.16.56-.4.56-.68a1.144,1.144,0,0,0-.2-.68C68,6.88,67.52,4,66,4.12a14.619,14.619,0,0,0-12.8,3.8A7.5,7.5,0,0,1,53.08,6.12Zm.12,4A14.656,14.656,0,0,1,64.76,5.44a2.141,2.141,0,0,1,1.12,2.04,38.623,38.623,0,0,1-.28,5.04c-4.12,1.24-8.08,2.36-12.04,3.44A20.61,20.61,0,0,1,53.2,10.12ZM66.12,34.88l2.44-.72c2.08-1.12,3.28-1.76,3.6-1.88s.76-.32,1.4-.6c.64.6,1.16.76,1.44.56s.44-.8.44-1.72a20.211,20.211,0,0,1,.64-4.04,6.1,6.1,0,0,0-.12-4.2c-.52-1.08-1.12-1.56-1.76-1.52a13.578,13.578,0,0,0-3.12.84c-1.48.52-3.52,1.32-6.04,2.44a2.874,2.874,0,0,0-.32-1.64c-.2-.28-.44-.32-.6-.16-.24.16-.6,1.28-1.08,3.4a17.694,17.694,0,0,0-.36,6.32q.36,3.18.96,3.48C64,35.64,64.84,35.48,66.12,34.88ZM64.84,26.2c4.32-2.32,7-3.56,8.04-3.64,1.08-.08,1.6.56,1.68,1.88a16.937,16.937,0,0,1-1.12,5.68,56.986,56.986,0,0,1-8.6,3.28A14.623,14.623,0,0,1,64.84,26.2ZM47.08,36.28l2.4-.68q3.12-1.74,3.6-1.92c.32-.12.8-.32,1.4-.6.68.6,1.2.76,1.44.56.28-.2.44-.8.44-1.72a18.177,18.177,0,0,1,.68-4.04,6.1,6.1,0,0,0-.12-4.2c-.56-1.08-1.12-1.56-1.76-1.52a13.081,13.081,0,0,0-3.12.84c-1.48.52-3.52,1.32-6.08,2.44a3.51,3.51,0,0,0-.28-1.64c-.2-.28-.44-.32-.64-.16-.24.16-.6,1.28-1.04,3.4a16.873,16.873,0,0,0-.36,6.32c.24,2.12.52,3.28.92,3.48C44.92,37.04,45.8,36.88,47.08,36.28ZM45.8,27.6q6.42-3.48,8.04-3.6c1.04-.08,1.6.52,1.68,1.84a16.06,16.06,0,0,1-1.16,5.68A54.82,54.82,0,0,1,45.8,34.8,14.624,14.624,0,0,1,45.8,27.6ZM100.48,8c-.36.6-.4,1.04-.08,1.36.32.36,2-.28,5-1.88a28.481,28.481,0,0,1-1.52,5.28,38.528,38.528,0,0,1-1.92,4.64,8.132,8.132,0,0,1-1.36,1.76c-.52.48-.52.92-.08,1.28a1.153,1.153,0,0,0,1.24.28c.4-.2,1.04-1.2,2-3.04A35.11,35.11,0,0,0,106,12.2a34.116,34.116,0,0,0,1.08-3.76c.12-.68.24-1.28.36-1.92,1.96-.92,3.32-1.56,4-1.88A6.222,6.222,0,0,1,114,4.16a3.268,3.268,0,0,1,1.24,1.08c.44.56.44,1.6.08,3.2a43.479,43.479,0,0,1-1.16,4.2,19.671,19.671,0,0,1-1.92,4.16c-.92,1.52-1.08,2.4-.4,2.64s1.08.12,1.36-.32q.42-.72,1.44-3a33.382,33.382,0,0,0,1.52-3.68c.32-1,.64-2.08.92-3.32a10.812,10.812,0,0,0,.24-3.52,3.435,3.435,0,0,0-1.04-2.36,3.8,3.8,0,0,0-2.08-.88,5.107,5.107,0,0,0-2.44.24c-.84.32-1.52.6-2.12.88-.56.28-1.48.68-2.68,1.28Zm-3.6,21.48c-.76-.32-1.2.24-1.48,1.84s-.24,2.56.12,2.84a.561.561,0,0,0,.92,0A2.777,2.777,0,0,0,97,32.52a16.71,16.71,0,0,1,.32-1.96C97.44,30,97.32,29.64,96.88,29.48ZM89.2,27.24c.12,2.92.56,5.08,1.4,6.44.8,1.36,1.44,1.96,1.88,1.72.4-.24.44-.96.04-2.08a27.568,27.568,0,0,1-1.04-3.4,5.876,5.876,0,0,1-.28-2.2c.08-.32-.24-.6-.92-.88C89.56,26.56,89.2,26.72,89.2,27.24ZM86,37.48c.28.4.76.52,1.52.4a1.613,1.613,0,0,0,1.4-.92c.2-.52.16-.84-.12-1.04q-.42-.24-.84.24c-.28.36-.84-.12-1.76-1.32a11.448,11.448,0,0,1-1.88-3.92c-.32-1.36-.64-2.12-.96-2.24s-.56-.12-.68.08a7.942,7.942,0,0,0,.12,2.68C83,33.04,84.12,35.08,86,37.48Zm11.52-16.6c.32.12.6-.08.8-.6s-.16-1-1-1.4A17.765,17.765,0,0,1,95,17.52c-.68-.44-1.16-.6-1.52-.48s-.48.52-.36,1.2a15.671,15.671,0,0,1-6.4,4c.8-3.24,1.88-5.4,3.12-6.48a9.814,9.814,0,0,0,2.32-2.6c.28-.64.36-1,.2-1.12s-.44-.12-.88,0a4.471,4.471,0,0,0-1.72,1.48c-.72.84-2.48,1.8-5.32,2.84,1.4-5,2.84-8.48,4.36-10.48,1.52-1.96,2.12-3.12,1.88-3.4-.28-.32-.76-.2-1.4.36A26.825,26.825,0,0,0,86.24,7.2a23.926,23.926,0,0,0-2.92,7c-.56,2.4-.56,3.6-.04,3.68a4.893,4.893,0,0,0,1.92-.2,5.454,5.454,0,0,0,2.16-1.16,16.5,16.5,0,0,0-2,4.92,3.593,3.593,0,0,0,.04,2.2.833.833,0,0,0,.6.4,15.116,15.116,0,0,0,2.48-.92,27.092,27.092,0,0,0,5.88-4C95.36,19.6,96.4,20.24,97.52,20.88Zm4.76,3.52q-.54-1.08-1.32-.84-.72.24-.6,3.48c.08,2.12.32,4.84.72,8.08a.682.682,0,0,0-.28.72,1.9,1.9,0,0,0,.16.72c.08.12,1.24-.16,3.4-.8,2.2-.68,5.6-1.6,10.24-2.68.52.32,1.08.08,1.56-.68.44-.16.64-.4.64-.68a.941.941,0,0,0-.24-.68c.64-5.88.16-8.76-1.4-8.64a14.584,14.584,0,0,0-12.8,3.8A7.206,7.206,0,0,1,102.28,24.4Zm.08,4a14.656,14.656,0,0,1,11.56-4.68,2.309,2.309,0,0,1,1.12,2.08,28.408,28.408,0,0,1-.28,5.04c-4.08,1.2-8.12,2.32-12.04,3.4A20.609,20.609,0,0,1,102.36,28.4Zm27.28,5.48c-.96,1.36-1.16,2.12-.6,2.36.48.24,1.08-.08,1.68-.92a14.435,14.435,0,0,0,1.56-4.72c.4-2.32.76-4.24,1.04-5.84.24-1.6.4-2.76.48-3.52a17.489,17.489,0,0,0,.12-1.8,5.36,5.36,0,0,0-.08-.96,1.438,1.438,0,0,0-.32-.48.592.592,0,0,0-.52-.08.912.912,0,0,0-.48.24,1.426,1.426,0,0,0-.24.6,10.806,10.806,0,0,0-.12,2.12,24.8,24.8,0,0,1-.2,2.84c-.12.72-.4,2.12-.84,4.24-.4,2.12-.68,3.44-.76,4A9.879,9.879,0,0,1,129.64,33.88Zm14.08-19.4a5.555,5.555,0,0,0-.64,1.56,7.27,7.27,0,0,0-.16,1.8c0,.8.04,2.64.12,5.48.04,2.84.16,5.36.28,7.44.12,2.04.2,3.36.2,3.76a9.3,9.3,0,0,0,.12,1.96c.08.88.44,1.24,1.04,1.2.64-.04.88-.48.72-1.36a13.375,13.375,0,0,1-.32-1.92c-.04-.4-.12-1.76-.16-3.96-.08-2.24-.12-3.96-.12-5.12s-.04-2.92-.12-5.32c-.12-2.4-.16-3.76-.12-4.16a3.807,3.807,0,0,0-.12-1C144.36,14.56,144.16,14.44,143.72,14.48ZM139.4,4.4c-.52-.44-1.04-.92-1.52-1.4s-1.08-.48-1.84,0a50.679,50.679,0,0,0-5.64,7.96c-1.32,2.4-2.24,4.08-2.68,5-.4.96-1,2.12-1.76,3.52-.72,1.4-1.04,2.32-.92,2.76a.581.581,0,0,0,.8.44,1.224,1.224,0,0,0,.88-.6c.12-.32,1.04-2.24,2.72-5.8a66.338,66.338,0,0,1,7.44-11.72,114.188,114.188,0,0,1,11.48,8.48,65.359,65.359,0,0,0,5.4,4.44.934.934,0,0,0,.92-.2c.32-.28-1.08-1.8-4.24-4.56A119.982,119.982,0,0,0,139.4,4.4Z" transform="translate(-5.452 -0.892)" fill="#ff553c"/></svg>