<svg xmlns="http://www.w3.org/2000/svg" width="211.6" height="18.188" viewBox="0 0 211.6 18.188"><path d="M4.02,9.82a54,54,0,0,1,7.6-2.1v.76a40.219,40.219,0,0,0-5.16,6.16c-.92,1.5-1.44,2.36-1.58,2.58s-.14.36.04.4a.936.936,0,0,0,.52.1c.18,0,.52-.46,1-1.42a19.728,19.728,0,0,1,2.24-3.32A19.153,19.153,0,0,1,11.66,9.9c.02,2.46.02,4.3-.02,5.52a4.233,4.233,0,0,0,.24,2.2c.2.24.4.24.64,0,.24-.22.3-1.16.18-2.78a73.017,73.017,0,0,1-.08-7.32,17.718,17.718,0,0,1,2.72-.34c.64,0,1.02-.1,1.12-.28a.579.579,0,0,0,.1-.46c-.06-.14-.4-.16-1.1-.1-.68.06-1.62.18-2.84.32,0-1.9-.12-2.98-.38-3.24-.24-.24-.42,0-.52.68a15.776,15.776,0,0,0-.1,2.74c-2.6.64-4.54,1.12-5.84,1.48A12.164,12.164,0,0,0,3.62,9c-.14.12-.18.3-.1.58C3.58,9.86,3.76,9.94,4.02,9.82Zm25.2-3.08a.51.51,0,0,0,.28-.6c-.08-.22-.46-.4-1.12-.52a22.351,22.351,0,0,0-2.24-.26,5.177,5.177,0,0,1-1.66-.3.655.655,0,0,0-.8.06c-.26.22-.32.38-.18.52a3.176,3.176,0,0,0,1.32.44,17.5,17.5,0,0,0,2.44.34,4.4,4.4,0,0,1,1.5.28A.53.53,0,0,0,29.22,6.74Zm6.96,2.4a59.861,59.861,0,0,1-9.02,5.82,5.1,5.1,0,0,1-1.08.3c-.38.06-.62.22-.68.52-.1.28.02.42.32.42a14.111,14.111,0,0,0,3.1-1.26,28.871,28.871,0,0,0,5.12-3.1,24.8,24.8,0,0,0,2.62-2.1.49.49,0,0,0,.02-.52A.239.239,0,0,0,36.18,9.14ZM54.42,3.62c.3-.34.08-.5-.68-.48a22.667,22.667,0,0,0-3.08.38c-1.26.26-2.34.46-3.2.64a17.285,17.285,0,0,1-1.9.28c-.4.02-.66.14-.76.36a1.333,1.333,0,0,0-.18.42c0,.08.1.18.28.28a.576.576,0,0,0,.44.1c.08-.02.76-.24,1.94-.64a31.808,31.808,0,0,1,5.7-1.02c-.02.24.14.32.44.28A1.946,1.946,0,0,0,54.42,3.62Zm-.88,3.56a11.238,11.238,0,0,0-5.38,1.56,35.9,35.9,0,0,1-3.64,1.7c-.14,0-.26.12-.32.34a.405.405,0,0,0,.06.48,1.022,1.022,0,0,0,.32.22.3.3,0,0,0,.32-.08c.1-.08,1.4-.76,3.9-2.08,2.5-1.3,4.4-1.66,5.72-1.04.2.2-.14,1.16-1.08,2.82-.96,1.66-1.86,3.1-2.7,4.28-.86,1.2-1.24,1.9-1.18,2.12.04.22.12.36.24.38.1.04.3-.04.6-.22a7.712,7.712,0,0,0,1.48-2.18c.7-1.26,1.56-2.7,2.56-4.24.98-1.54,1.34-2.58,1.04-3.08A2.361,2.361,0,0,0,53.54,7.18Zm12.34,7.88c.42-.3.64-.58.64-.86a47.547,47.547,0,0,1,4.06-5.54,34.617,34.617,0,0,0,.22,6.28c.24,1.6.46,2.46.66,2.56a.637.637,0,0,0,.6,0c.16-.1.24-.2.2-.28-.04-.06-.2-.9-.52-2.5a27.831,27.831,0,0,1-.18-7.16,17.166,17.166,0,0,1,2.58-2.54c.64-.48.98-.78.98-.88A1.621,1.621,0,0,0,75,3.66c-.1-.22-.8.28-2.1,1.42a30.561,30.561,0,0,0-4.02,4.5c-1.34,1.84-2.32,3.12-2.88,3.88a15.516,15.516,0,0,0-.98,1.38.312.312,0,0,0,.06.4C65.2,15.38,65.46,15.32,65.88,15.06ZM89.22,6.74a.51.51,0,0,0,.28-.6c-.08-.22-.46-.4-1.12-.52a22.351,22.351,0,0,0-2.24-.26,5.177,5.177,0,0,1-1.66-.3.655.655,0,0,0-.8.06c-.26.22-.32.38-.18.52a3.176,3.176,0,0,0,1.32.44,17.5,17.5,0,0,0,2.44.34,4.4,4.4,0,0,1,1.5.28A.53.53,0,0,0,89.22,6.74Zm6.96,2.4a59.861,59.861,0,0,1-9.02,5.82,5.1,5.1,0,0,1-1.08.3c-.38.06-.62.22-.68.52-.1.28.02.42.32.42a14.111,14.111,0,0,0,3.1-1.26,28.871,28.871,0,0,0,5.12-3.1,24.8,24.8,0,0,0,2.62-2.1.49.49,0,0,0,.02-.52A.239.239,0,0,0,96.18,9.14Zm5.62-5.08c-.1-.56-.32-.82-.64-.82q-.51.03-.42,2.58c.06,1.72.18,4.24.4,7.58a.4.4,0,0,0-.26.36.432.432,0,0,0,.26.48c0,.3-.02.62-.04.94-.04.34.04.56.2.66a.73.73,0,0,0,.58,0c.18-.1.2-.32.1-.66a1.612,1.612,0,0,1-.02-1.02,13.217,13.217,0,0,1,3.8-2.3c-.14,1.36-.32,2.1-.5,2.22a.365.365,0,0,0-.2.5,21.519,21.519,0,0,0-3.8,1.74c-.22.22-.3.42-.22.54q.09.21.6-.06a1.287,1.287,0,0,1,.92-.14,14.86,14.86,0,0,0-1.2,1.64,5.312,5.312,0,0,1-.52.76c-.14.16-.16.3-.04.44a.419.419,0,0,0,.46.14c.22-.04.48-.36.8-.94a9.9,9.9,0,0,1,1.9-2.26,3.966,3.966,0,0,0,2.1,1.46c.6.1.96.04,1.04-.18q.12-.3-.3-.36a2.27,2.27,0,0,1-1.08-.62c-.44-.34-.86-.64-1.24-.88.94-.66,1.5-1.04,1.62-1.14a12.131,12.131,0,0,0,.48-2.64,36.659,36.659,0,0,0,.3-5.22,6.669,6.669,0,0,0-.62-3.44,1.557,1.557,0,0,0-1.32-.66A8.241,8.241,0,0,0,101.8,4.06Zm1.18.2a2.74,2.74,0,0,1,1.54-.58,1.529,1.529,0,0,1,1.4.8,30.56,30.56,0,0,1-.06,6.62,27.543,27.543,0,0,0-3.84,1.96q-.12-1.32-.12-2.82a4.947,4.947,0,0,1,2.4-2.44c.88-.3,1.36-.46,1.46-.48s.12-.14.06-.36a.55.55,0,0,0-.28-.36,4.136,4.136,0,0,0-1.24.26,6.153,6.153,0,0,0-2.5,1.96c-.06-.88-.08-1.78-.1-2.72A1.737,1.737,0,0,1,102.98,4.26Zm5.24,9.46a7.823,7.823,0,0,0,.02.82v.54c-.66.14-1.12.24-1.32.28a3.63,3.63,0,0,0-.46.1c-.08.02-.18.18-.28.44a.887.887,0,0,0,.04.26c.02.08.06.12.2.12a1.965,1.965,0,0,0,.56-.04c.22-.04.64-.14,1.24-.28v.72a4.989,4.989,0,0,0,.12,1,8.923,8.923,0,0,0,.4,1.34c.16.46.34.62.52.48.18-.16.24-.5.16-1.08-.1-.56-.16-.94-.18-1.2-.02-.24-.06-.72-.08-1.46.72-.18,1.94-.5,3.64-.9,1.68-.42,2.92-.7,3.74-.9.04.48.08,1.08.12,1.76.02.68.04,1.14.02,1.36s-.04.46-.06.68c-.02.26-.12.4-.3.44s-.22.16-.1.36c.1.22.2.38.26.5a.491.491,0,0,0,.34.24.287.287,0,0,0,.36-.1,2.739,2.739,0,0,0,.24-1.02c.04-.54.06-1,.08-1.4.02-.36,0-.88-.02-1.58-.02-.66-.04-1.14-.06-1.46a11.012,11.012,0,0,1,1.24-.22c.48-.06.7-.2.66-.44q-.09-.33-.66-.3a10.166,10.166,0,0,0-1.28.16c0-.1,0-.32-.02-.62-.02-.32-.06-.62-.1-.92s-.08-.74-.14-1.38a1.093,1.093,0,0,0-.94-1.12c-.62-.1-1-.16-1.18-.18-.2-.02-.42-.02-.68-.02a10.305,10.305,0,0,0-1.44.18,7.169,7.169,0,0,1,.06-.8q.45-.12,1.26-.3c.52-.1.96-.2,1.28-.26.34-.06.56-.12.68-.14.1-.02.44-.02,1-.02.56.02.76-.14.58-.44a.833.833,0,0,0-.68-.44,2.859,2.859,0,0,0-.76.08,8.492,8.492,0,0,1-.96.16,9.708,9.708,0,0,0-1.1.18c-.02-.66-.06-1.08-.08-1.26a3.61,3.61,0,0,1,1.62-.36.848.848,0,0,0,.8-.22q.21-.27-.12-.48a1.294,1.294,0,0,0-.62-.22,3.54,3.54,0,0,0-.86.14c-.4.1-.64.16-.74.18a8.626,8.626,0,0,1,.08-1.2c.42-.06,1-.1,1.7-.16s.94-.2.7-.42a1.089,1.089,0,0,0-.78-.32h-.86c-.3.02-.6.06-.92.1a2.036,2.036,0,0,0-.22-1.06c-.14-.2-.32-.2-.58-.02-.26.16-.3.58-.08,1.22-.36.08-.66.14-.86.18a5.25,5.25,0,0,0-.74.2c-.3.1-.48.16-.58.2.02-.22.06-.44.1-.66a3.875,3.875,0,0,0,.06-.72q-.03-.39-.48-.3c-.32.04-.48.3-.52.74-.04.42-.06.86-.08,1.26-.28.1-.7.26-1.32.5a7.07,7.07,0,0,0-1.3.64c-.3.26-.36.48-.14.64.2.18.5.14.92-.08a8.043,8.043,0,0,1,1.24-.5c.4-.14.66-.22.8-.26a7.317,7.317,0,0,0,.04.82,2.359,2.359,0,0,0,.04.44c-1.62.56-2.36.94-2.24,1.16a.432.432,0,0,0,.54.26c.26-.06.82-.26,1.74-.58a4.395,4.395,0,0,0,0,1.06c-.36.1-.9.26-1.58.48a14.952,14.952,0,0,1-1.54.38.528.528,0,0,0-.5.54c-.02.28.36.34,1.16.16a21.255,21.255,0,0,0,2.16-.54c.62-.18,1.24-.36,1.86-.52-.02.36-.04.64-.06.86a7.576,7.576,0,0,0-.72.24c-.24.1-.8.36-1.62.76a.466.466,0,0,0-.42-.26.369.369,0,0,0-.38.28c-.06.2-.12.46-.2.76a12.638,12.638,0,0,0-.28,1.42A13.443,13.443,0,0,0,108.22,13.72Zm4.96-6.56c-1.02.26-1.64.42-1.9.46a10.148,10.148,0,0,1,.08-1.14,2.782,2.782,0,0,0,.88-.26,5.911,5.911,0,0,1,1.08-.3A4.134,4.134,0,0,1,113.18,7.16Zm.12-3.52.02,1.3c-.72.24-1.38.48-1.98.68a11.655,11.655,0,0,1-.08-1.26c.28-.12.68-.24,1.18-.4A5.455,5.455,0,0,0,113.3,3.64Zm-3.72,7.54a6.561,6.561,0,0,1,.78-.4c.32-.18.86-.4,1.58-.7a11.093,11.093,0,0,0,.1,1.86c-.42.12-.92.26-1.5.4s-1,.26-1.3.36C109.34,12.26,109.44,11.74,109.58,11.18Zm-.44,2.24c.08,0,.26,0,.5-.02q.39-.06,2.46-.6c.06.62.12,1.04.16,1.3-1.42.34-2.48.6-3.14.76A10.362,10.362,0,0,1,109.14,13.42Zm7.12-3.5c.02.58.04.96.06,1.12q-.24,0-.78.06c-.34.06-.68.12-.96.2-.3.1-.64.18-1,.28a4.323,4.323,0,0,1-.78.16c0-.26.02-.6.04-.98.02-.4.02-.7.02-.96.06-.02.16-.06.34-.12.18-.04.4-.08.64-.12a3.009,3.009,0,0,1,.72-.04C114.76,9.54,115.34,9.68,116.26,9.92Zm.2,3.2c-.68.16-1.8.42-3.38.8-.02-.1-.04-.28-.1-.5a5.982,5.982,0,0,1-.12-.84c1.26-.3,2.06-.52,2.44-.62a1.833,1.833,0,0,1,1.04.02q.03.51.06.72Q116.43,12.97,116.46,13.12Zm11.32-7.76c-.7-1.08-1.16-1.52-1.46-1.34-.28.2-.2.6.24,1.22.46.64.76,1.06.94,1.28s.76.94,1.72,2.12c-.38.42-1.04,1.1-2.02,2.1-.96,1-1.96,1.98-2.98,2.94-1.02.98-1.56,1.5-1.64,1.6a1.194,1.194,0,0,0-.18.3,1.666,1.666,0,0,0-.08.3.4.4,0,0,0,.08.28.254.254,0,0,0,.22.14.367.367,0,0,0,.3-.12c.14-.08,1.06-.98,2.76-2.72,1.7-1.72,2.78-2.8,3.2-3.26.44-.44.72-.76.88-.94,1.02,1.24,2,2.4,2.96,3.44.96,1.08,1.82,2,2.62,2.78.8.8,1.24,1.26,1.36,1.34a4.4,4.4,0,0,0,.36.28.6.6,0,0,0,.34.16q.18.03.24-.06a.324.324,0,0,0-.02-.3,3.535,3.535,0,0,0-.28-.46c-.14-.2-.3-.44-.52-.7-.22-.28-.9-1.02-2.04-2.24-1.12-1.18-1.94-2.08-2.48-2.64-.52-.58-1-1.1-1.4-1.56-.42-.44-.94-1.04-1.54-1.78s-1-1.2-1.14-1.38A3.37,3.37,0,0,1,127.78,5.36Zm29.16,9.62a3.745,3.745,0,0,0-2.88-1.88,43.758,43.758,0,0,0-.34-6.9,12.932,12.932,0,0,1,1.9-1c.48-.16.72-.32.76-.48a.35.35,0,0,0-.12-.34,1.542,1.542,0,0,0-.86.12,8.758,8.758,0,0,0-1.8.94,5.256,5.256,0,0,0-.74-1.58.478.478,0,0,0-.52.16c-.18.18-.14.46.12.86a2.076,2.076,0,0,1,.38,1.1,29.881,29.881,0,0,0-4.62,2.76,10.674,10.674,0,0,0-1.4,1.2c-.04.08,0,.18.1.32s.2.2.32.16a9.387,9.387,0,0,0,1.42-1.08,28.8,28.8,0,0,1,4.32-2.66,29.709,29.709,0,0,1,.18,6.42,9.886,9.886,0,0,0-2.8.32,5.257,5.257,0,0,0-1.78.82,1.333,1.333,0,0,0-.7,1.08,3.444,3.444,0,0,0,.1.92c.06.22.34.46.82.66a4.355,4.355,0,0,0,5.12-2.92,2.275,2.275,0,0,1,1.2.26,2.493,2.493,0,0,1,.76.76,1.8,1.8,0,0,0,.62.62.532.532,0,0,0,.48.06C157.1,15.62,157.08,15.38,156.94,14.98Zm-6.06,1.16a5.384,5.384,0,0,1-1.78.1.424.424,0,0,1-.38-.42c.06-.8.68-1.36,1.78-1.62a7.36,7.36,0,0,1,2.56-.3C152.92,14.66,152.18,15.42,150.88,16.14Zm-6.74.86c.3.18.42.14.36-.14-.08-.24-.26-1.28-.54-3.06a20.448,20.448,0,0,1-.12-5.42c.2-1.86.28-2.84.26-2.96a.624.624,0,0,0-.34-.28c-.16-.06-.28-.04-.32.06-.04.12-.16.88-.34,2.3a42.976,42.976,0,0,0-.08,6.5A4.469,4.469,0,0,0,144.14,17Zm20.3-11.12a17.88,17.88,0,0,1,3.68-1.08c1.4-.28,2.22-.44,2.42-.48a.953.953,0,0,0,.58-.16.759.759,0,0,0,.24-.36.742.742,0,0,0,0-.42c-.04-.18-.1-.26-.24-.2s-.48.18-.98.34a18.893,18.893,0,0,1-2.8.7,13.6,13.6,0,0,0-3.04.88c-.68.34-.94.6-.76.82C163.72,6.12,164,6.12,164.44,5.88Zm.18,10.86a.749.749,0,0,0-.36.1.391.391,0,0,0-.14.4q.03.27.54.48a1.71,1.71,0,0,0,.98.12,57.83,57.83,0,0,0,7.96-2.72,18.562,18.562,0,0,0,3.02-1.52.338.338,0,0,0,.02-.36.349.349,0,0,0-.28-.14,22.924,22.924,0,0,0-2.56,1.02c-1.62.68-3.4,1.36-5.38,2.06C166.42,16.88,165.16,17.08,164.62,16.74Zm22.5-4.04c.08.4.52.52,1.28.36.76-.14,1.98-.44,3.66-.84,1.68-.42,2.82-.36,3.46.18a4.447,4.447,0,0,1-1.84,3.34c-1.26,1.02-1.92,1.58-1.98,1.62s-.04.16.06.32a.42.42,0,0,0,.52.18,8.26,8.26,0,0,0,1.88-1.3,6.124,6.124,0,0,0,1.94-2.42,2.6,2.6,0,0,0-.48-2.64,3.132,3.132,0,0,0-2.7-.26c-1.26.28-2.86.58-4.84.92a39.322,39.322,0,0,1,.22-5.8,7.612,7.612,0,0,1,3.4-1.48,4.086,4.086,0,0,0,1.7-.36.283.283,0,0,0,0-.44q-.21-.27-1.56-.06a10.937,10.937,0,0,0-3.54,1.42c.18-1.58.06-2.3-.32-2.14a.6.6,0,0,0-.46.74,5.551,5.551,0,0,1-.06,1.78,26.367,26.367,0,0,0-3.9,2.12.5.5,0,0,0,.16.56c.16.22,1.38-.34,3.64-1.7C187.26,8.62,187.18,10.6,187.12,12.7ZM210.8,6.06a1.894,1.894,0,0,0,.56-.46c.2-.22-.1-.56-.94-1.08a9.525,9.525,0,0,0-2.56-1.1,5.846,5.846,0,0,0-1.42-.28.43.43,0,0,0-.18.28.409.409,0,0,0-.02.34q.03.12.3.3a1.8,1.8,0,0,0,.98.22,7.052,7.052,0,0,1,2.24.8c.3.2.44.4.44.58a.431.431,0,0,0,.12.36C210.4,6.1,210.54,6.12,210.8,6.06Zm-5.46,8.44c.2.16.74.1,1.62-.16.86-.24,1.98-.64,3.42-1.14a5.163,5.163,0,0,1,3.74-.1,2.75,2.75,0,0,1-.72,1.78,5.343,5.343,0,0,1-1.66,1.48,2.649,2.649,0,0,0-1.1.82c-.14.26-.16.44-.06.58a.37.37,0,0,0,.42.14,5.843,5.843,0,0,0,1.54-1,7.36,7.36,0,0,0,2.08-2.36c.54-.94.6-1.62.2-2.04a2.727,2.727,0,0,0-2.3-.52,16.436,16.436,0,0,0-4.12,1.06c-1.62.6-2.52.78-2.66.5a18.86,18.86,0,0,1,.34-5.44c0-.36-.12-.56-.38-.64s-.46.04-.6.32a37.077,37.077,0,0,1-.24,3.86C204.68,13.12,204.84,14.08,205.34,14.5Z" transform="translate(-3.479 -1.467)" fill="#fff"/></svg>