<svg xmlns="http://www.w3.org/2000/svg" width="149.349" height="38.445" viewBox="0 0 149.349 38.445"><path d="M24.52,12.24c.2-1.08.04-1.56-.52-1.52q-.9.06-1.08,3a56.9,56.9,0,0,0-.08,5.84,26.348,26.348,0,0,0,.52,4.72,33.211,33.211,0,0,0-5.92,4.2,2.906,2.906,0,0,1-.04-1.32,1.2,1.2,0,0,0-.32-1.12,1.154,1.154,0,0,0-.92-.28c-.32.08-.48,1-.52,2.76-.04,1.8.64,4.52,2.16,8.2-.56.32-.76.64-.64.96s.28.48.44.52a13.425,13.425,0,0,0,2.72-.68c1.6-.52,5.04-1.64,10.24-3.32.28,1,1.04.68,2.4-.92a1.732,1.732,0,0,0,1.12-.68c.24-.32.08-.6-.48-.88a16.636,16.636,0,0,0,.56-8.44A2.826,2.826,0,0,0,32.6,21.6a3.653,3.653,0,0,0-2.04-.24,30.718,30.718,0,0,0-5.88,2.24c-.16-1.2-.28-2.2-.36-2.88a25.741,25.741,0,0,1-.04-3.2,24.048,24.048,0,0,0,3.48-1.36,36.72,36.72,0,0,1,4.16-1.52c.88-.24,1.2-.56.88-1.04a1.054,1.054,0,0,0-1.24-.52c-.52.16-.96.32-1.36.44s-1,.36-1.76.68c-.8.36-1.6.72-2.44,1.08-.8.36-1.36.56-1.64.68V14.28A18.257,18.257,0,0,1,24.52,12.24Zm-12.56-.48C17.52,9.6,22.12,8,25.68,6.92,29.2,5.84,31.12,5.4,31.4,5.56s.72-.12,1.36-.84c.68-.68.72-1.12.16-1.24a6.979,6.979,0,0,0-2.88.32c-1.36.36-3.48,1.04-6.28,2.04A35.14,35.14,0,0,1,21.2,2.96,20.335,20.335,0,0,0,19.44.92,1.677,1.677,0,0,0,18.8.76a.774.774,0,0,0-.64.4,1,1,0,0,0-.2.76,5.737,5.737,0,0,0,.96,1.44A17.375,17.375,0,0,0,22.04,6.4c-4.72,1.52-8.32,2.76-10.8,3.68-2.44.88-3.72,1.52-3.84,1.88s-.12.6.08.72a.956.956,0,0,0,.56.2,17.379,17.379,0,0,0,2.28-.48c-.44,8.68-1.4,15.12-2.96,19.4s-2.2,6.6-1.92,7q.42.54.72.36a2.55,2.55,0,0,0,.56-.32A18.624,18.624,0,0,0,8,35.72a88.9,88.9,0,0,0,2.48-8.76,48.55,48.55,0,0,0,1.24-9.04A26.669,26.669,0,0,0,11.96,11.76ZM31.4,32.52c-3.8,1.32-7.68,2.48-11.72,3.6a18.891,18.891,0,0,1-1.8-5.68c3.4-3.24,6.4-5.36,9.08-6.32,2.64-1,4.24-1.36,4.84-1.16s.92,1.2,1.04,2.92A14.975,14.975,0,0,1,31.4,32.52ZM55.04,19.96l-4.12,1.48.24-4.52a2.9,2.9,0,0,1,1.96-.84c1-.12,1.52-.48,1.64-1.16s-.36-.8-1.48-.48a10.623,10.623,0,0,0-2.04.76,8.943,8.943,0,0,1,.16-2.24,7,7,0,0,0,.12-1.64.588.588,0,0,0-.64-.44,1.105,1.105,0,0,0-.72.2,2.962,2.962,0,0,0-.28,1.36c-.04.72-.12,1.88-.2,3.44-1.92.92-3.36,1.6-4.28,2.08-.96.52-1.48.8-1.6.84a1.25,1.25,0,0,0-.44.36,2.412,2.412,0,0,0-.24,1.2c-.04.64.56.56,1.76-.32a20.5,20.5,0,0,1,4.8-2.44l-.36,4.48c-1.56.64-2.8,1.12-3.72,1.4-.96.28-1.44.64-1.44.96a1.027,1.027,0,0,0,.16.84q.3.24,2.76-.72c1.64-.6,3.32-1.24,5-1.92a32.178,32.178,0,0,1,3.24-1.12,6.7,6.7,0,0,0,1.56-.56,1.053,1.053,0,0,0,.76-1.04c0-.48-.28-.68-.88-.56A5.836,5.836,0,0,0,55.04,19.96Zm-7.72,17,2.48-1.04,3.96-2.24c1,.56,1.48.24,1.44-1.04a7.53,7.53,0,0,1,.36-2.92,5.493,5.493,0,0,0,.12-2.76c-.2-1.16-.8-1.72-1.76-1.6a7.1,7.1,0,0,0-2.64.88,22.831,22.831,0,0,1-2.4,1.24,14.621,14.621,0,0,0-2.24,1.12q-.54-2.7-1.2-.12a14.181,14.181,0,0,0-.68,3.88c.04.84.08,2,.2,3.56C45.04,37.48,45.84,37.76,47.32,36.96Zm-.76-6.36a34.678,34.678,0,0,1,6.32-3.44c.88-.2,1.32.16,1.36,1.08a12.861,12.861,0,0,1-.68,4l-7.04,3.2A10.427,10.427,0,0,1,46.56,30.6Zm-3.8-12.12c.88-.64,1.2-1.08.96-1.4q-.36-.42.48-3.6a38.55,38.55,0,0,1,4.36-8.8,27.979,27.979,0,0,1,6.64,3c1.36,1.04,2.04,1.64,1.96,1.84-.08.24.08.44.4.56a2.311,2.311,0,0,0,1.76-.36c.84-.36.24-1.16-1.76-2.36a84.454,84.454,0,0,0-7.88-4.28c-.72-.64-1.24-.84-1.44-.64a25.481,25.481,0,0,0-2.2,3.4A57.876,57.876,0,0,0,42.6,13.2c-1.04,2.76-1.44,4.4-1.08,4.88A.954.954,0,0,0,42.76,18.48ZM78.2,8.68c-.44-1.8-.68-3.32-.88-4.52-.2-1.24-.36-1.92-.4-2.08-.08-.12-.36-.12-.88.08-.48.2-.68.36-.6.6a18.823,18.823,0,0,1,.36,2.08,11.879,11.879,0,0,0,.8,3.48c.4,1.16.68,1.76.8,1.76a6.261,6.261,0,0,0,.8-.12c.44-.08.68-.16.72-.28a.541.541,0,0,0,0-.36C78.88,9.16,78.64,8.96,78.2,8.68Zm-9.6,4.88a38.394,38.394,0,0,1-.44-5.52,4.55,4.55,0,0,1,2.84-1c.16.4.4.52.68.44.28,0,.56-.36.84-.96s0-.88-.92-1a6.945,6.945,0,0,0-3.48.92,4.591,4.591,0,0,1,.16-2.04c.2-.72.2-1.2-.08-1.4a.971.971,0,0,0-1.04,0c-.44.2-.64.76-.64,1.64,0,.92,0,1.76.04,2.6A46.394,46.394,0,0,1,61.32,9.4a12.735,12.735,0,0,0-2.04.8c-.08.08-.04.28.12.64.12.32.8.28,1.92-.16,1.16-.44,2.88-1.12,5.2-2,.12,1.76.32,3.56.52,5.4a32.929,32.929,0,0,0-5.64,3.76.8.8,0,0,1,0-.84c.12-.28.04-.48-.32-.6-.32-.12-.56-.12-.68,0a15.411,15.411,0,0,0-.88,3.56,39.613,39.613,0,0,0,.08,10,12.857,12.857,0,0,0,.88,4.56c.44,1.04.76,1.52.92,1.52a1.308,1.308,0,0,0,.64-.36,2.059,2.059,0,0,0,.56-.84.494.494,0,0,0-.24-.68c-.36-.2-.6-.96-.8-2.24a45.644,45.644,0,0,1,6.64-4.24c.28,2.16.44,3.8.56,4.88.12,1.12.4,1.6.96,1.6.56-.04.8-.76.68-2.04s-.28-3-.48-5.12a12.488,12.488,0,0,1,5.84-3.2,23.958,23.958,0,0,1,0,7.56,6.053,6.053,0,0,0-.08,3.04c.16.72.32,1.08.4,1.08a6.513,6.513,0,0,0,.76-.32c.44-.24.72-2.24.84-5.96a22.142,22.142,0,0,0-1.24-9.04,21.6,21.6,0,0,0-2.76-5.2A6.285,6.285,0,0,0,68.6,13.56Zm-7.44,6.76a21.274,21.274,0,0,1,5.96-4.8c.2,1.56.32,3.08.36,4.52a46.99,46.99,0,0,1-6.52,3.76ZM68,26.04c-1.96,1.12-4.12,2.48-6.6,4.12a13.375,13.375,0,0,1-.24-4.68c2.2-1.28,4.36-2.56,6.48-3.92C67.8,22.92,67.92,24.4,68,26.04Zm7.56-3.88a36.838,36.838,0,0,0-5.84,3.2c-.16-1.68-.32-3.2-.44-4.52a9.468,9.468,0,0,1,2.8-1.72,3.08,3.08,0,0,0,.6.24.668.668,0,0,0,.72-.28,5.082,5.082,0,0,1,.56-.68c.2-.16.24-.28.2-.4A13.077,13.077,0,0,1,75.56,22.16Zm-6.48-3a25.445,25.445,0,0,1-.28-4.4,4.946,4.946,0,0,1,5.12,2.68,2.488,2.488,0,0,0-2.44.08C70.8,18,69.96,18.56,69.08,19.16ZM100.48,8c-.36.6-.4,1.04-.08,1.36.32.36,2-.28,5-1.88a28.481,28.481,0,0,1-1.52,5.28,38.528,38.528,0,0,1-1.92,4.64,8.132,8.132,0,0,1-1.36,1.76c-.52.48-.52.92-.08,1.28a1.153,1.153,0,0,0,1.24.28c.4-.2,1.04-1.2,2-3.04A35.11,35.11,0,0,0,106,12.2a34.116,34.116,0,0,0,1.08-3.76c.12-.68.24-1.28.36-1.92,1.96-.92,3.32-1.56,4-1.88A6.222,6.222,0,0,1,114,4.16a3.268,3.268,0,0,1,1.24,1.08c.44.56.44,1.6.08,3.2a43.479,43.479,0,0,1-1.16,4.2,19.671,19.671,0,0,1-1.92,4.16c-.92,1.52-1.08,2.4-.4,2.64s1.08.12,1.36-.32q.42-.72,1.44-3a33.382,33.382,0,0,0,1.52-3.68c.32-1,.64-2.08.92-3.32a10.812,10.812,0,0,0,.24-3.52,3.435,3.435,0,0,0-1.04-2.36,3.8,3.8,0,0,0-2.08-.88,5.107,5.107,0,0,0-2.44.24c-.84.32-1.52.6-2.12.88-.56.28-1.48.68-2.68,1.28Zm-3.6,21.48c-.76-.32-1.2.24-1.48,1.84s-.24,2.56.12,2.84a.561.561,0,0,0,.92,0A2.777,2.777,0,0,0,97,32.52a16.71,16.71,0,0,1,.32-1.96C97.44,30,97.32,29.64,96.88,29.48ZM89.2,27.24c.12,2.92.56,5.08,1.4,6.44.8,1.36,1.44,1.96,1.88,1.72.4-.24.44-.96.04-2.08a27.568,27.568,0,0,1-1.04-3.4,5.876,5.876,0,0,1-.28-2.2c.08-.32-.24-.6-.92-.88C89.56,26.56,89.2,26.72,89.2,27.24ZM86,37.48c.28.4.76.52,1.52.4a1.613,1.613,0,0,0,1.4-.92c.2-.52.16-.84-.12-1.04q-.42-.24-.84.24c-.28.36-.84-.12-1.76-1.32a11.448,11.448,0,0,1-1.88-3.92c-.32-1.36-.64-2.12-.96-2.24s-.56-.12-.68.08a7.942,7.942,0,0,0,.12,2.68C83,33.04,84.12,35.08,86,37.48Zm11.52-16.6c.32.12.6-.08.8-.6s-.16-1-1-1.4A17.765,17.765,0,0,1,95,17.52c-.68-.44-1.16-.6-1.52-.48s-.48.52-.36,1.2a15.671,15.671,0,0,1-6.4,4c.8-3.24,1.88-5.4,3.12-6.48a9.814,9.814,0,0,0,2.32-2.6c.28-.64.36-1,.2-1.12s-.44-.12-.88,0a4.471,4.471,0,0,0-1.72,1.48c-.72.84-2.48,1.8-5.32,2.84,1.4-5,2.84-8.48,4.36-10.48,1.52-1.96,2.12-3.12,1.88-3.4-.28-.32-.76-.2-1.4.36A26.825,26.825,0,0,0,86.24,7.2a23.926,23.926,0,0,0-2.92,7c-.56,2.4-.56,3.6-.04,3.68a4.893,4.893,0,0,0,1.92-.2,5.454,5.454,0,0,0,2.16-1.16,16.5,16.5,0,0,0-2,4.92,3.593,3.593,0,0,0,.04,2.2.833.833,0,0,0,.6.4,15.116,15.116,0,0,0,2.48-.92,27.092,27.092,0,0,0,5.88-4C95.36,19.6,96.4,20.24,97.52,20.88Zm4.76,3.52q-.54-1.08-1.32-.84-.72.24-.6,3.48c.08,2.12.32,4.84.72,8.08a.682.682,0,0,0-.28.72,1.9,1.9,0,0,0,.16.72c.08.12,1.24-.16,3.4-.8,2.2-.68,5.6-1.6,10.24-2.68.52.32,1.08.08,1.56-.68.44-.16.64-.4.64-.68a.941.941,0,0,0-.24-.68c.64-5.88.16-8.76-1.4-8.64a14.584,14.584,0,0,0-12.8,3.8A7.206,7.206,0,0,1,102.28,24.4Zm.08,4a14.656,14.656,0,0,1,11.56-4.68,2.309,2.309,0,0,1,1.12,2.08,28.408,28.408,0,0,1-.28,5.04c-4.08,1.2-8.12,2.32-12.04,3.4A20.609,20.609,0,0,1,102.36,28.4Zm27.28,5.48c-.96,1.36-1.16,2.12-.6,2.36.48.24,1.08-.08,1.68-.92a14.435,14.435,0,0,0,1.56-4.72c.4-2.32.76-4.24,1.04-5.84.24-1.6.4-2.76.48-3.52a17.489,17.489,0,0,0,.12-1.8,5.36,5.36,0,0,0-.08-.96,1.438,1.438,0,0,0-.32-.48.592.592,0,0,0-.52-.08.912.912,0,0,0-.48.24,1.426,1.426,0,0,0-.24.6,10.806,10.806,0,0,0-.12,2.12,24.8,24.8,0,0,1-.2,2.84c-.12.72-.4,2.12-.84,4.24-.4,2.12-.68,3.44-.76,4A9.879,9.879,0,0,1,129.64,33.88Zm14.08-19.4a5.555,5.555,0,0,0-.64,1.56,7.27,7.27,0,0,0-.16,1.8c0,.8.04,2.64.12,5.48.04,2.84.16,5.36.28,7.44.12,2.04.2,3.36.2,3.76a9.3,9.3,0,0,0,.12,1.96c.08.88.44,1.24,1.04,1.2.64-.04.88-.48.72-1.36a13.375,13.375,0,0,1-.32-1.92c-.04-.4-.12-1.76-.16-3.96-.08-2.24-.12-3.96-.12-5.12s-.04-2.92-.12-5.32c-.12-2.4-.16-3.76-.12-4.16a3.807,3.807,0,0,0-.12-1C144.36,14.56,144.16,14.44,143.72,14.48ZM139.4,4.4c-.52-.44-1.04-.92-1.52-1.4s-1.08-.48-1.84,0a50.679,50.679,0,0,0-5.64,7.96c-1.32,2.4-2.24,4.08-2.68,5-.4.96-1,2.12-1.76,3.52-.72,1.4-1.04,2.32-.92,2.76a.581.581,0,0,0,.8.44,1.224,1.224,0,0,0,.88-.6c.12-.32,1.04-2.24,2.72-5.8a66.338,66.338,0,0,1,7.44-11.72,114.188,114.188,0,0,1,11.48,8.48,65.359,65.359,0,0,0,5.4,4.44.934.934,0,0,0,.92-.2c.32-.28-1.08-1.8-4.24-4.56A119.982,119.982,0,0,0,139.4,4.4Z" transform="translate(-5.376 -0.76)" fill="#ff553c"/></svg>