<svg xmlns="http://www.w3.org/2000/svg" width="480.72" height="76.963" viewBox="0 0 480.72 76.963"><g transform="translate(-17.28 -6.963)"><path d="M19.75,22.475a12.764,12.764,0,0,1,7.227,3.336A8.932,8.932,0,0,1,29.7,32.484a8.841,8.841,0,0,1-.067,1.294,19.592,19.592,0,0,1-3.7,9.089,27.194,27.194,0,0,1-8.2,7.523l-1.143.749a1.792,1.792,0,0,1-.067.545q-.269,1.021-1.613,1.021a11.616,11.616,0,0,1-2.824-.613,13.931,13.931,0,0,1-7.832-5.447,15.516,15.516,0,0,1-2.924-9.26L1.4,36.16A12.882,12.882,0,0,1,4.053,29.08a16.909,16.909,0,0,1,6.017-4.936,16.72,16.72,0,0,1,7.529-1.8A12.741,12.741,0,0,1,19.75,22.475ZM14.91,48.824a16.613,16.613,0,0,0,6.017-3.813,23.658,23.658,0,0,0,4.639-6.094,13.681,13.681,0,0,0,1.782-6.366,8.57,8.57,0,0,0-.2-1.906,6.548,6.548,0,0,0-3.731-4.528,14.3,14.3,0,0,0-6.487-1.532,13,13,0,0,0-6.622,1.77,13.177,13.177,0,0,0-4.84,4.8,12.613,12.613,0,0,0-1.782,6.5,12.8,12.8,0,0,0,1.008,4.9A11.8,11.8,0,0,0,8.12,47.326,10.657,10.657,0,0,0,13.3,49.709a2.673,2.673,0,0,0,.74.068A1.4,1.4,0,0,1,14.91,48.824ZM60.087,35.752a.926.926,0,0,0-.4-.068,1.359,1.359,0,0,0-1.008.409,1.4,1.4,0,0,0-.4,1.021.949.949,0,0,0,.37.817,4.5,4.5,0,0,0,1.176.545,5.3,5.3,0,0,1,2.42,1.974,3.8,3.8,0,0,1,.437,1.021,1.7,1.7,0,0,0,.706,1.021,1.2,1.2,0,0,0,.739.2,1.688,1.688,0,0,0,.874-.238,1.16,1.16,0,0,0,.538-.647,2.185,2.185,0,0,0,.134-.613,3.673,3.673,0,0,0-.672-1.77A8.882,8.882,0,0,0,60.087,35.752Zm58.622-12.936a1.316,1.316,0,0,1,.605,1.157,1.477,1.477,0,0,1-.269.817,1.287,1.287,0,0,1-.74.545A39.534,39.534,0,0,0,109.3,30a40.129,40.129,0,0,0-7.933,6.3,1.138,1.138,0,0,0-.4.749.935.935,0,0,0,.336.545l.807.817a16.919,16.919,0,0,0,5.008,2.894,24.165,24.165,0,0,0,6.219,1.736l1.613.272h1.076a1.65,1.65,0,0,1,.605.068.912.912,0,0,1,.639.443,1.566,1.566,0,0,1,.235.851,1.371,1.371,0,0,1-.471,1.089,1.839,1.839,0,0,1-1.21.34q-.067,0-1.479-.2a32.741,32.741,0,0,1-5.916-1.634,36.329,36.329,0,0,1-5.714-2.587,15.138,15.138,0,0,1-2.689-1.906q-.336,3.881-.336,6.536a28.238,28.238,0,0,0,1.345,9.532A6.081,6.081,0,0,0,102.1,57.88a2.361,2.361,0,0,0,.773.579,1.93,1.93,0,0,1,.773.647,1.621,1.621,0,0,1,.2.681,1.316,1.316,0,0,1-.605,1.157,1.291,1.291,0,0,1-1.277.136,4.82,4.82,0,0,1-2.992-3.336,31.57,31.57,0,0,1-1.244-6.128,61.4,61.4,0,0,1-.4-7.217,101.966,101.966,0,0,1,.975-13.617,133.553,133.553,0,0,1,2.588-13.821l.807-3.2a14.444,14.444,0,0,1,.4-1.634,3.825,3.825,0,0,1,.672-1.362,1.273,1.273,0,0,1,1.076-.545,1.362,1.362,0,0,1,1.109.545,1.26,1.26,0,0,1,.168,1.294,78.827,78.827,0,0,0-2.824,10.894q-.941,4.9-1.681,10.894l.74-.681a52.518,52.518,0,0,1,6.689-5.243,55.614,55.614,0,0,1,7.227-4.289,9.379,9.379,0,0,0,1.042-.545,3.326,3.326,0,0,1,1.647-.477A1.2,1.2,0,0,1,118.709,22.816ZM149.5,35.752a.926.926,0,0,0-.4-.068,1.359,1.359,0,0,0-1.008.409,1.4,1.4,0,0,0-.4,1.021.949.949,0,0,0,.37.817,4.5,4.5,0,0,0,1.176.545,5.3,5.3,0,0,1,2.42,1.974,3.8,3.8,0,0,1,.437,1.021,1.7,1.7,0,0,0,.706,1.021,1.2,1.2,0,0,0,.74.2,1.688,1.688,0,0,0,.874-.238,1.16,1.16,0,0,0,.538-.647,2.185,2.185,0,0,0,.134-.613,3.673,3.673,0,0,0-.672-1.77A8.882,8.882,0,0,0,149.5,35.752Zm58.824,0a1.269,1.269,0,0,1,.74,1.157,1.568,1.568,0,0,1-.336.885,1.945,1.945,0,0,1-1.546.545l-1.21-.068q-1.008,0-3.025.136.134,1.089.269,3.268.269,4.085.269,4.97,0,.477-.034,1.328t-.034,2.689a4.178,4.178,0,0,1-.4,2.247,1.273,1.273,0,0,1-1.076.545,1.4,1.4,0,0,1-.74-.2,1.158,1.158,0,0,1-.605-1.089,3.872,3.872,0,0,1,.134-.885,28.208,28.208,0,0,0,.336-4.153q0-3.609-.471-8.511-2.42.272-6.252.953a32.425,32.425,0,0,0-4.37,1.089.74.74,0,0,1-.336.068,65.342,65.342,0,0,0-1.95,11.234q-.134,1.77-.134,2.587l.067,1.089a1.386,1.386,0,0,1-.269.885,1.6,1.6,0,0,1-1.143.545,1.207,1.207,0,0,1-.84-.34,1.391,1.391,0,0,1-.437-.885,19.875,19.875,0,0,1,.4-4.7l.2-1.43a144.145,144.145,0,0,1,4.437-18.792l.538-1.838q1.008-3.4,1.681-5.515a29.814,29.814,0,0,1,1.681-4.153q1.345-2.86,2.689-2.86a1.915,1.915,0,0,1,1.412.749,10.67,10.67,0,0,1,1.882,3.915q.807,2.689,1.748,7.591.605,3,1.076,7.013,2.219-.2,4.3-.2h.538A1.852,1.852,0,0,1,208.323,35.752Zm-17.95,2.179a95.985,95.985,0,0,1,9.95-1.838l-.672-4.9q-.471-3-1.345-6.809-.605-2.519-.975-3.609t-.706-1.089q-.605,0-2.017,4.085-1.277,3.677-2.891,9.191Q190.777,36.229,190.373,37.931Zm48-2.179a.926.926,0,0,0-.4-.068,1.359,1.359,0,0,0-1.008.409,1.4,1.4,0,0,0-.4,1.021.949.949,0,0,0,.37.817,4.5,4.5,0,0,0,1.176.545,5.3,5.3,0,0,1,2.42,1.974,3.8,3.8,0,0,1,.437,1.021,1.7,1.7,0,0,0,.706,1.021,1.2,1.2,0,0,0,.739.2,1.688,1.688,0,0,0,.874-.238,1.16,1.16,0,0,0,.538-.647,2.185,2.185,0,0,0,.134-.613,3.672,3.672,0,0,0-.672-1.77A8.882,8.882,0,0,0,238.374,35.752ZM297,22.816a1.316,1.316,0,0,1,.605,1.157,1.477,1.477,0,0,1-.269.817,1.287,1.287,0,0,1-.74.545A39.535,39.535,0,0,0,287.584,30a40.129,40.129,0,0,0-7.933,6.3,1.138,1.138,0,0,0-.4.749.935.935,0,0,0,.336.545l.807.817A16.919,16.919,0,0,0,285.4,41.3a24.165,24.165,0,0,0,6.219,1.736l1.613.272h1.076a1.65,1.65,0,0,1,.605.068.912.912,0,0,1,.639.443,1.566,1.566,0,0,1,.235.851,1.37,1.37,0,0,1-.471,1.089,1.839,1.839,0,0,1-1.21.34q-.067,0-1.479-.2a32.741,32.741,0,0,1-5.916-1.634A36.329,36.329,0,0,1,281,41.675a15.137,15.137,0,0,1-2.689-1.906q-.336,3.881-.336,6.536a28.239,28.239,0,0,0,1.345,9.532,6.08,6.08,0,0,0,1.076,2.043,2.361,2.361,0,0,0,.773.579,1.931,1.931,0,0,1,.773.647,1.622,1.622,0,0,1,.2.681,1.316,1.316,0,0,1-.605,1.157,1.291,1.291,0,0,1-1.277.136,4.82,4.82,0,0,1-2.992-3.336,31.573,31.573,0,0,1-1.244-6.128,61.405,61.405,0,0,1-.4-7.217,101.965,101.965,0,0,1,.975-13.617,133.562,133.562,0,0,1,2.588-13.821l.807-3.2a14.44,14.44,0,0,1,.4-1.634,3.826,3.826,0,0,1,.672-1.362,1.273,1.273,0,0,1,1.076-.545,1.362,1.362,0,0,1,1.109.545,1.26,1.26,0,0,1,.168,1.294,78.83,78.83,0,0,0-2.824,10.894q-.941,4.9-1.681,10.894l.74-.681a52.518,52.518,0,0,1,6.689-5.243,55.613,55.613,0,0,1,7.227-4.289,9.381,9.381,0,0,0,1.042-.545,3.327,3.327,0,0,1,1.647-.477A1.2,1.2,0,0,1,297,22.816Zm30.79,12.936a.926.926,0,0,0-.4-.068,1.359,1.359,0,0,0-1.008.409,1.4,1.4,0,0,0-.4,1.021.949.949,0,0,0,.37.817,4.5,4.5,0,0,0,1.176.545,5.294,5.294,0,0,1,2.42,1.974,3.8,3.8,0,0,1,.437,1.021,1.7,1.7,0,0,0,.706,1.021,1.2,1.2,0,0,0,.74.2,1.688,1.688,0,0,0,.874-.238,1.16,1.16,0,0,0,.538-.647,2.186,2.186,0,0,0,.134-.613,3.673,3.673,0,0,0-.672-1.77A8.882,8.882,0,0,0,327.786,35.752Zm56.2,13.617a1.439,1.439,0,0,1,.471,1.021,1.267,1.267,0,0,1-.437.953,1.473,1.473,0,0,1-1.042.409,10.728,10.728,0,0,1-1.412-.068q-.336,0-1.008-.034a6.015,6.015,0,0,0-1.143.034,41.257,41.257,0,0,0-5.244.613q-1.479.34-4.235.681-.336.068-.807.2a2.979,2.979,0,0,1-.807.136,1.151,1.151,0,0,1-.941-.409,1.455,1.455,0,0,1-.336-.953,1.579,1.579,0,0,1,.269-.885,1.074,1.074,0,0,1,.807-.477,56.985,56.985,0,0,1,5.714-.817,8.843,8.843,0,0,1-.067-1.294V44.194q0-5.787.672-15.455l.134-1.838a22.436,22.436,0,0,1,.941-6.536,75.921,75.921,0,0,0-8.941,1.566q-.4.136-1.042.374a1.767,1.767,0,0,1-1.109.1,1.287,1.287,0,0,1-.74-.545,1.477,1.477,0,0,1-.269-.817,1.423,1.423,0,0,1,.269-.851,1.059,1.059,0,0,1,.74-.443q2.017-.477,7.059-1.157t7.529-.885a11.521,11.521,0,0,1,1.613-.136,2.588,2.588,0,0,1,.941.136A1.207,1.207,0,0,1,382.442,19a1.259,1.259,0,0,1-.941,1.362,1.382,1.382,0,0,1-.538.068,4.908,4.908,0,0,1-.975-.1,4.617,4.617,0,0,0-.908-.1h-.605a.986.986,0,0,1-.336.681q-.067.136-.2.477a4.874,4.874,0,0,0-.2.613,36.887,36.887,0,0,0-.74,4.085q-.4,2.86-.672,8.579-.269,4.766-.269,7.83a51.282,51.282,0,0,0,.4,6.672v.34l4.1-.34q1.613-.2,2.017-.2A2.1,2.1,0,0,1,383.988,49.369Z" transform="translate(113.541 10.072)" fill="#ff553c"/><g transform="translate(18 7.626)"><path d="M591.185,360.016l-2.984-4.308.822-.569,2.354,3.4,40.962-34.992-20.781-30-46.6,26.854,19.7,28.441-.822.569-20.321-29.335,48.339-27.856,21.82,31.5-.344.293Z" transform="translate(-564.238 -292.881)" fill="#8c6e31"/><path d="M597.092,452.774c.811,3.458-.834,6.8-3.675,7.469s-5.8-1.6-6.613-5.055,3.919-6.428,6.76-7.094S596.281,449.316,597.092,452.774Z" transform="translate(-577.545 -384.06)" fill="#ffac9d"/></g></g></svg>